<svg viewBox="0 0 476 160" fill="none" xmlns="http://www.w3.org/2000/svg">
      <g clip-path="url(#clip0)">
        <path
          d="M107.582 33.4161C108.419 33.4161 109.222 33.0836 109.814 32.4918C110.405 31.9 110.738 31.0974 110.738 30.2605C110.738 29.4236 110.405 28.621 109.814 28.0292C109.222 27.4374 108.419 27.105 107.582 27.105C104.722 27.105 101.538 22.8346 101.538 16.7077C101.538 10.5807 104.722 6.31111 107.582 6.31111C109.303 6.31111 111.136 7.86558 112.328 10.4335H119.057C117.257 4.26368 112.859 0 107.582 0C100.653 0 95.2266 7.33883 95.2266 16.7077C95.2266 26.0765 100.653 33.4161 107.582 33.4161Z"
          fill="#00507C"
        />
        <path
          d="M46.0509 33.4161C46.8878 33.4161 47.6904 33.0836 48.2822 32.4918C48.874 31.9 49.2065 31.0974 49.2065 30.2605C49.2065 29.4236 48.874 28.621 48.2822 28.0292C47.6904 27.4374 46.8878 27.105 46.0509 27.105C43.1912 27.105 40.0064 22.8346 40.0064 16.7077C40.0064 10.5807 43.1913 6.31111 46.0509 6.31111C47.7712 6.31111 49.6052 7.86558 50.7966 10.4335H57.5256C55.7256 4.26368 51.3276 0 46.0509 0C39.1219 0 33.6953 7.33883 33.6953 16.7077C33.6953 26.0765 39.1219 33.4161 46.0509 33.4161Z"
          fill="#00507C"
        />
        <path
          d="M34.9292 98.6973H22.6048C22.0372 98.6972 21.487 98.8923 21.0461 99.2497C20.6052 99.6071 20.3006 100.105 20.1832 100.66L18.3476 109.341C18.3032 109.551 18.3062 109.769 18.3565 109.978C18.4069 110.186 18.5032 110.381 18.6385 110.548C18.7738 110.715 18.9447 110.85 19.1386 110.942C19.3326 111.035 19.5447 111.083 19.7596 111.083H32.0951C32.6632 111.083 33.2139 110.887 33.655 110.529C34.096 110.171 34.4005 109.673 34.5174 109.117L36.3416 100.437C36.3858 100.227 36.3825 100.01 36.332 99.8012C36.2816 99.5925 36.1851 99.3977 36.0498 99.231C35.9145 99.0642 35.7437 98.9298 35.5498 98.8375C35.356 98.7452 35.144 98.6973 34.9292 98.6973Z"
          fill="#00507C"
        />
        <path
          d="M39.5524 76.8438H27.2299C26.6624 76.8437 26.1121 77.0388 25.6713 77.3962C25.2304 77.7535 24.9257 78.2516 24.8083 78.8068L22.9726 87.4876C22.9282 87.6978 22.9312 87.9153 22.9815 88.1242C23.0319 88.333 23.1282 88.5281 23.2635 88.695C23.3988 88.8619 23.5697 88.9965 23.7636 89.0889C23.9576 89.1814 24.1697 89.2294 24.3846 89.2294H36.7069C37.2744 89.2293 37.8247 89.0343 38.2655 88.6769C38.7064 88.3195 39.011 87.8215 39.1285 87.2663L40.9643 78.5855C41.0088 78.3753 41.0057 78.1578 40.9554 77.949C40.9051 77.7401 40.8088 77.5451 40.6735 77.3781C40.5382 77.2112 40.3673 77.0766 40.1733 76.9842C39.9794 76.8917 39.7672 76.8438 39.5524 76.8438Z"
          fill="#00507C"
        />
        <path
          d="M59.1266 98.6973H46.7885C46.221 98.6973 45.6707 98.8923 45.2298 99.2497C44.789 99.6071 44.4843 100.105 44.3669 100.66L42.5312 109.341C42.4868 109.551 42.4898 109.769 42.5401 109.978C42.5905 110.186 42.6868 110.381 42.8221 110.548C42.9574 110.715 43.1283 110.85 43.3222 110.942C43.5162 111.035 43.7283 111.083 43.9432 111.083H56.2814C56.8489 111.083 57.3992 110.888 57.8401 110.53C58.281 110.173 58.5856 109.675 58.703 109.12L60.5386 100.439C60.5831 100.229 60.58 100.011 60.5297 99.8024C60.4793 99.5935 60.383 99.3985 60.2477 99.2316C60.1124 99.0647 59.9415 98.9301 59.7475 98.8377C59.5536 98.7452 59.3414 98.6973 59.1266 98.6973Z"
          fill="#00507C"
        />
        <path
          d="M63.7514 76.8438H51.4134C50.8458 76.8437 50.2956 77.0388 49.8547 77.3961C49.4138 77.7535 49.1092 78.2516 48.9918 78.8068L47.1562 87.4876C47.1118 87.6978 47.1148 87.9153 47.1651 88.1242C47.2155 88.333 47.3118 88.5281 47.4471 88.695C47.5824 88.8619 47.7533 88.9965 47.9472 89.0889C48.1412 89.1814 48.3533 89.2294 48.5682 89.2294H60.9062C61.4737 89.2294 62.024 89.0343 62.4649 88.6769C62.9058 88.3196 63.2104 87.8215 63.3279 87.2663L65.1634 78.5855C65.2079 78.3753 65.2048 78.1578 65.1545 77.9489C65.1042 77.74 65.0078 77.545 64.8725 77.3781C64.7372 77.2112 64.5663 77.0766 64.3724 76.9842C64.1784 76.8917 63.9663 76.8437 63.7514 76.8438Z"
          fill="#00507C"
        />
        <path
          d="M67.9512 65.4146L69.7869 56.734C69.8313 56.5237 69.8283 56.3063 69.778 56.0974C69.7276 55.8885 69.6313 55.6935 69.496 55.5266C69.3607 55.3597 69.1898 55.2251 68.9959 55.1326C68.8019 55.0402 68.5898 54.9922 68.3749 54.9922H56.0236C55.4556 54.9922 54.9048 55.1875 54.4638 55.5455C54.0227 55.9035 53.7182 56.4022 53.6013 56.9581L51.7769 65.6376C51.7328 65.8477 51.7361 66.065 51.7866 66.2737C51.837 66.4824 51.9334 66.6772 52.0688 66.8439C52.2041 67.0106 52.3749 67.1451 52.5687 67.2374C52.7626 67.3297 52.9746 67.3776 53.1893 67.3776H65.5296C66.0971 67.3776 66.6474 67.1826 67.0882 66.8252C67.5291 66.4679 67.8338 65.9698 67.9512 65.4146Z"
          fill="#00507C"
        />
        <path
          d="M83.3163 98.6973H70.9917C70.4241 98.6973 69.8738 98.8923 69.433 99.2497C68.9921 99.6071 68.6874 100.105 68.57 100.66L66.7343 109.341C66.6899 109.551 66.6929 109.769 66.7433 109.978C66.7936 110.186 66.8899 110.381 67.0252 110.548C67.1605 110.715 67.3314 110.85 67.5253 110.942C67.7193 111.035 67.9314 111.083 68.1463 111.083H80.4819C81.05 111.083 81.6007 110.887 82.0417 110.529C82.4828 110.171 82.7873 109.673 82.9042 109.117L84.7287 100.437C84.7728 100.227 84.7696 100.01 84.7191 99.8012C84.6686 99.5925 84.5722 99.3977 84.4369 99.231C84.3016 99.0643 84.1308 98.9298 83.9369 98.8375C83.7431 98.7452 83.5311 98.6973 83.3163 98.6973Z"
          fill="#00507C"
        />
        <path
          d="M87.9389 76.8438H75.6167C75.0491 76.8437 74.4988 77.0388 74.058 77.3962C73.6171 77.7535 73.3124 78.2516 73.195 78.8068L71.3593 87.4876C71.3149 87.6978 71.3179 87.9153 71.3683 88.1242C71.4186 88.333 71.5149 88.5281 71.6502 88.695C71.7855 88.8619 71.9564 88.9965 72.1503 89.0889C72.3443 89.1814 72.5564 89.2294 72.7713 89.2294H85.0935C85.661 89.2294 86.2113 89.0343 86.6522 88.6769C87.0931 88.3196 87.3977 87.8215 87.5152 87.2663L89.3508 78.5855C89.3953 78.3753 89.3923 78.1578 89.3419 77.9489C89.2916 77.7401 89.1953 77.545 89.06 77.3781C88.9247 77.2112 88.7538 77.0766 88.5599 76.9842C88.3659 76.8917 88.1538 76.8437 87.9389 76.8438Z"
          fill="#00507C"
        />
        <path
          d="M92.1386 65.4146L93.9742 56.734C94.0186 56.5237 94.0156 56.3062 93.9652 56.0973C93.9149 55.8884 93.8186 55.6934 93.6832 55.5265C93.5479 55.3596 93.377 55.225 93.183 55.1326C92.9891 55.0401 92.7769 54.9922 92.562 54.9922H80.2265C79.6585 54.9922 79.1077 55.1876 78.6667 55.5456C78.2256 55.9035 77.9211 56.4023 77.8043 56.9582L75.9801 65.6376C75.9359 65.8477 75.9392 66.065 75.9897 66.2737C76.0401 66.4824 76.1366 66.6772 76.2719 66.8439C76.4072 67.0107 76.578 67.1451 76.7718 67.2374C76.9657 67.3297 77.1777 67.3776 77.3924 67.3776H89.7169C90.2844 67.3776 90.8347 67.1826 91.2756 66.8253C91.7165 66.4679 92.0211 65.9699 92.1386 65.4146Z"
          fill="#00507C"
        />
        <path
          d="M107.507 98.6973H95.1829C94.6154 98.6972 94.0651 98.8923 93.6242 99.2497C93.1834 99.6071 92.8787 100.105 92.7613 100.66L90.9258 109.341C90.8813 109.551 90.8843 109.769 90.9347 109.978C90.985 110.186 91.0813 110.381 91.2166 110.548C91.3519 110.715 91.5228 110.85 91.7167 110.942C91.9107 111.035 92.1228 111.083 92.3377 111.083H104.673C105.241 111.083 105.792 110.887 106.233 110.529C106.674 110.171 106.979 109.673 107.095 109.117L108.92 100.437C108.964 100.227 108.961 100.01 108.91 99.8012C108.86 99.5925 108.763 99.3977 108.628 99.231C108.493 99.0642 108.322 98.9298 108.128 98.8375C107.934 98.7452 107.722 98.6973 107.507 98.6973Z"
          fill="#00507C"
        />
        <path
          d="M96.9588 89.2294H109.281C109.849 89.2293 110.399 89.0343 110.84 88.6769C111.281 88.3195 111.585 87.8215 111.703 87.2663L113.539 78.5855C113.583 78.3753 113.58 78.1578 113.53 77.949C113.479 77.7401 113.383 77.5451 113.248 77.3781C113.112 77.2112 112.942 77.0766 112.748 76.9842C112.554 76.8917 112.342 76.8438 112.127 76.8438H99.8042C99.2366 76.8437 98.6864 77.0388 98.2455 77.3962C97.8046 77.7535 97.4999 78.2516 97.3825 78.8068L95.5468 87.4876C95.5024 87.6978 95.5054 87.9153 95.5558 88.1242C95.6061 88.333 95.7024 88.5281 95.8377 88.695C95.973 88.8619 96.1439 88.9965 96.3378 89.0889C96.5318 89.1814 96.7439 89.2294 96.9588 89.2294Z"
          fill="#3099D3"
        />
        <path
          d="M101.576 67.3777H113.9C114.468 67.3777 115.018 67.1827 115.459 66.8253C115.9 66.4679 116.205 65.9699 116.322 65.4146L118.158 56.734C118.202 56.5237 118.199 56.3063 118.149 56.0974C118.099 55.8885 118.002 55.6935 117.867 55.5266C117.732 55.3597 117.561 55.2251 117.367 55.1326C117.173 55.0402 116.961 54.9922 116.746 54.9922H104.41C103.842 54.9922 103.292 55.1875 102.85 55.5455C102.409 55.9035 102.105 56.4022 101.988 56.9581L100.164 65.6376C100.12 65.8477 100.123 66.065 100.173 66.2737C100.224 66.4824 100.32 66.6772 100.455 66.8439C100.591 67.0107 100.762 67.1451 100.955 67.2374C101.149 67.3297 101.361 67.3777 101.576 67.3777Z"
          fill="#00507C"
        />
        <path
          d="M19.3441 128.587C19.2945 132.088 20.6352 135.466 23.0724 137.98C25.5095 140.495 28.8442 141.94 32.3453 141.999H129.013C132.512 141.938 135.844 140.492 138.279 137.977C140.713 135.463 142.052 132.086 142 128.587V28.7369C142.052 25.2375 140.713 21.8605 138.279 19.3462C135.844 16.8319 132.512 15.3855 129.013 15.3242H106.517C106.462 15.7832 106.433 16.245 106.432 16.7073C106.295 18.6927 106.894 20.6591 108.114 22.2311C108.186 22.2357 108.252 22.2586 108.324 22.2653C109.147 22.0925 109.996 22.081 110.823 22.2314C114.91 22.9897 117.5 27.4971 116.609 32.2987C115.718 37.1006 111.683 40.3785 107.596 39.6201C106.369 39.376 105.237 38.788 104.332 37.9247C96.2696 36.0678 90.3395 27.4209 90.3395 16.7073C90.3395 16.2397 90.3711 15.7837 90.3934 15.3243H44.9837C44.9285 15.7832 44.8999 16.245 44.8982 16.7073C44.7614 18.6928 45.3603 20.6591 46.5808 22.2311C46.6528 22.2358 46.7191 22.2587 46.7907 22.2653C47.6137 22.0925 48.4625 22.081 49.2899 22.2314C53.3765 22.9898 55.9666 27.4971 55.0756 32.2987C54.1846 37.1006 50.1497 40.3785 46.0631 39.6201C44.8361 39.3761 43.7039 38.7881 42.7985 37.9247C34.7363 36.0678 28.8061 27.4209 28.8061 16.7074C28.8061 16.4098 28.8316 16.1219 28.8404 15.8277C25.6182 16.7849 22.8861 18.9419 21.2073 21.854C19.4354 23.611 18.2035 25.8386 17.6573 28.2735L0.211199 113.526C-1.08152 119.844 3.69457 124.985 10.8589 124.985H19.3441V128.587ZM134.785 128.587C134.808 130.142 134.213 131.643 133.131 132.76C132.049 133.878 130.568 134.521 129.013 134.548H32.3453C30.7882 134.523 29.3047 133.881 28.22 132.763C27.1354 131.646 26.5381 130.144 26.5593 128.587V124.985H107.53C114.694 124.985 121.575 119.844 122.868 113.526L134.785 55.2884L134.785 128.587ZM12.1613 118.622C8.97527 118.622 6.85128 116.336 7.42635 113.526L20.9476 47.4512H129.174L115.652 113.526C115.227 115.003 114.331 116.301 113.099 117.221C111.868 118.141 110.369 118.633 108.832 118.622H12.1613Z"
          fill="#00507C"
        />
        <path
          d="M165 77.5V23C165 18.5817 168.582 15 173 15H432C436.418 15 440 18.5817 440 23V134C440 138.418 436.418 142 432 142H173C168.582 142 165 138.418 165 134V86"
          stroke="#3099D3"
          stroke-width="4"
        />
        <path
          d="M165.5 75.5H118.749C105.751 85 105.75 80.5 118.749 88H165.5"
          stroke="#3099D3"
          stroke-width="4"
        />
        <path
          d="M213.06 75H210.71V60.6H213.06V75ZM215.915 75V64.8H217.215C217.509 64.8 217.695 64.9367 217.775 65.21L217.915 66.1C218.102 65.8867 218.295 65.6933 218.495 65.52C218.695 65.34 218.909 65.1867 219.135 65.06C219.369 64.9267 219.615 64.8233 219.875 64.75C220.142 64.6767 220.429 64.64 220.735 64.64C221.062 64.64 221.362 64.6867 221.635 64.78C221.909 64.8733 222.149 65.0067 222.355 65.18C222.569 65.3533 222.752 65.5633 222.905 65.81C223.059 66.0567 223.185 66.3333 223.285 66.64C223.439 66.2867 223.632 65.9833 223.865 65.73C224.099 65.4767 224.359 65.27 224.645 65.11C224.932 64.95 225.235 64.8333 225.555 64.76C225.882 64.68 226.212 64.64 226.545 64.64C227.092 64.64 227.579 64.7267 228.005 64.9C228.439 65.0733 228.802 65.3267 229.095 65.66C229.395 65.9867 229.622 66.39 229.775 66.87C229.929 67.35 230.005 67.8967 230.005 68.51V75H227.855V68.51C227.855 67.79 227.699 67.25 227.385 66.89C227.079 66.5233 226.622 66.34 226.015 66.34C225.742 66.34 225.485 66.3867 225.245 66.48C225.005 66.5733 224.795 66.71 224.615 66.89C224.435 67.07 224.292 67.2967 224.185 67.57C224.085 67.8367 224.035 68.15 224.035 68.51V75H221.885V68.51C221.885 67.7633 221.735 67.2167 221.435 66.87C221.135 66.5167 220.695 66.34 220.115 66.34C219.715 66.34 219.345 66.4433 219.005 66.65C218.665 66.85 218.352 67.1267 218.065 67.48V75H215.915ZM232.517 75V64.8H233.817C234.11 64.8 234.297 64.9367 234.377 65.21L234.517 66.1C234.704 65.8867 234.897 65.6933 235.097 65.52C235.297 65.34 235.51 65.1867 235.737 65.06C235.97 64.9267 236.217 64.8233 236.477 64.75C236.744 64.6767 237.03 64.64 237.337 64.64C237.664 64.64 237.964 64.6867 238.237 64.78C238.51 64.8733 238.75 65.0067 238.957 65.18C239.17 65.3533 239.354 65.5633 239.507 65.81C239.66 66.0567 239.787 66.3333 239.887 66.64C240.04 66.2867 240.234 65.9833 240.467 65.73C240.7 65.4767 240.96 65.27 241.247 65.11C241.534 64.95 241.837 64.8333 242.157 64.76C242.484 64.68 242.814 64.64 243.147 64.64C243.694 64.64 244.18 64.7267 244.607 64.9C245.04 65.0733 245.404 65.3267 245.697 65.66C245.997 65.9867 246.224 66.39 246.377 66.87C246.53 67.35 246.607 67.8967 246.607 68.51V75H244.457V68.51C244.457 67.79 244.3 67.25 243.987 66.89C243.68 66.5233 243.224 66.34 242.617 66.34C242.344 66.34 242.087 66.3867 241.847 66.48C241.607 66.5733 241.397 66.71 241.217 66.89C241.037 67.07 240.894 67.2967 240.787 67.57C240.687 67.8367 240.637 68.15 240.637 68.51V75H238.487V68.51C238.487 67.7633 238.337 67.2167 238.037 66.87C237.737 66.5167 237.297 66.34 236.717 66.34C236.317 66.34 235.947 66.4433 235.607 66.65C235.267 66.85 234.954 67.1267 234.667 67.48V75H232.517ZM257.719 64.8V75H256.419C256.132 75 255.949 74.8633 255.869 74.59L255.709 73.64C255.495 73.8667 255.269 74.0733 255.029 74.26C254.795 74.4467 254.545 74.6067 254.279 74.74C254.012 74.8733 253.725 74.9767 253.419 75.05C253.119 75.1233 252.795 75.16 252.449 75.16C251.889 75.16 251.395 75.0667 250.969 74.88C250.542 74.6933 250.182 74.43 249.889 74.09C249.602 73.75 249.385 73.3433 249.239 72.87C249.092 72.39 249.019 71.8633 249.019 71.29V64.8H251.169V71.29C251.169 71.9767 251.325 72.51 251.639 72.89C251.959 73.27 252.442 73.46 253.089 73.46C253.562 73.46 254.002 73.3533 254.409 73.14C254.822 72.92 255.209 72.62 255.569 72.24V64.8H257.719ZM262.34 66.15C262.56 65.9233 262.786 65.72 263.02 65.54C263.26 65.3533 263.513 65.1933 263.78 65.06C264.046 64.9267 264.33 64.8233 264.63 64.75C264.93 64.6767 265.256 64.64 265.61 64.64C266.17 64.64 266.66 64.7333 267.08 64.92C267.506 65.1067 267.863 65.37 268.15 65.71C268.443 66.05 268.663 66.46 268.81 66.94C268.956 67.4133 269.03 67.9367 269.03 68.51V75H266.89V68.51C266.89 67.8233 266.73 67.29 266.41 66.91C266.096 66.53 265.616 66.34 264.97 66.34C264.49 66.34 264.043 66.45 263.63 66.67C263.223 66.89 262.84 67.19 262.48 67.57V75H260.33V64.8H261.63C261.923 64.8 262.11 64.9367 262.19 65.21L262.34 66.15ZM275.95 64.64C276.704 64.64 277.384 64.7633 277.99 65.01C278.604 65.2567 279.124 65.6067 279.55 66.06C279.984 66.5133 280.317 67.0633 280.55 67.71C280.784 68.3567 280.9 69.0833 280.9 69.89C280.9 70.6967 280.784 71.4233 280.55 72.07C280.317 72.7167 279.984 73.27 279.55 73.73C279.124 74.1833 278.604 74.5333 277.99 74.78C277.384 75.0267 276.704 75.15 275.95 75.15C275.19 75.15 274.504 75.0267 273.89 74.78C273.284 74.5333 272.764 74.1833 272.33 73.73C271.897 73.27 271.564 72.7167 271.33 72.07C271.097 71.4233 270.98 70.6967 270.98 69.89C270.98 69.0833 271.097 68.3567 271.33 67.71C271.564 67.0633 271.897 66.5133 272.33 66.06C272.764 65.6067 273.284 65.2567 273.89 65.01C274.504 64.7633 275.19 64.64 275.95 64.64ZM275.95 73.47C276.87 73.47 277.554 73.1633 278 72.55C278.454 71.93 278.68 71.0467 278.68 69.9C278.68 68.7533 278.454 67.87 278 67.25C277.554 66.6233 276.87 66.31 275.95 66.31C275.017 66.31 274.324 66.6233 273.87 67.25C273.417 67.87 273.19 68.7533 273.19 69.9C273.19 71.0467 273.417 71.93 273.87 72.55C274.324 73.1633 275.017 73.47 275.95 73.47ZM286.041 75.16C285.194 75.16 284.541 74.9233 284.081 74.45C283.628 73.97 283.401 73.2967 283.401 72.43V66.49H282.281C282.161 66.49 282.058 66.4533 281.971 66.38C281.884 66.3 281.841 66.1833 281.841 66.03V65.16L283.491 64.92L283.961 61.97C283.994 61.8567 284.051 61.7667 284.131 61.7C284.211 61.6267 284.318 61.59 284.451 61.59H285.551V64.94H288.381V66.49H285.551V72.28C285.551 72.6467 285.641 72.9267 285.821 73.12C286.001 73.3133 286.241 73.41 286.541 73.41C286.708 73.41 286.851 73.39 286.971 73.35C287.091 73.3033 287.194 73.2567 287.281 73.21C287.368 73.1567 287.441 73.11 287.501 73.07C287.568 73.0233 287.631 73 287.691 73C287.811 73 287.908 73.0667 287.981 73.2L288.621 74.25C288.288 74.5433 287.894 74.77 287.441 74.93C286.988 75.0833 286.521 75.16 286.041 75.16ZM292.226 66.01C292.646 65.5967 293.106 65.2667 293.606 65.02C294.106 64.7667 294.689 64.64 295.356 64.64C295.916 64.64 296.406 64.7333 296.826 64.92C297.252 65.1067 297.609 65.37 297.896 65.71C298.189 66.05 298.409 66.46 298.556 66.94C298.702 67.4133 298.776 67.9367 298.776 68.51V75H296.636V68.51C296.636 67.8233 296.476 67.29 296.156 66.91C295.842 66.53 295.362 66.34 294.716 66.34C294.236 66.34 293.789 66.45 293.376 66.67C292.969 66.89 292.586 67.19 292.226 67.57V75H290.076V60.2H292.226V66.01ZM307.977 68.75C307.977 68.39 307.923 68.0567 307.817 67.75C307.717 67.4367 307.567 67.1667 307.367 66.94C307.167 66.7067 306.917 66.5267 306.617 66.4C306.323 66.2667 305.983 66.2 305.597 66.2C304.817 66.2 304.203 66.4233 303.757 66.87C303.31 67.3167 303.027 67.9433 302.907 68.75H307.977ZM302.847 70.07C302.873 70.65 302.963 71.1533 303.117 71.58C303.27 72 303.473 72.35 303.727 72.63C303.987 72.91 304.293 73.12 304.647 73.26C305.007 73.3933 305.407 73.46 305.847 73.46C306.267 73.46 306.63 73.4133 306.937 73.32C307.243 73.22 307.51 73.1133 307.737 73C307.963 72.88 308.157 72.7733 308.317 72.68C308.477 72.58 308.623 72.53 308.757 72.53C308.93 72.53 309.063 72.5967 309.157 72.73L309.767 73.52C309.513 73.82 309.227 74.0733 308.907 74.28C308.587 74.4867 308.247 74.6567 307.887 74.79C307.527 74.9167 307.157 75.0067 306.777 75.06C306.397 75.12 306.027 75.15 305.667 75.15C304.96 75.15 304.303 75.0333 303.697 74.8C303.097 74.56 302.573 74.21 302.127 73.75C301.687 73.29 301.34 72.72 301.087 72.04C300.84 71.36 300.717 70.5767 300.717 69.69C300.717 68.9833 300.827 68.3233 301.047 67.71C301.273 67.0967 301.593 66.5633 302.007 66.11C302.427 65.6567 302.933 65.3 303.527 65.04C304.127 64.7733 304.803 64.64 305.557 64.64C306.183 64.64 306.763 64.7433 307.297 64.95C307.83 65.15 308.29 65.4467 308.677 65.84C309.063 66.2333 309.363 66.7167 309.577 67.29C309.797 67.8567 309.907 68.5033 309.907 69.23C309.907 69.5633 309.87 69.7867 309.797 69.9C309.723 70.0133 309.59 70.07 309.397 70.07H302.847ZM313.942 66.69C314.262 66.0433 314.648 65.5367 315.102 65.17C315.555 64.7967 316.098 64.61 316.732 64.61C316.952 64.61 317.158 64.6367 317.352 64.69C317.545 64.7367 317.718 64.81 317.872 64.91L317.722 66.53C317.695 66.6433 317.652 66.7233 317.592 66.77C317.538 66.81 317.465 66.83 317.372 66.83C317.272 66.83 317.128 66.8133 316.942 66.78C316.755 66.74 316.558 66.72 316.352 66.72C316.052 66.72 315.785 66.7633 315.552 66.85C315.325 66.9367 315.118 67.0633 314.932 67.23C314.752 67.3967 314.592 67.6 314.452 67.84C314.312 68.08 314.182 68.3533 314.062 68.66V75H311.912V64.8H313.162C313.388 64.8 313.545 64.8433 313.632 64.93C313.718 65.01 313.778 65.1533 313.812 65.36L313.942 66.69ZM324.588 70.54C323.821 70.5667 323.175 70.63 322.648 70.73C322.121 70.8233 321.695 70.9467 321.368 71.1C321.041 71.2467 320.805 71.4233 320.658 71.63C320.518 71.8367 320.448 72.0633 320.448 72.31C320.448 72.55 320.485 72.7567 320.558 72.93C320.638 73.0967 320.745 73.2367 320.878 73.35C321.018 73.4567 321.178 73.5367 321.358 73.59C321.545 73.6367 321.748 73.66 321.968 73.66C322.528 73.66 323.008 73.5567 323.408 73.35C323.815 73.1367 324.208 72.83 324.588 72.43V70.54ZM318.888 66.22C320.041 65.1467 321.415 64.61 323.008 64.61C323.595 64.61 324.115 64.7067 324.568 64.9C325.028 65.0867 325.411 65.3533 325.718 65.7C326.031 66.0467 326.268 66.46 326.428 66.94C326.595 67.4133 326.678 67.94 326.678 68.52V75H325.718C325.511 75 325.355 74.97 325.248 74.91C325.141 74.8433 325.051 74.7133 324.978 74.52L324.768 73.69C324.508 73.9233 324.251 74.1333 323.998 74.32C323.745 74.5 323.481 74.6533 323.208 74.78C322.941 74.9067 322.651 75 322.338 75.06C322.031 75.1267 321.691 75.16 321.318 75.16C320.905 75.16 320.518 75.1033 320.158 74.99C319.805 74.8767 319.498 74.7067 319.238 74.48C318.978 74.2467 318.771 73.96 318.618 73.62C318.471 73.28 318.398 72.88 318.398 72.42C318.398 72.0267 318.501 71.6433 318.708 71.27C318.921 70.8967 319.268 70.5633 319.748 70.27C320.235 69.97 320.871 69.7233 321.658 69.53C322.451 69.3367 323.428 69.2267 324.588 69.2V68.52C324.588 67.7867 324.431 67.24 324.118 66.88C323.805 66.52 323.345 66.34 322.738 66.34C322.325 66.34 321.978 66.3933 321.698 66.5C321.418 66.6 321.175 66.71 320.968 66.83C320.761 66.95 320.578 67.0633 320.418 67.17C320.258 67.27 320.088 67.32 319.908 67.32C319.761 67.32 319.635 67.2833 319.528 67.21C319.428 67.13 319.345 67.0333 319.278 66.92L318.888 66.22ZM331.347 72.44C331.647 72.8267 331.973 73.1 332.327 73.26C332.687 73.4133 333.083 73.49 333.517 73.49C334.357 73.49 335.01 73.1833 335.477 72.57C335.95 71.9567 336.187 71.0433 336.187 69.83C336.187 69.2033 336.133 68.67 336.027 68.23C335.92 67.7833 335.767 67.42 335.567 67.14C335.367 66.86 335.123 66.6567 334.837 66.53C334.55 66.4033 334.227 66.34 333.867 66.34C333.32 66.34 332.847 66.46 332.447 66.7C332.053 66.9333 331.687 67.27 331.347 67.71V72.44ZM331.237 66.28C331.663 65.78 332.147 65.3767 332.687 65.07C333.233 64.7633 333.867 64.61 334.587 64.61C335.16 64.61 335.68 64.7267 336.147 64.96C336.613 65.1867 337.013 65.52 337.347 65.96C337.68 66.4 337.937 66.9467 338.117 67.6C338.303 68.2467 338.397 68.99 338.397 69.83C338.397 70.5833 338.293 71.2867 338.087 71.94C337.887 72.5867 337.597 73.15 337.217 73.63C336.837 74.1033 336.377 74.4767 335.837 74.75C335.297 75.0167 334.687 75.15 334.007 75.15C333.407 75.15 332.897 75.0533 332.477 74.86C332.063 74.6667 331.687 74.4 331.347 74.06V78.39H329.197V64.8H330.497C330.79 64.8 330.977 64.9367 331.057 65.21L331.237 66.28ZM342.726 64.8V75H340.576V64.8H342.726ZM343.086 61.72C343.086 61.9133 343.046 62.0967 342.966 62.27C342.892 62.4433 342.789 62.5967 342.656 62.73C342.522 62.8567 342.366 62.96 342.186 63.04C342.012 63.1133 341.826 63.15 341.626 63.15C341.432 63.15 341.249 63.1133 341.076 63.04C340.909 62.96 340.762 62.8567 340.636 62.73C340.509 62.5967 340.406 62.4433 340.326 62.27C340.252 62.0967 340.216 61.9133 340.216 61.72C340.216 61.52 340.252 61.3333 340.326 61.16C340.406 60.9867 340.509 60.8367 340.636 60.71C340.762 60.5767 340.909 60.4733 341.076 60.4C341.249 60.32 341.432 60.28 341.626 60.28C341.826 60.28 342.012 60.32 342.186 60.4C342.366 60.4733 342.522 60.5767 342.656 60.71C342.789 60.8367 342.892 60.9867 342.966 61.16C343.046 61.3333 343.086 61.52 343.086 61.72ZM352.117 68.75C352.117 68.39 352.064 68.0567 351.957 67.75C351.857 67.4367 351.707 67.1667 351.507 66.94C351.307 66.7067 351.057 66.5267 350.757 66.4C350.464 66.2667 350.124 66.2 349.737 66.2C348.957 66.2 348.344 66.4233 347.897 66.87C347.451 67.3167 347.167 67.9433 347.047 68.75H352.117ZM346.987 70.07C347.014 70.65 347.104 71.1533 347.257 71.58C347.411 72 347.614 72.35 347.867 72.63C348.127 72.91 348.434 73.12 348.787 73.26C349.147 73.3933 349.547 73.46 349.987 73.46C350.407 73.46 350.771 73.4133 351.077 73.32C351.384 73.22 351.651 73.1133 351.877 73C352.104 72.88 352.297 72.7733 352.457 72.68C352.617 72.58 352.764 72.53 352.897 72.53C353.071 72.53 353.204 72.5967 353.297 72.73L353.907 73.52C353.654 73.82 353.367 74.0733 353.047 74.28C352.727 74.4867 352.387 74.6567 352.027 74.79C351.667 74.9167 351.297 75.0067 350.917 75.06C350.537 75.12 350.167 75.15 349.807 75.15C349.101 75.15 348.444 75.0333 347.837 74.8C347.237 74.56 346.714 74.21 346.267 73.75C345.827 73.29 345.481 72.72 345.227 72.04C344.981 71.36 344.857 70.5767 344.857 69.69C344.857 68.9833 344.967 68.3233 345.187 67.71C345.414 67.0967 345.734 66.5633 346.147 66.11C346.567 65.6567 347.074 65.3 347.667 65.04C348.267 64.7733 348.944 64.64 349.697 64.64C350.324 64.64 350.904 64.7433 351.437 64.95C351.971 65.15 352.431 65.4467 352.817 65.84C353.204 66.2333 353.504 66.7167 353.717 67.29C353.937 67.8567 354.047 68.5033 354.047 69.23C354.047 69.5633 354.011 69.7867 353.937 69.9C353.864 70.0133 353.731 70.07 353.537 70.07H346.987ZM362.142 66.65C362.089 66.7433 362.029 66.81 361.962 66.85C361.896 66.89 361.812 66.91 361.712 66.91C361.599 66.91 361.476 66.8767 361.342 66.81C361.209 66.7367 361.052 66.6567 360.872 66.57C360.692 66.4833 360.479 66.4067 360.232 66.34C359.992 66.2667 359.709 66.23 359.382 66.23C359.116 66.23 358.872 66.2633 358.652 66.33C358.439 66.39 358.256 66.48 358.102 66.6C357.956 66.7133 357.842 66.85 357.762 67.01C357.682 67.1633 357.642 67.33 357.642 67.51C357.642 67.75 357.716 67.95 357.862 68.11C358.009 68.27 358.202 68.41 358.442 68.53C358.682 68.6433 358.956 68.7467 359.262 68.84C359.569 68.9333 359.882 69.0333 360.202 69.14C360.522 69.2467 360.836 69.37 361.142 69.51C361.449 69.65 361.722 69.8233 361.962 70.03C362.202 70.23 362.396 70.4767 362.542 70.77C362.689 71.0567 362.762 71.4067 362.762 71.82C362.762 72.3 362.676 72.7433 362.502 73.15C362.329 73.5567 362.076 73.91 361.742 74.21C361.409 74.51 360.992 74.7433 360.492 74.91C359.999 75.0767 359.432 75.16 358.792 75.16C358.439 75.16 358.096 75.1267 357.762 75.06C357.436 75 357.122 74.9167 356.822 74.81C356.529 74.6967 356.252 74.5633 355.992 74.41C355.739 74.2567 355.512 74.09 355.312 73.91L355.812 73.09C355.872 72.99 355.946 72.9133 356.032 72.86C356.126 72.8 356.239 72.77 356.372 72.77C356.512 72.77 356.649 72.8167 356.782 72.91C356.922 72.9967 357.082 73.0933 357.262 73.2C357.449 73.3067 357.672 73.4067 357.932 73.5C358.192 73.5867 358.516 73.63 358.902 73.63C359.222 73.63 359.499 73.5933 359.732 73.52C359.966 73.44 360.159 73.3333 360.312 73.2C360.466 73.0667 360.579 72.9167 360.652 72.75C360.726 72.5767 360.762 72.3933 360.762 72.2C360.762 71.94 360.689 71.7267 360.542 71.56C360.396 71.3933 360.199 71.25 359.952 71.13C359.712 71.01 359.436 70.9033 359.122 70.81C358.816 70.7167 358.502 70.6167 358.182 70.51C357.862 70.4033 357.546 70.28 357.232 70.14C356.926 70 356.649 69.8233 356.402 69.61C356.162 69.39 355.969 69.1267 355.822 68.82C355.676 68.5067 355.602 68.1267 355.602 67.68C355.602 67.2733 355.682 66.8867 355.842 66.52C356.009 66.1533 356.249 65.83 356.562 65.55C356.882 65.27 357.272 65.05 357.732 64.89C358.199 64.7233 358.736 64.64 359.342 64.64C360.029 64.64 360.652 64.75 361.212 64.97C361.772 65.19 362.242 65.49 362.622 65.87L362.142 66.65ZM370.453 75V66.51L369.453 66.37C369.286 66.3367 369.15 66.2767 369.043 66.19C368.943 66.1033 368.893 65.98 368.893 65.82V64.94H370.453V64.08C370.453 63.5 370.536 62.98 370.703 62.52C370.876 62.06 371.12 61.67 371.433 61.35C371.753 61.03 372.14 60.7867 372.593 60.62C373.046 60.4467 373.556 60.36 374.123 60.36C374.356 60.36 374.576 60.3767 374.783 60.41C374.996 60.4433 375.203 60.4933 375.403 60.56L375.363 61.64C375.35 61.82 375.26 61.9267 375.093 61.96C374.933 61.9933 374.73 62.01 374.483 62.01C374.183 62.01 373.913 62.0467 373.673 62.12C373.433 62.1867 373.226 62.3033 373.053 62.47C372.886 62.6367 372.756 62.8567 372.663 63.13C372.576 63.4033 372.533 63.7433 372.533 64.15V64.94H375.323V66.49H372.603V75H370.453ZM380.97 64.64C381.723 64.64 382.403 64.7633 383.01 65.01C383.623 65.2567 384.143 65.6067 384.57 66.06C385.003 66.5133 385.337 67.0633 385.57 67.71C385.803 68.3567 385.92 69.0833 385.92 69.89C385.92 70.6967 385.803 71.4233 385.57 72.07C385.337 72.7167 385.003 73.27 384.57 73.73C384.143 74.1833 383.623 74.5333 383.01 74.78C382.403 75.0267 381.723 75.15 380.97 75.15C380.21 75.15 379.523 75.0267 378.91 74.78C378.303 74.5333 377.783 74.1833 377.35 73.73C376.917 73.27 376.583 72.7167 376.35 72.07C376.117 71.4233 376 70.6967 376 69.89C376 69.0833 376.117 68.3567 376.35 67.71C376.583 67.0633 376.917 66.5133 377.35 66.06C377.783 65.6067 378.303 65.2567 378.91 65.01C379.523 64.7633 380.21 64.64 380.97 64.64ZM380.97 73.47C381.89 73.47 382.573 73.1633 383.02 72.55C383.473 71.93 383.7 71.0467 383.7 69.9C383.7 68.7533 383.473 67.87 383.02 67.25C382.573 66.6233 381.89 66.31 380.97 66.31C380.037 66.31 379.343 66.6233 378.89 67.25C378.437 67.87 378.21 68.7533 378.21 69.9C378.21 71.0467 378.437 71.93 378.89 72.55C379.343 73.1633 380.037 73.47 380.97 73.47ZM390.016 66.69C390.336 66.0433 390.722 65.5367 391.176 65.17C391.629 64.7967 392.172 64.61 392.806 64.61C393.026 64.61 393.232 64.6367 393.426 64.69C393.619 64.7367 393.792 64.81 393.946 64.91L393.796 66.53C393.769 66.6433 393.726 66.7233 393.666 66.77C393.612 66.81 393.539 66.83 393.446 66.83C393.346 66.83 393.202 66.8133 393.016 66.78C392.829 66.74 392.632 66.72 392.426 66.72C392.126 66.72 391.859 66.7633 391.626 66.85C391.399 66.9367 391.192 67.0633 391.006 67.23C390.826 67.3967 390.666 67.6 390.526 67.84C390.386 68.08 390.256 68.3533 390.136 68.66V75H387.986V64.8H389.236C389.462 64.8 389.619 64.8433 389.706 64.93C389.792 65.01 389.852 65.1533 389.886 65.36L390.016 66.69ZM220.71 95.79C220.837 95.79 220.947 95.84 221.04 95.94L221.97 96.95C221.383 97.6567 220.663 98.2033 219.81 98.59C218.957 98.97 217.937 99.16 216.75 99.16C215.697 99.16 214.743 98.98 213.89 98.62C213.043 98.2533 212.32 97.7467 211.72 97.1C211.12 96.4467 210.657 95.67 210.33 94.77C210.01 93.87 209.85 92.88 209.85 91.8C209.85 90.72 210.02 89.73 210.36 88.83C210.707 87.9233 211.19 87.1467 211.81 86.5C212.437 85.8467 213.183 85.34 214.05 84.98C214.923 84.62 215.883 84.44 216.93 84.44C217.97 84.44 218.887 84.61 219.68 84.95C220.48 85.2833 221.173 85.73 221.76 86.29L220.99 87.38C220.937 87.4533 220.873 87.5167 220.8 87.57C220.727 87.6233 220.627 87.65 220.5 87.65C220.367 87.65 220.213 87.59 220.04 87.47C219.873 87.3433 219.657 87.2067 219.39 87.06C219.13 86.9067 218.8 86.77 218.4 86.65C218.007 86.5233 217.513 86.46 216.92 86.46C216.233 86.46 215.603 86.58 215.03 86.82C214.457 87.06 213.963 87.41 213.55 87.87C213.137 88.33 212.813 88.89 212.58 89.55C212.353 90.21 212.24 90.96 212.24 91.8C212.24 92.6467 212.36 93.4033 212.6 94.07C212.84 94.73 213.17 95.29 213.59 95.75C214.01 96.2033 214.503 96.55 215.07 96.79C215.637 97.03 216.247 97.15 216.9 97.15C217.3 97.15 217.657 97.13 217.97 97.09C218.29 97.0433 218.583 96.9733 218.85 96.88C219.117 96.78 219.367 96.6567 219.6 96.51C219.84 96.3633 220.077 96.1833 220.31 95.97C220.443 95.85 220.577 95.79 220.71 95.79ZM229.041 94.54C228.275 94.5667 227.628 94.63 227.101 94.73C226.575 94.8233 226.148 94.9467 225.821 95.1C225.495 95.2467 225.258 95.4233 225.111 95.63C224.971 95.8367 224.901 96.0633 224.901 96.31C224.901 96.55 224.938 96.7567 225.011 96.93C225.091 97.0967 225.198 97.2367 225.331 97.35C225.471 97.4567 225.631 97.5367 225.811 97.59C225.998 97.6367 226.201 97.66 226.421 97.66C226.981 97.66 227.461 97.5567 227.861 97.35C228.268 97.1367 228.661 96.83 229.041 96.43V94.54ZM223.341 90.22C224.495 89.1467 225.868 88.61 227.461 88.61C228.048 88.61 228.568 88.7067 229.021 88.9C229.481 89.0867 229.865 89.3533 230.171 89.7C230.485 90.0467 230.721 90.46 230.881 90.94C231.048 91.4133 231.131 91.94 231.131 92.52V99H230.171C229.965 99 229.808 98.97 229.701 98.91C229.595 98.8433 229.505 98.7133 229.431 98.52L229.221 97.69C228.961 97.9233 228.705 98.1333 228.451 98.32C228.198 98.5 227.935 98.6533 227.661 98.78C227.395 98.9067 227.105 99 226.791 99.06C226.485 99.1267 226.145 99.16 225.771 99.16C225.358 99.16 224.971 99.1033 224.611 98.99C224.258 98.8767 223.951 98.7067 223.691 98.48C223.431 98.2467 223.225 97.96 223.071 97.62C222.925 97.28 222.851 96.88 222.851 96.42C222.851 96.0267 222.955 95.6433 223.161 95.27C223.375 94.8967 223.721 94.5633 224.201 94.27C224.688 93.97 225.325 93.7233 226.111 93.53C226.905 93.3367 227.881 93.2267 229.041 93.2V92.52C229.041 91.7867 228.885 91.24 228.571 90.88C228.258 90.52 227.798 90.34 227.191 90.34C226.778 90.34 226.431 90.3933 226.151 90.5C225.871 90.6 225.628 90.71 225.421 90.83C225.215 90.95 225.031 91.0633 224.871 91.17C224.711 91.27 224.541 91.32 224.361 91.32C224.215 91.32 224.088 91.2833 223.981 91.21C223.881 91.13 223.798 91.0333 223.731 90.92L223.341 90.22ZM235.66 90.15C235.88 89.9233 236.107 89.72 236.34 89.54C236.58 89.3533 236.833 89.1933 237.1 89.06C237.367 88.9267 237.65 88.8233 237.95 88.75C238.25 88.6767 238.577 88.64 238.93 88.64C239.49 88.64 239.98 88.7333 240.4 88.92C240.827 89.1067 241.183 89.37 241.47 89.71C241.763 90.05 241.983 90.46 242.13 90.94C242.277 91.4133 242.35 91.9367 242.35 92.51V99H240.21V92.51C240.21 91.8233 240.05 91.29 239.73 90.91C239.417 90.53 238.937 90.34 238.29 90.34C237.81 90.34 237.363 90.45 236.95 90.67C236.543 90.89 236.16 91.19 235.8 91.57V99H233.65V88.8H234.95C235.243 88.8 235.43 88.9367 235.51 89.21L235.66 90.15ZM252.071 90.8C252.004 90.8867 251.941 90.9533 251.881 91C251.821 91.0467 251.734 91.07 251.621 91.07C251.507 91.07 251.387 91.03 251.261 90.95C251.141 90.87 250.994 90.7833 250.821 90.69C250.654 90.59 250.451 90.5 250.211 90.42C249.971 90.34 249.671 90.3 249.311 90.3C248.844 90.3 248.434 90.3833 248.081 90.55C247.734 90.7167 247.441 90.9567 247.201 91.27C246.967 91.5767 246.791 91.9533 246.671 92.4C246.557 92.84 246.501 93.3367 246.501 93.89C246.501 94.4633 246.564 94.9733 246.691 95.42C246.817 95.8667 246.997 96.2433 247.231 96.55C247.471 96.8567 247.757 97.09 248.091 97.25C248.431 97.41 248.811 97.49 249.231 97.49C249.644 97.49 249.981 97.44 250.241 97.34C250.501 97.24 250.717 97.13 250.891 97.01C251.064 96.89 251.211 96.78 251.331 96.68C251.457 96.58 251.591 96.53 251.731 96.53C251.904 96.53 252.037 96.5967 252.131 96.73L252.741 97.52C252.494 97.82 252.221 98.0733 251.921 98.28C251.621 98.4867 251.304 98.6567 250.971 98.79C250.637 98.9167 250.291 99.0067 249.931 99.06C249.571 99.12 249.207 99.15 248.841 99.15C248.207 99.15 247.614 99.0333 247.061 98.8C246.514 98.56 246.034 98.2167 245.621 97.77C245.214 97.3167 244.891 96.7667 244.651 96.12C244.417 95.4667 244.301 94.7233 244.301 93.89C244.301 93.1367 244.407 92.44 244.621 91.8C244.834 91.1533 245.144 90.5967 245.551 90.13C245.964 89.6633 246.474 89.3 247.081 89.04C247.687 88.7733 248.387 88.64 249.181 88.64C249.921 88.64 250.571 88.76 251.131 89C251.697 89.24 252.201 89.58 252.641 90.02L252.071 90.8ZM260.984 92.75C260.984 92.39 260.931 92.0567 260.824 91.75C260.724 91.4367 260.574 91.1667 260.374 90.94C260.174 90.7067 259.924 90.5267 259.624 90.4C259.331 90.2667 258.991 90.2 258.604 90.2C257.824 90.2 257.211 90.4233 256.764 90.87C256.318 91.3167 256.034 91.9433 255.914 92.75H260.984ZM255.854 94.07C255.881 94.65 255.971 95.1533 256.124 95.58C256.278 96 256.481 96.35 256.734 96.63C256.994 96.91 257.301 97.12 257.654 97.26C258.014 97.3933 258.414 97.46 258.854 97.46C259.274 97.46 259.638 97.4133 259.944 97.32C260.251 97.22 260.518 97.1133 260.744 97C260.971 96.88 261.164 96.7733 261.324 96.68C261.484 96.58 261.631 96.53 261.764 96.53C261.938 96.53 262.071 96.5967 262.164 96.73L262.774 97.52C262.521 97.82 262.234 98.0733 261.914 98.28C261.594 98.4867 261.254 98.6567 260.894 98.79C260.534 98.9167 260.164 99.0067 259.784 99.06C259.404 99.12 259.034 99.15 258.674 99.15C257.968 99.15 257.311 99.0333 256.704 98.8C256.104 98.56 255.581 98.21 255.134 97.75C254.694 97.29 254.348 96.72 254.094 96.04C253.848 95.36 253.724 94.5767 253.724 93.69C253.724 92.9833 253.834 92.3233 254.054 91.71C254.281 91.0967 254.601 90.5633 255.014 90.11C255.434 89.6567 255.941 89.3 256.534 89.04C257.134 88.7733 257.811 88.64 258.564 88.64C259.191 88.64 259.771 88.7433 260.304 88.95C260.838 89.15 261.298 89.4467 261.684 89.84C262.071 90.2333 262.371 90.7167 262.584 91.29C262.804 91.8567 262.914 92.5033 262.914 93.23C262.914 93.5633 262.878 93.7867 262.804 93.9C262.731 94.0133 262.598 94.07 262.404 94.07H255.854ZM266.949 90.69C267.269 90.0433 267.656 89.5367 268.109 89.17C268.563 88.7967 269.106 88.61 269.739 88.61C269.959 88.61 270.166 88.6367 270.359 88.69C270.553 88.7367 270.726 88.81 270.879 88.91L270.729 90.53C270.703 90.6433 270.659 90.7233 270.599 90.77C270.546 90.81 270.473 90.83 270.379 90.83C270.279 90.83 270.136 90.8133 269.949 90.78C269.763 90.74 269.566 90.72 269.359 90.72C269.059 90.72 268.793 90.7633 268.559 90.85C268.333 90.9367 268.126 91.0633 267.939 91.23C267.759 91.3967 267.599 91.6 267.459 91.84C267.319 92.08 267.189 92.3533 267.069 92.66V99H264.919V88.8H266.169C266.396 88.8 266.553 88.8433 266.639 88.93C266.726 89.01 266.786 89.1533 266.819 89.36L266.949 90.69Z"
          fill="#00507C"
        />
      </g>
      <defs>
        <clipPath id="clip0">
          <rect width="476" height="160" fill="white" />
        </clipPath>
      </defs>
    </svg>