<svg viewBox="0 0 577 256" fill="none" xmlns="http://www.w3.org/2000/svg">
      <path d="M173 253V2H400V253H173Z" stroke="#00507C" />
      <path
        d="M453 44V10C453 6.13401 456.134 3 460 3H568C571.866 3 575 6.13401 575 10V44C575 47.866 571.866 51 568 51H460C456.134 51 453 47.866 453 44Z"
        stroke="#3099D3"
        stroke-width="4"
      />
      <path
        d="M215 106V89C215 85.134 218.134 82 222 82H351C354.866 82 358 85.134 358 89V106C358 109.866 354.866 113 351 113H222C218.134 113 215 109.866 215 106Z"
        stroke="#3099D3"
        stroke-width="2"
      />
      <path
        d="M215 166V149C215 145.134 218.134 142 222 142H351C354.866 142 358 145.134 358 149V166C358 169.866 354.866 173 351 173H222C218.134 173 215 169.866 215 166Z"
        stroke="#3099D3"
        stroke-width="2"
      />
      <path
        d="M2 43V9C2 5.13401 5.13401 2 9 2H117C120.866 2 124 5.13401 124 9V43C124 46.866 120.866 50 117 50H9C5.13401 50 2 46.866 2 43Z"
        stroke="#00507C"
        stroke-width="4"
      />
      <path
        d="M453 145V111C453 107.134 456.134 104 460 104H568C571.866 104 575 107.134 575 111V145C575 148.866 571.866 152 568 152H460C456.134 152 453 148.866 453 145Z"
        stroke="#00507C"
        stroke-width="4"
      />
      <path
        d="M2 144V110C2 106.134 5.13401 103 9 103H117C120.866 103 124 106.134 124 110V144C124 147.866 120.866 151 117 151H9C5.13401 151 2 147.866 2 144Z"
        stroke="#00507C"
        stroke-width="4"
      />
      <path
        d="M453 247V213C453 209.134 456.134 206 460 206H568C571.866 206 575 209.134 575 213V247C575 250.866 571.866 254 568 254H460C456.134 254 453 250.866 453 247Z"
        stroke="#00507C"
        stroke-width="4"
      />
      <path
        d="M2 246V212C2 208.134 5.13401 205 9 205H117C120.866 205 124 208.134 124 212V246C124 249.866 120.866 253 117 253H9C5.13401 253 2 249.866 2 246Z"
        stroke="#3099D3"
        stroke-width="4"
      />
      <path d="M138 231H180.253V158H201" stroke="#00507C" />
      <path d="M374 98H412.57V27H439" stroke="#00507C" />
      <circle
        cx="126"
        cy="231"
        r="8"
        fill="white"
        stroke="#00507C"
        stroke-width="2"
      />
      <circle
        cx="212"
        cy="157"
        r="8"
        fill="white"
        stroke="#00507C"
        stroke-width="2"
      />
      <circle
        cx="362"
        cy="98"
        r="8"
        fill="white"
        stroke="#00507C"
        stroke-width="2"
      />
      <circle
        cx="451"
        cy="27"
        r="8"
        fill="white"
        stroke="#00507C"
        stroke-width="2"
      />
    </svg>