<svg viewBox="0 0 383 214" fill="none" xmlns="http://www.w3.org/2000/svg">
      <path
        d="M9.82422 203.189H4.19922V209H1.26953V194.781H10.5273V197.154H4.19922V200.826H9.82422V203.189ZM17.7246 201.08C17.3405 201.028 17.002 201.002 16.709 201.002C15.6413 201.002 14.9414 201.363 14.6094 202.086V209H11.7871V198.434H14.4531L14.5312 199.693C15.0977 198.723 15.8822 198.238 16.8848 198.238C17.1973 198.238 17.4902 198.281 17.7637 198.365L17.7246 201.08ZM18.3008 203.619C18.3008 202.571 18.5026 201.637 18.9062 200.816C19.3099 199.996 19.8893 199.361 20.6445 198.912C21.4062 198.463 22.2884 198.238 23.291 198.238C24.7168 198.238 25.8789 198.674 26.7773 199.547C27.6823 200.419 28.1868 201.604 28.291 203.102L28.3105 203.824C28.3105 205.445 27.8581 206.747 26.9531 207.73C26.0482 208.707 24.834 209.195 23.3105 209.195C21.7871 209.195 20.5697 208.707 19.6582 207.73C18.7533 206.754 18.3008 205.426 18.3008 203.746V203.619ZM21.123 203.824C21.123 204.827 21.3118 205.595 21.6895 206.129C22.0671 206.656 22.6074 206.92 23.3105 206.92C23.9941 206.92 24.528 206.66 24.9121 206.139C25.2962 205.611 25.4883 204.771 25.4883 203.619C25.4883 202.636 25.2962 201.874 24.9121 201.334C24.528 200.794 23.9876 200.523 23.291 200.523C22.6009 200.523 22.0671 200.794 21.6895 201.334C21.3118 201.868 21.123 202.698 21.123 203.824ZM32.6953 198.434L32.7832 199.615C33.5319 198.697 34.5443 198.238 35.8203 198.238C37.181 198.238 38.1152 198.775 38.623 199.85C39.3652 198.775 40.4232 198.238 41.7969 198.238C42.9427 198.238 43.7956 198.574 44.3555 199.244C44.9154 199.908 45.1953 200.911 45.1953 202.252V209H42.3633V202.262C42.3633 201.663 42.2461 201.227 42.0117 200.953C41.7773 200.673 41.3639 200.533 40.7715 200.533C39.9251 200.533 39.3392 200.937 39.0137 201.744L39.0234 209H36.2012V202.271C36.2012 201.66 36.0807 201.217 35.8398 200.943C35.599 200.67 35.1888 200.533 34.6094 200.533C33.8086 200.533 33.2292 200.865 32.8711 201.529V209H30.0488V198.434H32.6953ZM55.7324 195.836V198.434H57.5391V200.504H55.7324V205.777C55.7324 206.168 55.8073 206.448 55.957 206.617C56.1068 206.786 56.3932 206.871 56.8164 206.871C57.1289 206.871 57.4056 206.848 57.6465 206.803V208.941C57.0931 209.111 56.5234 209.195 55.9375 209.195C53.9583 209.195 52.9492 208.196 52.9102 206.197V200.504H51.3672V198.434H52.9102V195.836H55.7324ZM61.8652 199.586C62.6139 198.688 63.5547 198.238 64.6875 198.238C66.9792 198.238 68.1413 199.57 68.1738 202.232V209H65.3516V202.311C65.3516 201.705 65.2214 201.259 64.9609 200.973C64.7005 200.68 64.2676 200.533 63.6621 200.533C62.8353 200.533 62.2363 200.852 61.8652 201.49V209H59.043V194H61.8652V199.586ZM75.166 209.195C73.6165 209.195 72.3535 208.72 71.377 207.77C70.4069 206.819 69.9219 205.553 69.9219 203.971V203.697C69.9219 202.636 70.127 201.689 70.5371 200.855C70.9473 200.016 71.5267 199.371 72.2754 198.922C73.0306 198.466 73.89 198.238 74.8535 198.238C76.2988 198.238 77.4349 198.694 78.2617 199.605C79.0951 200.517 79.5117 201.809 79.5117 203.482V204.635H72.7832C72.8743 205.325 73.1478 205.878 73.6035 206.295C74.0658 206.712 74.6484 206.92 75.3516 206.92C76.4388 206.92 77.2884 206.526 77.9004 205.738L79.2871 207.291C78.8639 207.89 78.291 208.359 77.5684 208.697C76.8457 209.029 76.0449 209.195 75.166 209.195ZM74.8438 200.523C74.2839 200.523 73.8281 200.712 73.4766 201.09C73.1315 201.467 72.9102 202.008 72.8125 202.711H76.7383V202.486C76.7253 201.861 76.556 201.38 76.2305 201.041C75.9049 200.696 75.4427 200.523 74.8438 200.523ZM89.082 209H86.25V194H89.082V209ZM97.5391 209C97.4089 208.746 97.3145 208.43 97.2559 208.053C96.5723 208.814 95.6836 209.195 94.5898 209.195C93.5547 209.195 92.6953 208.896 92.0117 208.297C91.3346 207.698 90.9961 206.943 90.9961 206.031C90.9961 204.911 91.4095 204.052 92.2363 203.453C93.0697 202.854 94.2708 202.551 95.8398 202.545H97.1387V201.939C97.1387 201.451 97.0117 201.061 96.7578 200.768C96.5104 200.475 96.1165 200.328 95.5762 200.328C95.1009 200.328 94.7266 200.442 94.4531 200.67C94.1862 200.898 94.0527 201.21 94.0527 201.607H91.2305C91.2305 200.995 91.4193 200.429 91.7969 199.908C92.1745 199.387 92.7083 198.98 93.3984 198.688C94.0885 198.388 94.8633 198.238 95.7227 198.238C97.0247 198.238 98.0566 198.567 98.8184 199.225C99.5866 199.876 99.9707 200.794 99.9707 201.979V206.559C99.9772 207.561 100.117 208.32 100.391 208.834V209H97.5391ZM95.2051 207.037C95.6217 207.037 96.0059 206.946 96.3574 206.764C96.709 206.575 96.9694 206.324 97.1387 206.012V204.195H96.084C94.6712 204.195 93.9193 204.684 93.8281 205.66L93.8184 205.826C93.8184 206.178 93.9421 206.467 94.1895 206.695C94.4368 206.923 94.7754 207.037 95.2051 207.037ZM111.66 203.814C111.66 205.507 111.299 206.829 110.576 207.779C109.854 208.723 108.844 209.195 107.549 209.195C106.403 209.195 105.488 208.756 104.805 207.877L104.678 209H102.139V194H104.961V199.381C105.612 198.619 106.468 198.238 107.529 198.238C108.818 198.238 109.827 198.714 110.557 199.664C111.292 200.608 111.66 201.939 111.66 203.658V203.814ZM108.838 203.609C108.838 202.542 108.669 201.764 108.33 201.275C107.992 200.781 107.487 200.533 106.816 200.533C105.918 200.533 105.299 200.901 104.961 201.637V205.807C105.306 206.549 105.931 206.92 106.836 206.92C107.747 206.92 108.346 206.471 108.633 205.572C108.77 205.143 108.838 204.488 108.838 203.609Z"
        fill="#00507C"
      />
      <path
        d="M267.072 99.5996H251.152L255.701 120.825H262.902L267.072 99.5996Z"
        stroke="#00507C"
        stroke-width="3"
      />
      <circle
        cx="259.455"
        cy="132.282"
        r="5.32258"
        stroke="#00507C"
        stroke-width="3"
      />
      <path
        d="M345.725 157.31H300.345L267.931 180H242L254.966 157.31H248.483C242.001 157.31 242.001 157.31 242.001 150.828C242.001 144.345 242.001 98.9655 242.001 92.4828C242 86 242 86 248.483 86H345.724C352.207 86 352.207 86 352.207 92.4828L352.207 150.828C352.207 157.31 352.207 157.31 345.725 157.31Z"
        stroke="#00507C"
        stroke-width="4"
      />
      <path d="M273.918 99.5996H341.386" stroke="#00507C" stroke-width="3" />
      <path d="M273.918 110.244H341.386" stroke="#00507C" stroke-width="3" />
      <path d="M273.918 120.875H341.386" stroke="#00507C" stroke-width="3" />
      <path d="M273.918 131.518H341.386" stroke="#00507C" stroke-width="3" />
      <path
        d="M187.236 9.17188H175.199L178.638 25.2207H184.083L187.236 9.17188Z"
        stroke="#00507C"
        stroke-width="2"
      />
      <circle cx="181.5" cy="23.5" r="22" stroke="#00507C" stroke-width="3" />
      <circle
        cx="181.502"
        cy="33.8148"
        r="4.15854"
        stroke="#00507C"
        stroke-width="2"
      />
      <path
        d="M231.133 42H217L221.038 60.8436H227.431L231.133 42Z"
        stroke="#00507C"
        stroke-width="3"
      />
      <circle
        cx="224.408"
        cy="70.9436"
        r="4.55689"
        stroke="#00507C"
        stroke-width="3"
      />
      <path
        d="M97.5217 30C93.5416 30 90.2632 33.2784 90.2632 37.2585C90.2632 41.2386 93.5416 44.517 97.5217 44.517C101.502 44.517 104.78 41.2386 104.78 37.2585C104.78 33.2784 101.502 30 97.5217 30ZM97.5217 34.839C98.8866 34.839 99.9412 35.8937 99.9412 37.2585C99.9412 38.6234 98.8866 39.678 97.5217 39.678C96.1568 39.678 95.1022 38.6234 95.1022 37.2585C95.1022 35.8937 96.1568 34.839 97.5217 34.839ZM76.9559 45.7261C73.644 45.7261 70.9072 48.4628 70.9072 51.7749C70.9072 55.0869 73.644 57.8236 76.9559 57.8236C80.2679 57.8236 83.0047 55.0869 83.0047 51.7749C83.0047 48.4628 80.2679 45.7261 76.9559 45.7261ZM76.9559 50.5651C77.6527 50.5651 78.1657 51.078 78.1657 51.7749C78.1657 52.4717 77.6527 52.9846 76.9559 52.9846C76.2591 52.9846 75.7462 52.4717 75.7462 51.7749C75.7462 51.078 76.2591 50.5651 76.9559 50.5651ZM38.3181 68.7114C34.3388 68.7114 31.0596 71.9905 31.0596 75.9699C31.0596 79.9493 34.3388 83.2284 38.3181 83.2284V109.2L27.7659 127.668H27.761C27.5992 127.867 27.47 128.09 27.3783 128.329L9.60055 159.443C9.59247 159.459 9.58457 159.475 9.57684 159.491C4.83872 168.239 11.3606 180 21.3816 180H89.1278C99.1487 180 105.671 168.239 100.932 159.491C100.925 159.475 100.917 159.459 100.909 159.442L72.1912 109.19V100.561C72.2344 100.3 72.2344 100.034 72.1912 99.7726V90.8834C72.2344 90.6222 72.2344 90.3558 72.1912 90.0946V83.2188C76.1706 83.2188 79.4497 79.9397 79.4497 75.9603C79.4497 71.9809 76.1706 68.7018 72.1912 68.7018H38.3181V68.7114ZM38.3181 73.5504H72.1912C73.5735 73.5504 74.6107 74.5876 74.6107 75.9699C74.6107 77.3522 73.5735 78.3894 72.1912 78.3894H70.1781C69.9168 78.3462 69.6502 78.3462 69.3889 78.3894H41.111C40.9751 78.3664 40.8376 78.3552 40.6998 78.3556C40.5826 78.3584 40.4657 78.3697 40.3501 78.3894H38.3181C36.9359 78.3894 35.8986 77.3522 35.8986 75.9699C35.8986 74.5876 36.9359 73.5504 38.3181 73.5504ZM43.1571 83.2284H67.3522V88.0674H55.2547C54.9341 88.0629 54.6157 88.1221 54.3182 88.2417C54.0207 88.3612 53.7499 88.5387 53.5216 88.7639C53.2932 88.989 53.1119 89.2572 52.9882 89.553C52.8644 89.8488 52.8007 90.1663 52.8007 90.4869C52.8007 90.8076 52.8644 91.125 52.9882 91.4208C53.1119 91.7166 53.2932 91.9849 53.5216 92.21C53.7499 92.4351 54.0207 92.6126 54.3182 92.7322C54.6157 92.8517 54.9341 92.911 55.2547 92.9064H67.3522V97.7454H60.0937C59.7731 97.7409 59.4548 97.8001 59.1572 97.9197C58.8597 98.0392 58.5889 98.2168 58.3606 98.4419C58.1323 98.667 57.9509 98.9352 57.8272 99.231C57.7034 99.5268 57.6397 99.8443 57.6397 100.165C57.6397 100.486 57.7034 100.803 57.8272 101.099C57.9509 101.395 58.1323 101.663 58.3606 101.888C58.5889 102.113 58.8597 102.291 59.1572 102.41C59.4548 102.53 59.7731 102.589 60.0937 102.584H67.3522V107.423H55.2547C54.9341 107.419 54.6157 107.478 54.3182 107.598C54.0207 107.717 53.7499 107.895 53.5216 108.12C53.2932 108.345 53.1119 108.613 52.9882 108.909C52.8644 109.205 52.8007 109.522 52.8007 109.843C52.8007 110.164 52.8644 110.481 52.9882 110.777C53.1119 111.073 53.2932 111.341 53.5216 111.566C53.7499 111.791 54.0207 111.969 54.3182 112.088C54.6157 112.208 54.9341 112.267 55.2547 112.262H68.3635L71.1279 117.101H60.0937C59.7731 117.097 59.4548 117.156 59.1572 117.276C58.8597 117.395 58.5889 117.573 58.3606 117.798C58.1323 118.023 57.9509 118.291 57.8272 118.587C57.7034 118.883 57.6397 119.2 57.6397 119.521C57.6397 119.842 57.7034 120.159 57.8272 120.455C57.9509 120.751 58.1323 121.019 58.3606 121.244C58.5889 121.469 58.8597 121.647 59.1572 121.766C59.4548 121.886 59.7731 121.945 60.0937 121.94H73.8971L76.6616 126.779H33.8477L42.8405 111.043C43.0486 110.677 43.1578 110.264 43.1571 109.843V83.2284ZM31.0832 131.618H79.4261L96.6793 161.806C99.5927 167.201 95.1885 175.16 89.1278 175.16H21.3816C15.3208 175.16 10.9167 167.201 13.8301 161.805L31.0832 131.618Z"
        fill="#00507C"
      />
      <circle cx="129" cy="23" r="10" stroke="#00507C" stroke-width="4" />
      <path
        d="M229.643 205.27C229.643 204.716 229.447 204.293 229.057 204C228.666 203.701 227.963 203.388 226.947 203.062C225.932 202.73 225.128 202.405 224.535 202.086C222.921 201.214 222.113 200.038 222.113 198.561C222.113 197.792 222.328 197.109 222.758 196.51C223.194 195.904 223.816 195.432 224.623 195.094C225.437 194.755 226.348 194.586 227.357 194.586C228.373 194.586 229.278 194.771 230.072 195.143C230.867 195.507 231.482 196.025 231.918 196.695C232.361 197.366 232.582 198.128 232.582 198.98H229.652C229.652 198.329 229.447 197.825 229.037 197.467C228.627 197.102 228.051 196.92 227.309 196.92C226.592 196.92 226.036 197.073 225.639 197.379C225.242 197.678 225.043 198.076 225.043 198.57C225.043 199.033 225.274 199.42 225.736 199.732C226.205 200.045 226.892 200.338 227.797 200.611C229.464 201.113 230.678 201.734 231.439 202.477C232.201 203.219 232.582 204.143 232.582 205.25C232.582 206.48 232.117 207.447 231.186 208.15C230.255 208.847 229.001 209.195 227.426 209.195C226.332 209.195 225.336 208.997 224.438 208.6C223.539 208.196 222.852 207.646 222.377 206.949C221.908 206.253 221.674 205.445 221.674 204.527H224.613C224.613 206.096 225.551 206.881 227.426 206.881C228.122 206.881 228.666 206.741 229.057 206.461C229.447 206.174 229.643 205.777 229.643 205.27ZM243.9 203.814C243.9 205.442 243.529 206.747 242.787 207.73C242.051 208.707 241.055 209.195 239.799 209.195C238.731 209.195 237.868 208.824 237.211 208.082V213.062H234.389V198.434H237.006L237.104 199.469C237.787 198.648 238.679 198.238 239.779 198.238C241.081 198.238 242.094 198.72 242.816 199.684C243.539 200.647 243.9 201.975 243.9 203.668V203.814ZM241.078 203.609C241.078 202.626 240.902 201.868 240.551 201.334C240.206 200.8 239.701 200.533 239.037 200.533C238.152 200.533 237.543 200.872 237.211 201.549V205.875C237.556 206.572 238.171 206.92 239.057 206.92C240.404 206.92 241.078 205.816 241.078 203.609ZM245.219 203.619C245.219 202.571 245.421 201.637 245.824 200.816C246.228 199.996 246.807 199.361 247.562 198.912C248.324 198.463 249.206 198.238 250.209 198.238C251.635 198.238 252.797 198.674 253.695 199.547C254.6 200.419 255.105 201.604 255.209 203.102L255.229 203.824C255.229 205.445 254.776 206.747 253.871 207.73C252.966 208.707 251.752 209.195 250.229 209.195C248.705 209.195 247.488 208.707 246.576 207.73C245.671 206.754 245.219 205.426 245.219 203.746V203.619ZM248.041 203.824C248.041 204.827 248.23 205.595 248.607 206.129C248.985 206.656 249.525 206.92 250.229 206.92C250.912 206.92 251.446 206.66 251.83 206.139C252.214 205.611 252.406 204.771 252.406 203.619C252.406 202.636 252.214 201.874 251.83 201.334C251.446 200.794 250.906 200.523 250.209 200.523C249.519 200.523 248.985 200.794 248.607 201.334C248.23 201.868 248.041 202.698 248.041 203.824ZM256.527 203.619C256.527 202.571 256.729 201.637 257.133 200.816C257.536 199.996 258.116 199.361 258.871 198.912C259.633 198.463 260.515 198.238 261.518 198.238C262.943 198.238 264.105 198.674 265.004 199.547C265.909 200.419 266.413 201.604 266.518 203.102L266.537 203.824C266.537 205.445 266.085 206.747 265.18 207.73C264.275 208.707 263.061 209.195 261.537 209.195C260.014 209.195 258.796 208.707 257.885 207.73C256.98 206.754 256.527 205.426 256.527 203.746V203.619ZM259.35 203.824C259.35 204.827 259.538 205.595 259.916 206.129C260.294 206.656 260.834 206.92 261.537 206.92C262.221 206.92 262.755 206.66 263.139 206.139C263.523 205.611 263.715 204.771 263.715 203.619C263.715 202.636 263.523 201.874 263.139 201.334C262.755 200.794 262.214 200.523 261.518 200.523C260.827 200.523 260.294 200.794 259.916 201.334C259.538 201.868 259.35 202.698 259.35 203.824ZM270.873 198.434L270.961 199.654C271.716 198.71 272.729 198.238 273.998 198.238C275.118 198.238 275.951 198.567 276.498 199.225C277.045 199.882 277.325 200.865 277.338 202.174V209H274.516V202.242C274.516 201.643 274.385 201.21 274.125 200.943C273.865 200.67 273.432 200.533 272.826 200.533C272.032 200.533 271.436 200.872 271.039 201.549V209H268.217V198.434H270.873ZM285.238 209V200.504H283.666V198.434H285.238V197.535C285.238 196.35 285.577 195.432 286.254 194.781C286.938 194.124 287.891 193.795 289.115 193.795C289.506 193.795 289.984 193.86 290.551 193.99L290.521 196.178C290.287 196.119 290.001 196.09 289.662 196.09C288.601 196.09 288.07 196.588 288.07 197.584V198.434H290.17V200.504H288.07V209H285.238ZM296.264 209.195C294.714 209.195 293.451 208.72 292.475 207.77C291.505 206.819 291.02 205.553 291.02 203.971V203.697C291.02 202.636 291.225 201.689 291.635 200.855C292.045 200.016 292.624 199.371 293.373 198.922C294.128 198.466 294.988 198.238 295.951 198.238C297.396 198.238 298.533 198.694 299.359 199.605C300.193 200.517 300.609 201.809 300.609 203.482V204.635H293.881C293.972 205.325 294.245 205.878 294.701 206.295C295.163 206.712 295.746 206.92 296.449 206.92C297.536 206.92 298.386 206.526 298.998 205.738L300.385 207.291C299.962 207.89 299.389 208.359 298.666 208.697C297.943 209.029 297.143 209.195 296.264 209.195ZM295.941 200.523C295.382 200.523 294.926 200.712 294.574 201.09C294.229 201.467 294.008 202.008 293.91 202.711H297.836V202.486C297.823 201.861 297.654 201.38 297.328 201.041C297.003 200.696 296.54 200.523 295.941 200.523ZM301.781 203.639C301.781 201.992 302.149 200.68 302.885 199.703C303.627 198.727 304.639 198.238 305.922 198.238C306.951 198.238 307.8 198.622 308.471 199.391V194H311.303V209H308.754L308.617 207.877C307.914 208.756 307.009 209.195 305.902 209.195C304.659 209.195 303.66 208.707 302.904 207.73C302.156 206.747 301.781 205.383 301.781 203.639ZM304.604 203.844C304.604 204.833 304.776 205.592 305.121 206.119C305.466 206.646 305.967 206.91 306.625 206.91C307.497 206.91 308.113 206.542 308.471 205.807V201.637C308.119 200.901 307.51 200.533 306.645 200.533C305.284 200.533 304.604 201.637 304.604 203.844ZM321.85 195.836V198.434H323.656V200.504H321.85V205.777C321.85 206.168 321.924 206.448 322.074 206.617C322.224 206.786 322.51 206.871 322.934 206.871C323.246 206.871 323.523 206.848 323.764 206.803V208.941C323.21 209.111 322.641 209.195 322.055 209.195C320.076 209.195 319.066 208.196 319.027 206.197V200.504H317.484V198.434H319.027V195.836H321.85ZM324.496 203.619C324.496 202.571 324.698 201.637 325.102 200.816C325.505 199.996 326.085 199.361 326.84 198.912C327.602 198.463 328.484 198.238 329.486 198.238C330.912 198.238 332.074 198.674 332.973 199.547C333.878 200.419 334.382 201.604 334.486 203.102L334.506 203.824C334.506 205.445 334.053 206.747 333.148 207.73C332.243 208.707 331.029 209.195 329.506 209.195C327.982 209.195 326.765 208.707 325.854 207.73C324.949 206.754 324.496 205.426 324.496 203.746V203.619ZM327.318 203.824C327.318 204.827 327.507 205.595 327.885 206.129C328.262 206.656 328.803 206.92 329.506 206.92C330.189 206.92 330.723 206.66 331.107 206.139C331.492 205.611 331.684 204.771 331.684 203.619C331.684 202.636 331.492 201.874 331.107 201.334C330.723 200.794 330.183 200.523 329.486 200.523C328.796 200.523 328.262 200.794 327.885 201.334C327.507 201.868 327.318 202.698 327.318 203.824ZM345.17 205.006L347.123 198.434H350.15L345.902 210.641L345.668 211.197C345.036 212.577 343.995 213.268 342.543 213.268C342.133 213.268 341.716 213.206 341.293 213.082V210.943L341.723 210.953C342.257 210.953 342.654 210.872 342.914 210.709C343.181 210.546 343.389 210.276 343.539 209.898L343.871 209.029L340.17 198.434H343.207L345.17 205.006ZM350.668 203.619C350.668 202.571 350.87 201.637 351.273 200.816C351.677 199.996 352.257 199.361 353.012 198.912C353.773 198.463 354.656 198.238 355.658 198.238C357.084 198.238 358.246 198.674 359.145 199.547C360.049 200.419 360.554 201.604 360.658 203.102L360.678 203.824C360.678 205.445 360.225 206.747 359.32 207.73C358.415 208.707 357.201 209.195 355.678 209.195C354.154 209.195 352.937 208.707 352.025 207.73C351.12 206.754 350.668 205.426 350.668 203.746V203.619ZM353.49 203.824C353.49 204.827 353.679 205.595 354.057 206.129C354.434 206.656 354.975 206.92 355.678 206.92C356.361 206.92 356.895 206.66 357.279 206.139C357.663 205.611 357.855 204.771 357.855 203.619C357.855 202.636 357.663 201.874 357.279 201.334C356.895 200.794 356.355 200.523 355.658 200.523C354.968 200.523 354.434 200.794 354.057 201.334C353.679 201.868 353.49 202.698 353.49 203.824ZM368.744 207.926C368.048 208.772 367.084 209.195 365.854 209.195C364.721 209.195 363.855 208.87 363.256 208.219C362.663 207.568 362.361 206.614 362.348 205.357V198.434H365.17V205.26C365.17 206.36 365.671 206.91 366.674 206.91C367.631 206.91 368.288 206.578 368.646 205.914V198.434H371.479V209H368.822L368.744 207.926Z"
        fill="#3099D3"
      />
    </svg>