<svg viewBox="0 0 236 47" fill="none" xmlns="http://www.w3.org/2000/svg">
      <path
        d="M46.8782 28.0818C47.6305 29.0209 50.3921 32.5156 50.3921 36.9463C50.2324 41.3387 47.597 44.9324 40.8886 45.8109C40.4366 45.8209 39.6109 45.9706 39.1317 45.9706C37.7004 45.9706 35.2906 46.0647 32.6622 44.2936C28.9884 41.8179 26.354 37.7449 27.3923 35.0297C28.8297 32.3144 32.8114 33.2727 35.1667 35.3491C37.5219 37.4255 38.5727 38.6234 39.1317 40.4602C43.2046 41.179 44.5622 39.1824 44.4824 36.9463C44.3854 34.2311 42.6968 32.4773 42.3263 31.995C39.5982 28.4491 33.02 19.9578 30.2839 16.4167C28.2379 13.5705 27.3922 11.4084 27.3922 7.23801C27.3922 4.7687 28.9847 3.01335 30.1874 2.12689C31.692 0.940159 33.2979 0.401375 35.1667 0.211305C36.3726 0.0883191 39.257 -0.0410587 40.4645 0.0547747C40.6721 0.0723441 40.8814 0.081928 41.0858 0.120261C41.2791 0.1554 41.4867 0.125057 41.6911 0.224085C39.8911 0.591446 38.2181 1.19731 36.656 2.12689C35.2856 2.94307 33.222 4.70162 33.222 7.23801C33.222 9.95807 34.3967 12.4764 36.4571 15.2555C39.8943 19.5473 43.4378 23.7916 46.8782 28.0818Z"
        fill="#1D59FF"
      />
      <path
        d="M23.1198 39.5828C25.1962 41.5303 27.632 46.028 30.2418 46.0414C29.6892 46.0414 13.0605 45.944 11.73 45.944C3.71354 45.944 0 41.6619 0 36.9357C0 32.505 2.71527 29.0566 3.46757 28.1174C6.90798 23.8273 10.3612 19.5483 13.7984 15.2566C15.8588 12.4774 17.143 9.98096 17.143 7.26089C17.143 4.7245 14.9931 2.91485 13.6227 2.09867C12.0606 1.16908 10.3644 0.592488 8.56431 0.225127C8.76876 0.126099 8.97639 0.156442 9.16965 0.121303C9.3741 0.0829701 9.58334 0.0733862 9.79098 0.0558168C10.9985 -0.0400166 12.1389 0.00712735 13.4119 0.0526241C15.3333 0.121303 18.0416 0.342242 19.7257 1.67061C21.1249 2.7742 23.0799 4.79158 23.0799 7.26089C23.0799 11.4312 22.1295 13.6114 20.0835 16.4577C17.3474 19.9987 10.8116 28.5391 8.08354 32.0849C7.26737 33.1458 5.98959 34.9509 6.38889 36.9357C6.69047 38.4347 8.04681 39.5796 9.79098 39.5828C11.5351 39.586 22.5352 39.5828 23.1198 39.5828Z"
        fill="#020079"
      />
      <path
        d="M35.1379 43.0961C32.8219 43.8149 27.8445 40.3679 28.1875 36.0684C28.8501 39.4225 31.3046 41.0996 35.1379 43.0961Z"
        fill="white"
      />
      <path
        d="M46.8782 28.0818C47.6305 29.0209 50.3921 32.5156 50.3921 36.9463C50.2324 41.3387 47.597 44.9324 40.8886 45.8109C40.4366 45.8209 39.6109 45.9706 39.1317 45.9706C37.7004 45.9706 35.2906 46.0647 32.6622 44.2936C28.9884 41.8179 26.354 37.7449 27.3923 35.0297C28.8297 32.3144 32.8114 33.2727 35.1667 35.3491C37.5219 37.4255 38.5727 38.6234 39.1317 40.4602C43.2046 41.179 44.5622 39.1824 44.4824 36.9463C44.3854 34.2311 42.6968 32.4773 42.3263 31.995C39.5982 28.4491 33.02 19.9578 30.2839 16.4167C28.2379 13.5705 27.3922 11.4084 27.3922 7.23801C27.3922 4.7687 28.9847 3.01335 30.1874 2.12689C31.692 0.940159 33.2979 0.401375 35.1667 0.211305C36.3726 0.0883191 39.257 -0.0410587 40.4645 0.0547747C40.6721 0.0723441 40.8814 0.081928 41.0858 0.120261C41.2791 0.1554 41.4867 0.125057 41.6911 0.224085C39.8911 0.591446 38.2181 1.19731 36.656 2.12689C35.2856 2.94307 33.222 4.70162 33.222 7.23801C33.222 9.95807 34.3967 12.4764 36.4571 15.2555C39.8943 19.5473 43.4378 23.7916 46.8782 28.0818Z"
        fill="#3099D3"
      />
      <path
        d="M23.1198 39.5828C25.1962 41.5303 27.632 46.028 30.2418 46.0414C29.6892 46.0414 13.0605 45.944 11.73 45.944C3.71354 45.944 0 41.6619 0 36.9357C0 32.505 2.71527 29.0566 3.46757 28.1174C6.90798 23.8273 10.3612 19.5483 13.7984 15.2566C15.8588 12.4774 17.143 9.98096 17.143 7.26089C17.143 4.7245 14.9931 2.91485 13.6227 2.09867C12.0606 1.16908 10.3644 0.592488 8.56431 0.225127C8.76876 0.126099 8.97639 0.156442 9.16965 0.121303C9.3741 0.0829701 9.58334 0.0733862 9.79098 0.0558168C10.9985 -0.0400166 12.1389 0.00712735 13.4119 0.0526241C15.3333 0.121303 18.0416 0.342242 19.7257 1.67061C21.1249 2.7742 23.0799 4.79158 23.0799 7.26089C23.0799 11.4312 22.1295 13.6114 20.0835 16.4577C17.3474 19.9987 10.8116 28.5391 8.08354 32.0849C7.26737 33.1458 5.98959 34.9509 6.38889 36.9357C6.69047 38.4347 8.04681 39.5796 9.79098 39.5828C11.5351 39.586 22.5352 39.5828 23.1198 39.5828Z"
        fill="#00507C"
      />
      <path
        d="M35.1379 43.0961C32.8219 43.8149 27.8445 40.3679 28.1875 36.0684C28.8501 39.4225 31.3046 41.0996 35.1379 43.0961Z"
        fill="white"
      />
      <path
        d="M60.773 21.9542H65.8036V24.8442H57V9.24414H60.773V21.9542Z"
        fill="#00507C"
      />
      <path
        d="M77.7405 21.9922H71.8929L70.9216 24.8388H66.9492L72.6649 9.34961H77.012L82.7277 24.8388H78.7119L77.7405 21.9922ZM76.7692 19.1246L74.828 13.3879L72.8643 19.1246H76.7692Z"
        fill="#00507C"
      />
      <path
        d="M96.3541 18.1797C96.9057 18.8707 97.1815 19.6727 97.1815 20.5841C97.1815 21.9227 96.7363 22.9675 95.8459 23.717C94.9555 24.468 93.6799 24.8427 92.0175 24.8427H84.7578V9.24414H91.8406C93.4295 9.24414 94.6572 9.59041 95.5251 10.2814C96.3931 10.9725 96.8263 11.9588 96.8263 13.2375C96.8263 14.1789 96.5759 14.9628 96.0768 15.5879C95.5761 16.213 94.921 16.6207 94.1131 16.8126C95.0559 17.0329 95.804 17.4886 96.3541 18.1797ZM88.5323 15.6209H91.0042C92.3128 15.6209 92.9678 15.0618 92.9678 13.9435C92.9678 12.8253 92.2978 12.2661 90.9592 12.2661H88.5323V15.6209ZM93.3216 20.0564C93.3216 19.4973 93.1372 19.0596 92.77 18.7433C92.4027 18.427 91.8796 18.2696 91.2035 18.2696H88.5338V21.7773H91.226C92.6216 21.7773 93.3216 21.2032 93.3216 20.0564Z"
        fill="#00507C"
      />
      <path
        d="M110.265 22.7263C109.845 23.4174 109.228 23.969 108.411 24.3812C107.594 24.7935 106.604 24.9988 105.443 24.9988C103.692 24.9988 102.251 24.5731 101.118 23.7187C99.9847 22.8658 99.3671 21.6741 99.2637 20.1436H103.28C103.338 20.7327 103.548 21.1959 103.909 21.5331C104.269 21.8719 104.729 22.0413 105.288 22.0413C105.774 22.0413 106.156 21.9094 106.435 21.6441C106.714 21.3787 106.855 21.0265 106.855 20.5843C106.855 20.187 106.726 19.8558 106.468 19.5919C106.21 19.3266 105.891 19.1108 105.509 18.9414C105.126 18.772 104.596 18.5696 103.92 18.3343C102.933 17.9955 102.128 17.6687 101.503 17.3524C100.878 17.0361 100.341 16.5655 99.8918 15.9404C99.4436 15.3153 99.2188 14.5028 99.2188 13.5015C99.2188 12.5751 99.4541 11.7731 99.9248 11.0971C100.395 10.4211 101.046 9.9024 101.878 9.54114C102.708 9.18138 103.662 9 104.735 9C106.471 9 107.85 9.41222 108.872 10.2352C109.895 11.0596 110.472 12.1914 110.605 13.6334H106.523C106.45 13.1193 106.263 12.71 105.961 12.4087C105.66 12.1074 105.251 11.956 104.737 11.956C104.296 11.956 103.939 12.0745 103.666 12.3098C103.393 12.5451 103.259 12.8914 103.259 13.3471C103.259 13.7144 103.38 14.0276 103.623 14.2855C103.866 14.5433 104.17 14.7532 104.539 14.9151C104.906 15.077 105.437 15.2823 106.128 15.5326C107.127 15.8714 107.944 16.2057 108.577 16.537C109.21 16.8683 109.754 17.3494 110.209 17.982C110.665 18.6146 110.893 19.4375 110.893 20.4539C110.893 21.2768 110.683 22.0353 110.265 22.7263Z"
        fill="#3099D3"
      />
      <path
        d="M117.31 19.3714V24.8442H113.535V9.24414H119.647C121.501 9.24414 122.913 9.70434 123.883 10.6232C124.854 11.5421 125.338 12.7818 125.338 14.3407C125.338 15.3121 125.121 16.1755 124.688 16.934C124.253 17.6925 123.61 18.2876 122.757 18.7208C121.904 19.1555 120.867 19.3714 119.645 19.3714H117.31V19.3714ZM121.501 14.3407C121.501 12.9722 120.742 12.2886 119.228 12.2886H117.308V16.3479H119.228C120.744 16.3494 121.501 15.6793 121.501 14.3407Z"
        fill="#3099D3"
      />
      <path
        d="M139.166 10.0292C140.365 10.7128 141.31 11.6616 142.002 12.8758C142.693 14.09 143.04 15.4616 143.04 16.9906C143.04 18.5211 142.69 19.8956 141.992 21.1173C141.293 22.339 140.344 23.2909 139.145 23.9744C137.946 24.658 136.619 24.9997 135.162 24.9997C133.707 24.9997 132.379 24.658 131.18 23.9744C129.98 23.2909 129.031 22.3375 128.333 21.1173C127.634 19.8971 127.285 18.5211 127.285 16.9906C127.285 15.4601 127.634 14.0885 128.333 12.8758C129.031 11.6616 129.98 10.7128 131.18 10.0292C132.379 9.34568 133.705 9.00391 135.162 9.00391C136.633 9.00241 137.969 9.34418 139.166 10.0292ZM132.217 13.7138C131.488 14.5157 131.124 15.6085 131.124 16.9906C131.124 18.3592 131.488 19.4474 132.217 20.2569C132.945 21.0664 133.927 21.4711 135.162 21.4711C136.383 21.4711 137.361 21.0664 138.097 20.2569C138.833 19.4474 139.201 18.3592 139.201 16.9906C139.201 15.622 138.836 14.5337 138.108 13.7243C137.379 12.9163 136.398 12.5101 135.162 12.5101C133.927 12.5101 132.944 12.9118 132.217 13.7138Z"
        fill="#3099D3"
      />
      <path
        d="M157.123 10.0292C158.322 10.7128 159.267 11.6616 159.959 12.8758C160.65 14.09 160.997 15.4616 160.997 16.9906C160.997 18.5211 160.647 19.8956 159.949 21.1173C159.25 22.339 158.301 23.2909 157.102 23.9744C155.903 24.658 154.576 24.9997 153.119 24.9997C151.664 24.9997 150.336 24.658 149.137 23.9744C147.937 23.2909 146.989 22.3375 146.29 21.1173C145.591 19.8971 145.242 18.5211 145.242 16.9906C145.242 15.4601 145.591 14.0885 146.29 12.8758C146.989 11.6616 147.937 10.7128 149.137 10.0292C150.336 9.34568 151.662 9.00391 153.119 9.00391C154.59 9.00241 155.924 9.34418 157.123 10.0292ZM150.174 13.7138C149.445 14.5157 149.081 15.6085 149.081 16.9906C149.081 18.3592 149.445 19.4474 150.174 20.2569C150.902 21.0664 151.884 21.4711 153.119 21.4711C154.34 21.4711 155.318 21.0664 156.054 20.2569C156.79 19.4474 157.158 18.3592 157.158 16.9906C157.158 15.622 156.793 14.5337 156.065 13.7243C155.336 12.9163 154.355 12.5101 153.119 12.5101C151.884 12.5101 150.901 12.9118 150.174 13.7138Z"
        fill="#3099D3"
      />
      <path
        d="M177.525 24.8442H173.752L167.441 15.2686V24.8442H163.668V9.24414H167.441L173.752 18.9082V9.24414H177.525V24.8442Z"
        fill="#3099D3"
      />
      <path
        d="M60.3285 32.8V36.808H65.0405V38.072H60.3285V43H58.7765V31.536H65.8405V32.8H60.3285ZM68.9601 34.896V43H67.5361V34.896H68.9601ZM69.2641 32.352C69.2641 32.4907 69.2348 32.6213 69.1761 32.744C69.1228 32.8613 69.0481 32.968 68.9521 33.064C68.8615 33.1547 68.7521 33.2267 68.6241 33.28C68.5015 33.3333 68.3708 33.36 68.2321 33.36C68.0935 33.36 67.9628 33.3333 67.8401 33.28C67.7228 33.2267 67.6188 33.1547 67.5281 33.064C67.4375 32.968 67.3655 32.8613 67.3121 32.744C67.2588 32.6213 67.2321 32.4907 67.2321 32.352C67.2321 32.2133 67.2588 32.0827 67.3121 31.96C67.3655 31.832 67.4375 31.7227 67.5281 31.632C67.6188 31.536 67.7228 31.4613 67.8401 31.408C67.9628 31.3547 68.0935 31.328 68.2321 31.328C68.3708 31.328 68.5015 31.3547 68.6241 31.408C68.7521 31.4613 68.8615 31.536 68.9521 31.632C69.0481 31.7227 69.1228 31.832 69.1761 31.96C69.2348 32.0827 69.2641 32.2133 69.2641 32.352ZM72.6439 36.072C72.8199 35.8747 73.0065 35.696 73.2039 35.536C73.4012 35.376 73.6092 35.24 73.8279 35.128C74.0519 35.0107 74.2865 34.9227 74.5319 34.864C74.7825 34.8 75.0519 34.768 75.3399 34.768C75.7825 34.768 76.1719 34.8427 76.5079 34.992C76.8492 35.136 77.1319 35.344 77.3559 35.616C77.5852 35.8827 77.7585 36.2053 77.8759 36.584C77.9932 36.9627 78.0519 37.3813 78.0519 37.84V43H76.6199V37.84C76.6199 37.2267 76.4785 36.752 76.1959 36.416C75.9185 36.0747 75.4945 35.904 74.9239 35.904C74.5025 35.904 74.1079 36.0053 73.7399 36.208C73.3772 36.4107 73.0412 36.6853 72.7319 37.032V43H71.2999V34.896H72.1559C72.3585 34.896 72.4839 34.9947 72.5319 35.192L72.6439 36.072ZM85.5018 36.824C85.2351 36.4667 84.9471 36.2187 84.6378 36.08C84.3284 35.936 83.9818 35.864 83.5978 35.864C82.8458 35.864 82.2671 36.1333 81.8618 36.672C81.4564 37.2107 81.2538 37.9787 81.2538 38.976C81.2538 39.504 81.2991 39.9573 81.3898 40.336C81.4804 40.7093 81.6138 41.0187 81.7898 41.264C81.9658 41.504 82.1818 41.68 82.4378 41.792C82.6938 41.904 82.9844 41.96 83.3098 41.96C83.7791 41.96 84.1871 41.8533 84.5338 41.64C84.8858 41.4267 85.2084 41.1253 85.5018 40.736V36.824ZM86.9258 31.216V43H86.0778C85.8751 43 85.7471 42.9013 85.6938 42.704L85.5658 41.72C85.2191 42.136 84.8244 42.472 84.3818 42.728C83.9391 42.984 83.4271 43.112 82.8458 43.112C82.3818 43.112 81.9604 43.024 81.5818 42.848C81.2031 42.6667 80.8804 42.4027 80.6138 42.056C80.3471 41.7093 80.1418 41.2773 79.9978 40.76C79.8538 40.2427 79.7818 39.648 79.7818 38.976C79.7818 38.3787 79.8618 37.824 80.0218 37.312C80.1818 36.7947 80.4111 36.3467 80.7098 35.968C81.0084 35.5893 81.3738 35.2933 81.8058 35.08C82.2431 34.8613 82.7338 34.752 83.2778 34.752C83.7738 34.752 84.1978 34.8373 84.5498 35.008C84.9071 35.1733 85.2244 35.4053 85.5018 35.704V31.216H86.9258ZM97.6606 39.352C97.0046 39.3733 96.4446 39.4267 95.9806 39.512C95.522 39.592 95.146 39.6987 94.8526 39.832C94.5646 39.9653 94.354 40.1227 94.2206 40.304C94.0926 40.4853 94.0286 40.688 94.0286 40.912C94.0286 41.1253 94.0633 41.3093 94.1326 41.464C94.202 41.6187 94.2953 41.7467 94.4126 41.848C94.5353 41.944 94.6766 42.016 94.8366 42.064C95.002 42.1067 95.178 42.128 95.3646 42.128C95.6153 42.128 95.8446 42.104 96.0526 42.056C96.2606 42.0027 96.4553 41.928 96.6366 41.832C96.8233 41.736 96.9993 41.6213 97.1646 41.488C97.3353 41.3547 97.5006 41.2027 97.6606 41.032V39.352ZM93.0606 36.04C93.5086 35.608 93.9913 35.2853 94.5086 35.072C95.026 34.8587 95.5993 34.752 96.2286 34.752C96.682 34.752 97.0846 34.8267 97.4366 34.976C97.7886 35.1253 98.0846 35.3333 98.3246 35.6C98.5646 35.8667 98.746 36.1893 98.8686 36.568C98.9913 36.9467 99.0526 37.3627 99.0526 37.816V43H98.4206C98.282 43 98.1753 42.9787 98.1006 42.936C98.026 42.888 97.9673 42.7973 97.9246 42.664L97.7646 41.896C97.5513 42.0933 97.3433 42.2693 97.1406 42.424C96.938 42.5733 96.7246 42.7013 96.5006 42.808C96.2766 42.9093 96.0366 42.9867 95.7806 43.04C95.53 43.0987 95.25 43.128 94.9406 43.128C94.626 43.128 94.33 43.0853 94.0526 43C93.7753 42.9093 93.5326 42.776 93.3246 42.6C93.122 42.424 92.9593 42.2027 92.8366 41.936C92.7193 41.664 92.6606 41.344 92.6606 40.976C92.6606 40.656 92.7486 40.3493 92.9246 40.056C93.1006 39.7573 93.386 39.4933 93.7806 39.264C94.1753 39.0347 94.69 38.848 95.3246 38.704C95.9593 38.5547 96.738 38.4693 97.6606 38.448V37.816C97.6606 37.1867 97.5246 36.712 97.2526 36.392C96.9806 36.0667 96.5833 35.904 96.0606 35.904C95.7086 35.904 95.4126 35.9493 95.1726 36.04C94.938 36.1253 94.7326 36.224 94.5566 36.336C94.386 36.4427 94.2366 36.5413 94.1086 36.632C93.986 36.7173 93.8633 36.76 93.7406 36.76C93.6446 36.76 93.562 36.736 93.4926 36.688C93.4233 36.6347 93.3646 36.5707 93.3166 36.496L93.0606 36.04ZM102.566 36.072C102.742 35.8747 102.928 35.696 103.126 35.536C103.323 35.376 103.531 35.24 103.75 35.128C103.974 35.0107 104.208 34.9227 104.454 34.864C104.704 34.8 104.974 34.768 105.262 34.768C105.704 34.768 106.094 34.8427 106.43 34.992C106.771 35.136 107.054 35.344 107.278 35.616C107.507 35.8827 107.68 36.2053 107.798 36.584C107.915 36.9627 107.974 37.3813 107.974 37.84V43H106.542V37.84C106.542 37.2267 106.4 36.752 106.118 36.416C105.84 36.0747 105.416 35.904 104.846 35.904C104.424 35.904 104.03 36.0053 103.662 36.208C103.299 36.4107 102.963 36.6853 102.654 37.032V43H101.222V34.896H102.078C102.28 34.896 102.406 34.9947 102.454 35.192L102.566 36.072ZM115.424 36.824C115.157 36.4667 114.869 36.2187 114.56 36.08C114.25 35.936 113.904 35.864 113.52 35.864C112.768 35.864 112.189 36.1333 111.784 36.672C111.378 37.2107 111.176 37.9787 111.176 38.976C111.176 39.504 111.221 39.9573 111.312 40.336C111.402 40.7093 111.536 41.0187 111.712 41.264C111.888 41.504 112.104 41.68 112.36 41.792C112.616 41.904 112.906 41.96 113.232 41.96C113.701 41.96 114.109 41.8533 114.456 41.64C114.808 41.4267 115.13 41.1253 115.424 40.736V36.824ZM116.848 31.216V43H116C115.797 43 115.669 42.9013 115.616 42.704L115.488 41.72C115.141 42.136 114.746 42.472 114.304 42.728C113.861 42.984 113.349 43.112 112.768 43.112C112.304 43.112 111.882 43.024 111.504 42.848C111.125 42.6667 110.802 42.4027 110.536 42.056C110.269 41.7093 110.064 41.2773 109.92 40.76C109.776 40.2427 109.704 39.648 109.704 38.976C109.704 38.3787 109.784 37.824 109.944 37.312C110.104 36.7947 110.333 36.3467 110.632 35.968C110.93 35.5893 111.296 35.2933 111.728 35.08C112.165 34.8613 112.656 34.752 113.2 34.752C113.696 34.752 114.12 34.8373 114.472 35.008C114.829 35.1733 115.146 35.4053 115.424 35.704V31.216H116.848ZM125.079 32.8V36.808H129.791V38.072H125.079V43H123.527V31.536H130.591V32.8H125.079ZM134.95 34.768C135.542 34.768 136.076 34.8667 136.55 35.064C137.025 35.2613 137.43 35.5413 137.766 35.904C138.102 36.2667 138.358 36.7067 138.534 37.224C138.716 37.736 138.806 38.3093 138.806 38.944C138.806 39.584 138.716 40.16 138.534 40.672C138.358 41.184 138.102 41.6213 137.766 41.984C137.43 42.3467 137.025 42.6267 136.55 42.824C136.076 43.016 135.542 43.112 134.95 43.112C134.353 43.112 133.814 43.016 133.334 42.824C132.86 42.6267 132.454 42.3467 132.118 41.984C131.782 41.6213 131.524 41.184 131.342 40.672C131.166 40.16 131.078 39.584 131.078 38.944C131.078 38.3093 131.166 37.736 131.342 37.224C131.524 36.7067 131.782 36.2667 132.118 35.904C132.454 35.5413 132.86 35.2613 133.334 35.064C133.814 34.8667 134.353 34.768 134.95 34.768ZM134.95 42C135.75 42 136.348 41.7333 136.742 41.2C137.137 40.6613 137.334 39.912 137.334 38.952C137.334 37.9867 137.137 37.2347 136.742 36.696C136.348 36.1573 135.75 35.888 134.95 35.888C134.545 35.888 134.19 35.9573 133.886 36.096C133.588 36.2347 133.337 36.4347 133.134 36.696C132.937 36.9573 132.788 37.28 132.686 37.664C132.59 38.0427 132.542 38.472 132.542 38.952C132.542 39.912 132.74 40.6613 133.134 41.2C133.534 41.7333 134.14 42 134.95 42ZM142.084 31.216V43H140.66V31.216H142.084ZM145.866 31.216V43H144.442V31.216H145.866ZM151.591 34.768C152.183 34.768 152.716 34.8667 153.191 35.064C153.666 35.2613 154.071 35.5413 154.407 35.904C154.743 36.2667 154.999 36.7067 155.175 37.224C155.356 37.736 155.447 38.3093 155.447 38.944C155.447 39.584 155.356 40.16 155.175 40.672C154.999 41.184 154.743 41.6213 154.407 41.984C154.071 42.3467 153.666 42.6267 153.191 42.824C152.716 43.016 152.183 43.112 151.591 43.112C150.994 43.112 150.455 43.016 149.975 42.824C149.5 42.6267 149.095 42.3467 148.759 41.984C148.423 41.6213 148.164 41.184 147.983 40.672C147.807 40.16 147.719 39.584 147.719 38.944C147.719 38.3093 147.807 37.736 147.983 37.224C148.164 36.7067 148.423 36.2667 148.759 35.904C149.095 35.5413 149.5 35.2613 149.975 35.064C150.455 34.8667 150.994 34.768 151.591 34.768ZM151.591 42C152.391 42 152.988 41.7333 153.383 41.2C153.778 40.6613 153.975 39.912 153.975 38.952C153.975 37.9867 153.778 37.2347 153.383 36.696C152.988 36.1573 152.391 35.888 151.591 35.888C151.186 35.888 150.831 35.9573 150.527 36.096C150.228 36.2347 149.978 36.4347 149.775 36.696C149.578 36.9573 149.428 37.28 149.327 37.664C149.231 38.0427 149.183 38.472 149.183 38.952C149.183 39.912 149.38 40.6613 149.775 41.2C150.175 41.7333 150.78 42 151.591 42ZM168.304 34.896L165.68 43H164.552C164.413 43 164.317 42.9093 164.264 42.728L162.472 37.232C162.429 37.1093 162.395 36.9867 162.368 36.864C162.341 36.736 162.315 36.6107 162.288 36.488C162.261 36.6107 162.235 36.736 162.208 36.864C162.181 36.9867 162.147 37.112 162.104 37.24L160.28 42.728C160.232 42.9093 160.125 43 159.96 43H158.888L156.264 34.896H157.384C157.496 34.896 157.589 34.9253 157.664 34.984C157.744 35.0427 157.797 35.112 157.824 35.192L159.376 40.408C159.467 40.792 159.539 41.1547 159.592 41.496C159.64 41.32 159.688 41.1413 159.736 40.96C159.789 40.7787 159.845 40.5947 159.904 40.408L161.616 35.16C161.643 35.08 161.688 35.0133 161.752 34.96C161.821 34.9067 161.904 34.88 162 34.88H162.624C162.731 34.88 162.819 34.9067 162.888 34.96C162.957 35.0133 163.005 35.08 163.032 35.16L164.704 40.408C164.763 40.5947 164.816 40.7787 164.864 40.96C164.912 41.1413 164.957 41.32 165 41.496C165.027 41.32 165.059 41.144 165.096 40.968C165.139 40.7867 165.184 40.6 165.232 40.408L166.816 35.192C166.843 35.1067 166.893 35.0373 166.968 34.984C167.043 34.9253 167.131 34.896 167.232 34.896H168.304ZM176.968 37.088C177.416 37.088 177.811 37.0347 178.152 36.928C178.499 36.816 178.787 36.6613 179.016 36.464C179.251 36.2613 179.427 36.0213 179.544 35.744C179.661 35.4667 179.72 35.16 179.72 34.824C179.72 34.1413 179.496 33.6267 179.048 33.28C178.6 32.9333 177.928 32.76 177.032 32.76H175.336V37.088H176.968ZM182.264 43H180.888C180.605 43 180.397 42.8907 180.264 42.672L177.288 38.576C177.197 38.448 177.099 38.3573 176.992 38.304C176.891 38.2453 176.731 38.216 176.512 38.216H175.336V43H173.792V31.536H177.032C177.757 31.536 178.384 31.6107 178.912 31.76C179.44 31.904 179.875 32.1147 180.216 32.392C180.563 32.6693 180.819 33.0053 180.984 33.4C181.149 33.7893 181.232 34.2267 181.232 34.712C181.232 35.1173 181.168 35.496 181.04 35.848C180.912 36.2 180.725 36.5173 180.48 36.8C180.24 37.0773 179.944 37.3147 179.592 37.512C179.245 37.7093 178.851 37.8587 178.408 37.96C178.605 38.072 178.776 38.2347 178.92 38.448L182.264 43ZM188.396 38.064C188.396 37.7333 188.348 37.432 188.252 37.16C188.161 36.8827 188.025 36.6453 187.844 36.448C187.668 36.2453 187.452 36.0907 187.196 35.984C186.94 35.872 186.649 35.816 186.324 35.816C185.641 35.816 185.1 36.016 184.7 36.416C184.305 36.8107 184.06 37.36 183.964 38.064H188.396ZM189.548 41.864C189.372 42.0773 189.161 42.264 188.916 42.424C188.67 42.5787 188.406 42.7067 188.124 42.808C187.846 42.9093 187.558 42.984 187.26 43.032C186.961 43.0853 186.665 43.112 186.372 43.112C185.812 43.112 185.294 43.0187 184.82 42.832C184.35 42.64 183.942 42.3627 183.596 42C183.254 41.632 182.988 41.1787 182.796 40.64C182.604 40.1013 182.508 39.4827 182.508 38.784C182.508 38.2187 182.593 37.6907 182.764 37.2C182.94 36.7093 183.19 36.2853 183.516 35.928C183.841 35.5653 184.238 35.2827 184.708 35.08C185.177 34.872 185.705 34.768 186.292 34.768C186.777 34.768 187.225 34.8507 187.636 35.016C188.052 35.176 188.409 35.4107 188.708 35.72C189.012 36.024 189.249 36.4027 189.42 36.856C189.59 37.304 189.676 37.816 189.676 38.392C189.676 38.616 189.652 38.7653 189.604 38.84C189.556 38.9147 189.465 38.952 189.332 38.952H183.916C183.932 39.464 184.001 39.9093 184.124 40.288C184.252 40.6667 184.428 40.984 184.652 41.24C184.876 41.4907 185.142 41.68 185.452 41.808C185.761 41.9307 186.108 41.992 186.492 41.992C186.849 41.992 187.156 41.952 187.412 41.872C187.673 41.7867 187.897 41.696 188.084 41.6C188.27 41.504 188.425 41.416 188.548 41.336C188.676 41.2507 188.785 41.208 188.876 41.208C188.993 41.208 189.084 41.2533 189.148 41.344L189.548 41.864ZM196.145 36.232C196.081 36.3493 195.982 36.408 195.849 36.408C195.769 36.408 195.678 36.3787 195.577 36.32C195.476 36.2613 195.35 36.1973 195.201 36.128C195.057 36.0533 194.884 35.9867 194.681 35.928C194.478 35.864 194.238 35.832 193.961 35.832C193.721 35.832 193.505 35.864 193.313 35.928C193.121 35.9867 192.956 36.0693 192.817 36.176C192.684 36.2827 192.58 36.408 192.505 36.552C192.436 36.6907 192.401 36.8427 192.401 37.008C192.401 37.216 192.46 37.3893 192.577 37.528C192.7 37.6667 192.86 37.7867 193.057 37.888C193.254 37.9893 193.478 38.08 193.729 38.16C193.98 38.2347 194.236 38.3173 194.497 38.408C194.764 38.4933 195.022 38.5893 195.273 38.696C195.524 38.8027 195.748 38.936 195.945 39.096C196.142 39.256 196.3 39.4533 196.417 39.688C196.54 39.9173 196.601 40.1947 196.601 40.52C196.601 40.8933 196.534 41.24 196.401 41.56C196.268 41.8747 196.07 42.1493 195.809 42.384C195.548 42.6133 195.228 42.7947 194.849 42.928C194.47 43.0613 194.033 43.128 193.537 43.128C192.972 43.128 192.46 43.0373 192.001 42.856C191.542 42.6693 191.153 42.432 190.833 42.144L191.169 41.6C191.212 41.5307 191.262 41.4773 191.321 41.44C191.38 41.4027 191.454 41.384 191.545 41.384C191.641 41.384 191.742 41.4213 191.849 41.496C191.956 41.5707 192.084 41.6533 192.233 41.744C192.388 41.8347 192.574 41.9173 192.793 41.992C193.012 42.0667 193.284 42.104 193.609 42.104C193.886 42.104 194.129 42.0693 194.337 42C194.545 41.9253 194.718 41.8267 194.857 41.704C194.996 41.5813 195.097 41.44 195.161 41.28C195.23 41.12 195.265 40.9493 195.265 40.768C195.265 40.544 195.204 40.36 195.081 40.216C194.964 40.0667 194.806 39.9413 194.609 39.84C194.412 39.7333 194.185 39.6427 193.929 39.568C193.678 39.488 193.42 39.4053 193.153 39.32C192.892 39.2347 192.633 39.1387 192.377 39.032C192.126 38.92 191.902 38.7813 191.705 38.616C191.508 38.4507 191.348 38.248 191.225 38.008C191.108 37.7627 191.049 37.4667 191.049 37.12C191.049 36.8107 191.113 36.5147 191.241 36.232C191.369 35.944 191.556 35.6933 191.801 35.48C192.046 35.2613 192.348 35.088 192.705 34.96C193.062 34.832 193.47 34.768 193.929 34.768C194.462 34.768 194.94 34.8533 195.361 35.024C195.788 35.1893 196.156 35.4187 196.465 35.712L196.145 36.232ZM203.771 38.064C203.771 37.7333 203.723 37.432 203.627 37.16C203.536 36.8827 203.4 36.6453 203.219 36.448C203.043 36.2453 202.827 36.0907 202.571 35.984C202.315 35.872 202.024 35.816 201.699 35.816C201.016 35.816 200.475 36.016 200.075 36.416C199.68 36.8107 199.435 37.36 199.339 38.064H203.771ZM204.923 41.864C204.747 42.0773 204.536 42.264 204.291 42.424C204.045 42.5787 203.781 42.7067 203.499 42.808C203.221 42.9093 202.933 42.984 202.635 43.032C202.336 43.0853 202.04 43.112 201.747 43.112C201.187 43.112 200.669 43.0187 200.195 42.832C199.725 42.64 199.317 42.3627 198.971 42C198.629 41.632 198.363 41.1787 198.171 40.64C197.979 40.1013 197.883 39.4827 197.883 38.784C197.883 38.2187 197.968 37.6907 198.139 37.2C198.315 36.7093 198.565 36.2853 198.891 35.928C199.216 35.5653 199.613 35.2827 200.083 35.08C200.552 34.872 201.08 34.768 201.667 34.768C202.152 34.768 202.6 34.8507 203.011 35.016C203.427 35.176 203.784 35.4107 204.083 35.72C204.387 36.024 204.624 36.4027 204.795 36.856C204.965 37.304 205.051 37.816 205.051 38.392C205.051 38.616 205.027 38.7653 204.979 38.84C204.931 38.9147 204.84 38.952 204.707 38.952H199.291C199.307 39.464 199.376 39.9093 199.499 40.288C199.627 40.6667 199.803 40.984 200.027 41.24C200.251 41.4907 200.517 41.68 200.827 41.808C201.136 41.9307 201.483 41.992 201.867 41.992C202.224 41.992 202.531 41.952 202.787 41.872C203.048 41.7867 203.272 41.696 203.459 41.6C203.645 41.504 203.8 41.416 203.923 41.336C204.051 41.2507 204.16 41.208 204.251 41.208C204.368 41.208 204.459 41.2533 204.523 41.344L204.923 41.864ZM211.192 39.352C210.536 39.3733 209.976 39.4267 209.512 39.512C209.053 39.592 208.677 39.6987 208.384 39.832C208.096 39.9653 207.885 40.1227 207.752 40.304C207.624 40.4853 207.56 40.688 207.56 40.912C207.56 41.1253 207.595 41.3093 207.664 41.464C207.733 41.6187 207.827 41.7467 207.944 41.848C208.067 41.944 208.208 42.016 208.368 42.064C208.533 42.1067 208.709 42.128 208.896 42.128C209.147 42.128 209.376 42.104 209.584 42.056C209.792 42.0027 209.987 41.928 210.168 41.832C210.355 41.736 210.531 41.6213 210.696 41.488C210.867 41.3547 211.032 41.2027 211.192 41.032V39.352ZM206.592 36.04C207.04 35.608 207.523 35.2853 208.04 35.072C208.557 34.8587 209.131 34.752 209.76 34.752C210.213 34.752 210.616 34.8267 210.968 34.976C211.32 35.1253 211.616 35.3333 211.856 35.6C212.096 35.8667 212.277 36.1893 212.4 36.568C212.523 36.9467 212.584 37.3627 212.584 37.816V43H211.952C211.813 43 211.707 42.9787 211.632 42.936C211.557 42.888 211.499 42.7973 211.456 42.664L211.296 41.896C211.083 42.0933 210.875 42.2693 210.672 42.424C210.469 42.5733 210.256 42.7013 210.032 42.808C209.808 42.9093 209.568 42.9867 209.312 43.04C209.061 43.0987 208.781 43.128 208.472 43.128C208.157 43.128 207.861 43.0853 207.584 43C207.307 42.9093 207.064 42.776 206.856 42.6C206.653 42.424 206.491 42.2027 206.368 41.936C206.251 41.664 206.192 41.344 206.192 40.976C206.192 40.656 206.28 40.3493 206.456 40.056C206.632 39.7573 206.917 39.4933 207.312 39.264C207.707 39.0347 208.221 38.848 208.856 38.704C209.491 38.5547 210.269 38.4693 211.192 38.448V37.816C211.192 37.1867 211.056 36.712 210.784 36.392C210.512 36.0667 210.115 35.904 209.592 35.904C209.24 35.904 208.944 35.9493 208.704 36.04C208.469 36.1253 208.264 36.224 208.088 36.336C207.917 36.4427 207.768 36.5413 207.64 36.632C207.517 36.7173 207.395 36.76 207.272 36.76C207.176 36.76 207.093 36.736 207.024 36.688C206.955 36.6347 206.896 36.5707 206.848 36.496L206.592 36.04ZM216.105 36.52C216.361 35.9653 216.676 35.5333 217.049 35.224C217.422 34.9093 217.878 34.752 218.417 34.752C218.588 34.752 218.75 34.7707 218.905 34.808C219.065 34.8453 219.206 34.904 219.329 34.984L219.225 36.048C219.193 36.1813 219.113 36.248 218.985 36.248C218.91 36.248 218.801 36.232 218.657 36.2C218.513 36.168 218.35 36.152 218.169 36.152C217.913 36.152 217.684 36.1893 217.481 36.264C217.284 36.3387 217.105 36.4507 216.945 36.6C216.79 36.744 216.649 36.9253 216.521 37.144C216.398 37.3573 216.286 37.6027 216.185 37.88V43H214.753V34.896H215.569C215.724 34.896 215.83 34.9253 215.889 34.984C215.948 35.0427 215.988 35.144 216.009 35.288L216.105 36.52ZM225.893 36.336C225.85 36.3947 225.808 36.44 225.765 36.472C225.722 36.504 225.664 36.52 225.589 36.52C225.509 36.52 225.421 36.488 225.325 36.424C225.229 36.3547 225.109 36.28 224.965 36.2C224.826 36.12 224.653 36.048 224.445 35.984C224.242 35.9147 223.992 35.88 223.693 35.88C223.293 35.88 222.941 35.952 222.637 36.096C222.333 36.2347 222.077 36.4373 221.869 36.704C221.666 36.9707 221.512 37.2933 221.405 37.672C221.304 38.0507 221.253 38.4747 221.253 38.944C221.253 39.4347 221.309 39.872 221.421 40.256C221.533 40.6347 221.69 40.9547 221.893 41.216C222.101 41.472 222.349 41.6693 222.637 41.808C222.93 41.9413 223.258 42.008 223.621 42.008C223.968 42.008 224.253 41.968 224.477 41.888C224.701 41.8027 224.885 41.7093 225.029 41.608C225.178 41.5067 225.301 41.416 225.397 41.336C225.498 41.2507 225.597 41.208 225.693 41.208C225.81 41.208 225.901 41.2533 225.965 41.344L226.365 41.864C226.189 42.0827 225.989 42.2693 225.765 42.424C225.541 42.5787 225.298 42.7093 225.037 42.816C224.781 42.9173 224.512 42.992 224.229 43.04C223.946 43.088 223.658 43.112 223.365 43.112C222.858 43.112 222.386 43.0187 221.949 42.832C221.517 42.6453 221.141 42.376 220.821 42.024C220.501 41.6667 220.25 41.2293 220.069 40.712C219.888 40.1947 219.797 39.6053 219.797 38.944C219.797 38.3413 219.88 37.784 220.045 37.272C220.216 36.76 220.461 36.32 220.781 35.952C221.106 35.5787 221.504 35.288 221.973 35.08C222.448 34.872 222.992 34.768 223.605 34.768C224.176 34.768 224.677 34.8613 225.109 35.048C225.546 35.2293 225.933 35.488 226.269 35.824L225.893 36.336ZM229.326 35.976C229.672 35.608 230.056 35.3147 230.478 35.096C230.899 34.8773 231.384 34.768 231.934 34.768C232.376 34.768 232.766 34.8427 233.102 34.992C233.443 35.136 233.726 35.344 233.95 35.616C234.179 35.8827 234.352 36.2053 234.47 36.584C234.587 36.9627 234.646 37.3813 234.646 37.84V43H233.214V37.84C233.214 37.2267 233.072 36.752 232.79 36.416C232.512 36.0747 232.088 35.904 231.518 35.904C231.096 35.904 230.702 36.0053 230.334 36.208C229.971 36.4107 229.635 36.6853 229.326 37.032V43H227.894V31.216H229.326V35.976Z"
        fill="#3099D3"
      />
    </svg>