<svg width="1169" height="289" viewBox="0 0 1169 289" fill="none" xmlns="http://www.w3.org/2000/svg">
<path d="M293.5 175.823C298.21 181.703 315.5 203.583 315.5 231.323C314.5 258.823 298 281.323 256 286.823C253.17 286.885 248 287.823 245 287.823C236.039 287.823 220.951 288.412 204.496 277.323C181.494 261.823 165.001 236.323 171.501 219.323C180.5 202.323 205.43 208.323 220.176 221.323C234.921 234.323 241.5 241.823 245 253.323C270.5 257.823 279 245.323 278.5 231.323C277.893 214.323 267.321 203.343 265.001 200.323C247.921 178.123 206.735 124.96 189.605 102.79C176.795 84.9696 171.501 71.4328 171.501 45.3228C171.501 29.8628 181.471 18.8728 189.001 13.3228C198.421 5.89281 208.476 2.51956 220.176 1.32956C227.726 0.559557 245.785 -0.250461 253.345 0.349539C254.645 0.459539 255.955 0.519543 257.235 0.759543C258.445 0.979543 259.744 0.789567 261.024 1.40957C249.754 3.70957 239.28 7.50281 229.5 13.3228C220.92 18.4328 208 29.4428 208 45.3228C208 62.3528 215.355 78.1196 228.255 95.5196C249.775 122.39 271.96 148.963 293.5 175.823Z" fill="#1D59FF"/>
<path d="M144.75 247.823C157.75 260.016 173 288.175 189.34 288.259C185.88 288.259 81.77 287.649 73.44 287.649C23.25 287.649 0 260.839 0 231.249C0 203.509 17 181.919 21.71 176.039C43.25 149.179 64.87 122.389 86.39 95.5195C99.29 78.1195 107.33 62.4895 107.33 45.4595C107.33 29.5795 93.87 18.2495 85.29 13.1395C75.51 7.31947 64.89 3.70949 53.62 1.40949C54.9 0.789489 56.2 0.979465 57.41 0.759465C58.69 0.519465 60 0.459461 61.3 0.349461C68.86 -0.250539 76 0.0446234 83.97 0.329472C96 0.759465 112.956 2.14274 123.5 10.4595C132.26 17.3689 144.5 29.9995 144.5 45.4595C144.5 71.5695 138.55 85.2195 125.74 103.039C108.61 125.209 67.69 178.679 50.61 200.879C45.5 207.521 37.5 218.823 40 231.249C41.8881 240.635 50.38 247.803 61.3 247.823C72.22 247.843 141.09 247.823 144.75 247.823Z" fill="#020079"/>
<path d="M220.001 269.823C205.501 274.323 174.338 252.742 176.485 225.823C180.634 246.823 196.001 257.323 220.001 269.823Z" fill="white"/>
<path d="M389.17 177.42H422.73V196.7H364V92.6299H389.17V177.42Z" fill="#020079"/>
<path d="M502.51 177.71H463.5L457.02 196.7H430.52L468.65 93.3701H497.65L535.78 196.7H508.99L502.51 177.71ZM496.03 158.58L483.08 120.31L469.98 158.58H496.03Z" fill="#020079"/>
<path d="M626.52 152.24C630.2 156.85 632.04 162.2 632.04 168.28C632.04 177.21 629.07 184.18 623.13 189.18C617.19 194.19 608.68 196.69 597.59 196.69H549.16V92.6299H596.41C607.01 92.6299 615.2 94.9399 620.99 99.5499C626.78 104.16 629.67 110.74 629.67 119.27C629.67 125.55 628 130.78 624.67 134.95C621.33 139.12 616.96 141.84 611.57 143.12C617.86 144.59 622.85 147.63 626.52 152.24ZM574.34 135.17H590.83C599.56 135.17 603.93 131.44 603.93 123.98C603.93 116.52 599.46 112.79 590.53 112.79H574.34V135.17ZM606.29 164.76C606.29 161.03 605.06 158.11 602.61 156C600.16 153.89 596.67 152.84 592.16 152.84H574.35V176.24H592.31C601.62 176.24 606.29 172.41 606.29 164.76Z" fill="#020079"/>
<path d="M719.56 182.57C716.76 187.18 712.64 190.86 707.19 193.61C701.74 196.36 695.14 197.73 687.39 197.73C675.71 197.73 666.1 194.89 658.54 189.19C650.98 183.5 646.86 175.55 646.17 165.34H672.96C673.35 169.27 674.75 172.36 677.16 174.61C679.56 176.87 682.63 178 686.36 178C689.6 178 692.15 177.12 694.01 175.35C695.87 173.58 696.81 171.23 696.81 168.28C696.81 165.63 695.95 163.42 694.23 161.66C692.51 159.89 690.38 158.45 687.83 157.32C685.28 156.19 681.74 154.84 677.23 153.27C670.65 151.01 665.28 148.83 661.11 146.72C656.94 144.61 653.36 141.47 650.36 137.3C647.37 133.13 645.87 127.71 645.87 121.03C645.87 114.85 647.44 109.5 650.58 104.99C653.72 100.48 658.06 97.02 663.61 94.61C669.15 92.21 675.51 91 682.67 91C694.25 91 703.45 93.75 710.27 99.24C717.09 104.74 720.94 112.29 721.83 121.91H694.6C694.11 118.48 692.86 115.75 690.85 113.74C688.84 111.73 686.11 110.72 682.68 110.72C679.74 110.72 677.36 111.51 675.54 113.08C673.72 114.65 672.82 116.96 672.82 120C672.82 122.45 673.63 124.54 675.25 126.26C676.87 127.98 678.9 129.38 681.36 130.46C683.81 131.54 687.35 132.91 691.96 134.58C698.63 136.84 704.08 139.07 708.3 141.28C712.52 143.49 716.15 146.7 719.19 150.92C722.23 155.14 723.75 160.63 723.75 167.41C723.75 172.9 722.35 177.96 719.56 182.57Z" fill="#1C59FF"/>
<path d="M766.59 160.19V196.7H741.41V92.6299H782.18C794.55 92.6299 803.97 95.6999 810.44 101.83C816.92 107.96 820.15 116.23 820.15 126.63C820.15 133.11 818.7 138.87 815.81 143.93C812.91 148.99 808.62 152.96 802.93 155.85C797.24 158.75 790.32 160.19 782.17 160.19H766.59V160.19ZM794.55 126.63C794.55 117.5 789.49 112.94 779.39 112.94H766.58V140.02H779.39C789.5 140.03 794.55 135.56 794.55 126.63Z" fill="#1C59FF"/>
<path d="M912.38 97.86C920.38 102.42 926.68 108.75 931.3 116.85C935.91 124.95 938.22 134.1 938.22 144.3C938.22 154.51 935.89 163.68 931.23 171.83C926.57 179.98 920.24 186.33 912.24 190.89C904.24 195.45 895.39 197.73 885.67 197.73C875.96 197.73 867.1 195.45 859.1 190.89C851.1 186.33 844.77 179.97 840.11 171.83C835.45 163.69 833.12 154.51 833.12 144.3C833.12 134.09 835.45 124.94 840.11 116.85C844.77 108.75 851.1 102.42 859.1 97.86C867.1 93.3 875.95 91.0201 885.67 91.0201C895.48 91.0101 904.39 93.29 912.38 97.86ZM866.02 122.44C861.16 127.79 858.73 135.08 858.73 144.3C858.73 153.43 861.16 160.69 866.02 166.09C870.88 171.49 877.43 174.19 885.67 174.19C893.81 174.19 900.34 171.49 905.25 166.09C910.16 160.69 912.61 153.43 912.61 144.3C912.61 135.17 910.18 127.91 905.32 122.51C900.46 117.12 893.91 114.41 885.67 114.41C877.43 114.41 870.87 117.09 866.02 122.44Z" fill="#1C59FF"/>
<path d="M1032.2 97.86C1040.2 102.42 1046.5 108.75 1051.12 116.85C1055.73 124.95 1058.04 134.1 1058.04 144.3C1058.04 154.51 1055.71 163.68 1051.05 171.83C1046.39 179.98 1040.06 186.33 1032.06 190.89C1024.06 195.45 1015.21 197.73 1005.49 197.73C995.78 197.73 986.92 195.45 978.92 190.89C970.92 186.33 964.59 179.97 959.93 171.83C955.27 163.69 952.94 154.51 952.94 144.3C952.94 134.09 955.27 124.94 959.93 116.85C964.59 108.75 970.92 102.42 978.92 97.86C986.92 93.3 995.77 91.0201 1005.49 91.0201C1015.3 91.0101 1024.2 93.29 1032.2 97.86ZM985.84 122.44C980.98 127.79 978.55 135.08 978.55 144.3C978.55 153.43 980.98 160.69 985.84 166.09C990.7 171.49 997.25 174.19 1005.49 174.19C1013.63 174.19 1020.16 171.49 1025.07 166.09C1029.98 160.69 1032.43 153.43 1032.43 144.3C1032.43 135.17 1030 127.91 1025.14 122.51C1020.28 117.12 1013.73 114.41 1005.49 114.41C997.25 114.41 990.69 117.09 985.84 122.44Z" fill="#1C59FF"/>
<path d="M1168.29 196.7H1143.12L1101.02 132.82V196.7H1075.85V92.6299H1101.02L1143.12 157.1V92.6299H1168.29V196.7Z" fill="#1C59FF"/>
</svg>
