<svg viewBox="0 0 391 117" fill="none" xmlns="http://www.w3.org/2000/svg">
      <path
        d="M207.032 19.5762H192.145V53.0726H158.648V67.96H192.145V101.456H207.032V67.96H240.529V53.0726H207.032V19.5762Z"
        fill="#3099D3"
      />
      <path
        d="M375.466 80.3636C369.048 80.3636 363.588 84.4756 361.539 90.1963L347.882 86.2194C348.675 83.5169 349.104 80.7002 349.104 77.8102C349.104 68.8558 345.128 60.8193 338.857 55.3526L352.679 44.348C356.263 47.8158 361.012 49.76 366.11 49.76C371.901 49.76 377.246 47.2579 380.94 42.8546L380.961 42.8791L381.616 42.0078L382.036 41.4486L382.016 41.4253C384.282 38.1718 385.49 34.3732 385.49 30.38C385.49 19.6935 376.795 11 366.109 11C355.423 11 346.73 19.6935 346.73 30.38C346.73 34.3767 347.939 38.1753 350.205 41.4265L350.185 41.4486L350.605 42.0078L351.261 42.8791L351.282 42.8546C351.344 42.928 351.408 42.9991 351.472 43.0736L337.477 54.2191C332.599 50.4531 326.529 48.1676 319.935 48.0302L316.932 39.2785C319.32 38.6063 321.465 37.2679 323.145 35.3692L323.185 35.4181L323.84 34.5468L324.261 33.9876L324.241 33.9643C325.69 31.8058 326.461 29.3048 326.461 26.6804C326.461 19.4523 320.58 13.5709 313.35 13.5709C306.122 13.5709 300.242 19.4523 300.242 26.6804C300.242 29.3072 301.013 31.807 302.462 33.9655L302.444 33.9876L302.855 34.5351C302.858 34.5398 302.862 34.5444 302.865 34.5491L303.521 35.4192L303.562 35.3715C306.049 38.1835 309.552 39.791 313.35 39.791C313.981 39.791 314.599 39.7328 315.212 39.6466L318.094 48.0465C302.224 48.6837 289.508 61.7873 289.508 77.8113C289.508 84.0807 291.439 90.0402 295.067 95.1097L295.047 95.133L295.467 95.6921L296.122 96.5635L296.143 96.539C301.832 103.584 310.209 107.611 319.306 107.611C328.404 107.611 336.781 103.584 342.47 96.539L342.491 96.5635L343.146 95.6921L343.566 95.133L343.546 95.1097C345.156 92.8592 346.428 90.4351 347.345 87.884L361.045 91.8737C360.803 92.9349 360.663 94.0345 360.663 95.168C360.663 98.164 361.553 101.017 363.222 103.469L363.204 103.491L363.615 104.038C363.618 104.043 363.622 104.048 363.625 104.052L364.281 104.923L364.321 104.876C367.133 108.117 371.129 109.972 375.467 109.972C379.804 109.972 383.797 108.116 386.614 104.874L386.655 104.923L387.309 104.051L387.73 103.492L387.71 103.469C389.381 101.014 390.269 98.1617 390.269 95.1691C390.269 87.0057 383.628 80.3636 375.466 80.3636ZM352.507 41.5139C352.582 41.444 352.672 41.3776 352.753 41.3088C352.889 41.1959 353.023 41.084 353.172 40.9734C353.268 40.9011 353.376 40.8324 353.478 40.7602C353.628 40.6554 353.779 40.5505 353.939 40.448C354.052 40.3758 354.171 40.3071 354.289 40.236C354.454 40.137 354.617 40.038 354.79 39.9413C354.913 39.8714 355.042 39.8038 355.171 39.7339C355.344 39.6407 355.52 39.5476 355.699 39.4567C355.832 39.3891 355.966 39.3239 356.102 39.2575C356.283 39.169 356.465 39.0816 356.648 38.9954C356.785 38.9313 356.924 38.8696 357.064 38.8067C357.246 38.724 357.43 38.6413 357.614 38.5632C357.753 38.5027 357.892 38.4433 358.029 38.3873C358.214 38.3093 358.398 38.2324 358.584 38.159C358.718 38.1043 358.852 38.0507 358.987 37.9971C359.166 37.9261 359.345 37.8573 359.521 37.7898C359.653 37.7397 359.786 37.6896 359.914 37.6407C360.085 37.5766 360.253 37.516 360.418 37.4566C360.541 37.4123 360.664 37.3669 360.782 37.3261C360.946 37.2679 361.102 37.2132 361.257 37.1596C361.364 37.1223 361.475 37.0839 361.576 37.0477C361.73 36.9965 361.872 36.9487 362.013 36.9021C362.099 36.8742 362.191 36.8427 362.273 36.8159C362.408 36.7728 362.528 36.7344 362.647 36.6948C362.719 36.6715 362.798 36.647 362.863 36.6249C362.975 36.5911 363.068 36.5608 363.159 36.534C363.208 36.5189 363.266 36.5003 363.308 36.4874C363.39 36.463 363.447 36.4455 363.504 36.428C363.533 36.4199 363.577 36.4059 363.602 36.4001C363.663 36.3814 363.704 36.3698 363.71 36.3686L364.344 36.1869V32.5432L363.787 32.3265C360.807 31.1628 358.807 27.9408 358.807 24.3087C358.807 19.6422 362.084 15.8447 366.112 15.8447C370.142 15.8447 373.418 19.6422 373.418 24.3087C373.418 27.9419 371.417 31.164 368.439 32.3265L367.882 32.5432V36.1881L368.515 36.3686C368.572 36.3849 368.642 36.4059 368.704 36.4245C368.775 36.4455 368.872 36.4746 368.98 36.5084C369.475 36.6598 370.342 36.9336 371.403 37.3098C371.612 37.3832 371.825 37.4601 372.047 37.5416C374.516 38.4561 377.439 39.7339 379.231 41.1085C379.233 41.1108 379.237 41.1132 379.239 41.1143C379.426 41.2576 379.598 41.402 379.758 41.5476C376.39 45.6655 371.459 48.0115 366.111 48.0115C360.764 48.0115 355.835 45.6655 352.469 41.5476C352.483 41.5383 352.493 41.5255 352.507 41.5139ZM313.352 38.0414C310.004 38.0414 306.91 36.6132 304.749 34.0994C304.764 34.0866 304.777 34.075 304.793 34.0633C304.989 33.9061 305.209 33.7511 305.449 33.6009C305.491 33.5741 305.534 33.5473 305.577 33.5205C305.822 33.3702 306.082 33.2211 306.354 33.0767C306.397 33.0534 306.443 33.0324 306.487 33.0091C306.769 32.8624 307.06 32.7191 307.361 32.5816C307.385 32.5711 307.41 32.5606 307.434 32.5502C307.722 32.4197 308.013 32.2939 308.303 32.1739C308.355 32.1518 308.408 32.1296 308.46 32.1087C308.746 31.991 309.028 31.8827 309.306 31.7779C309.375 31.7522 309.443 31.7254 309.512 31.701C309.775 31.6043 310.031 31.5123 310.273 31.4284C310.342 31.4039 310.407 31.3818 310.473 31.3597C310.711 31.2793 310.938 31.2024 311.144 31.1383C311.187 31.1244 311.226 31.1139 311.266 31.0999C311.481 31.0335 311.681 30.9729 311.844 30.9263L312.478 30.7446V27.9105L311.921 27.6938C310.064 26.9681 308.818 24.9494 308.818 22.6685C308.818 19.7459 310.852 17.3684 313.352 17.3684C315.851 17.3684 317.888 19.7459 317.888 22.6685C317.888 24.9494 316.64 26.9693 314.783 27.6938L314.226 27.9105V30.7446L314.86 30.9263C315.023 30.9729 315.225 31.0347 315.438 31.0999C315.479 31.1139 315.517 31.1244 315.56 31.1383C315.765 31.2036 315.994 31.2793 316.231 31.3597C316.298 31.3818 316.363 31.4039 316.432 31.4284C316.675 31.5123 316.93 31.6031 317.193 31.701C317.262 31.7254 317.331 31.7522 317.401 31.7779C317.676 31.8827 317.959 31.9922 318.243 32.1075C318.298 32.1296 318.351 32.1529 318.405 32.1751C318.694 32.2951 318.981 32.4185 319.266 32.5478C319.294 32.5606 319.322 32.5723 319.35 32.5851C319.645 32.7202 319.934 32.8623 320.214 33.0068C320.26 33.0313 320.307 33.0534 320.353 33.0779C320.624 33.2223 320.883 33.3691 321.126 33.5193C321.17 33.5461 321.215 33.5741 321.258 33.602C321.495 33.7535 321.714 33.9072 321.91 34.0622C321.926 34.075 321.94 34.0878 321.957 34.1006C319.793 36.6144 316.699 38.0414 313.352 38.0414ZM319.306 105.864C310.646 105.864 302.672 101.995 297.312 95.2215C297.414 95.1202 297.522 95.02 297.63 94.9187C297.668 94.8849 297.703 94.8499 297.74 94.8173C297.884 94.6892 298.036 94.561 298.192 94.4352C298.215 94.4166 298.234 94.3991 298.257 94.3805C298.804 93.9413 299.416 93.5127 300.078 93.0945C300.105 93.077 300.134 93.0619 300.159 93.0444C300.353 92.9232 300.548 92.8044 300.749 92.6856C300.806 92.6518 300.866 92.618 300.924 92.5843C301.096 92.4841 301.27 92.3827 301.447 92.2849C301.52 92.2441 301.593 92.2045 301.666 92.1637C301.832 92.0729 301.998 91.982 302.168 91.8923C302.252 91.8481 302.338 91.805 302.422 91.7607C302.582 91.678 302.742 91.5941 302.905 91.5126C303.001 91.4637 303.098 91.4171 303.195 91.3693C303.35 91.2924 303.504 91.2155 303.659 91.141C303.757 91.0944 303.856 91.0478 303.953 91.0012C304.112 90.9266 304.269 90.8509 304.429 90.7787C304.529 90.7321 304.63 90.6867 304.732 90.6413C304.885 90.5702 305.039 90.5015 305.193 90.4327C305.301 90.3838 305.408 90.3372 305.516 90.2906C305.667 90.2231 305.82 90.1578 305.971 90.0926C306.077 90.0472 306.182 90.0029 306.287 89.9575C306.439 89.8934 306.591 89.8305 306.742 89.7664C306.847 89.7233 306.951 89.6814 307.053 89.6395C307.208 89.5766 307.361 89.5148 307.513 89.4531C307.615 89.4123 307.715 89.3727 307.815 89.3319C307.966 89.2725 308.117 89.2119 308.266 89.1549C308.368 89.1153 308.47 89.0757 308.571 89.0361C308.717 88.9801 308.861 88.9242 309.004 88.8695C309.102 88.8322 309.199 88.7961 309.296 88.7588C309.446 88.7029 309.596 88.647 309.743 88.5922C309.828 88.5608 309.913 88.5293 309.997 88.499C310.148 88.4431 310.296 88.3895 310.443 88.336C310.522 88.308 310.603 88.2789 310.681 88.2509C310.833 88.1962 310.983 88.1438 311.131 88.0913C311.198 88.068 311.262 88.0447 311.327 88.0226C311.483 87.9679 311.635 87.9154 311.784 87.8642C311.84 87.8444 311.896 87.8258 311.95 87.8071C312.099 87.7559 312.246 87.7058 312.388 87.658C312.437 87.6405 312.487 87.6254 312.535 87.6091C312.684 87.559 312.829 87.5112 312.968 87.4646C313.003 87.453 313.041 87.4402 313.074 87.4297C313.229 87.3796 313.377 87.3318 313.519 87.2852C313.533 87.2806 313.548 87.2759 313.562 87.2713C314.683 86.9102 315.388 86.7075 315.42 86.6982L316.054 86.5176V81.5261L315.497 81.3083C310.653 79.42 307.397 74.2002 307.397 68.3223C307.397 60.7564 312.741 54.6012 319.31 54.6012C325.879 54.6012 331.222 60.7564 331.222 68.3223C331.222 74.2014 327.967 79.42 323.123 81.3083L322.566 81.5261V86.5176L323.199 86.6982C323.231 86.7075 323.932 86.9102 325.052 87.2701C325.073 87.2759 325.094 87.2829 325.115 87.2899C325.252 87.3342 325.394 87.3808 325.543 87.4297C325.579 87.4413 325.618 87.4542 325.655 87.4658C325.794 87.5112 325.936 87.559 326.084 87.6079C326.133 87.6254 326.183 87.6405 326.232 87.658C326.373 87.7058 326.517 87.7547 326.666 87.806C326.726 87.8258 326.787 87.8467 326.847 87.8677C326.989 87.9166 327.132 87.9667 327.279 88.018C327.353 88.0436 327.429 88.0704 327.505 88.0972C327.641 88.1449 327.78 88.1939 327.921 88.2439C328.01 88.2766 328.102 88.3103 328.194 88.343C328.328 88.3919 328.465 88.4408 328.603 88.4921C328.698 88.5258 328.792 88.562 328.888 88.5969C329.027 88.6482 329.168 88.7006 329.31 88.7542C329.413 88.7926 329.515 88.831 329.619 88.8718C329.755 88.9231 329.892 88.9755 330.03 89.0291C330.143 89.0722 330.256 89.1164 330.369 89.1607C330.501 89.212 330.635 89.2644 330.769 89.318C330.889 89.3646 331.009 89.4135 331.13 89.4612C331.259 89.5137 331.39 89.5672 331.52 89.6208C331.646 89.6721 331.772 89.7233 331.899 89.7769C332.025 89.8293 332.152 89.8829 332.278 89.9365C332.41 89.9924 332.542 90.0483 332.673 90.1054C332.796 90.1578 332.919 90.2114 333.04 90.265C333.175 90.3244 333.311 90.3838 333.447 90.4432C333.569 90.498 333.693 90.5551 333.815 90.611C333.948 90.6704 334.082 90.7309 334.213 90.7915C334.337 90.8498 334.46 90.908 334.583 90.9651C334.714 91.028 334.847 91.0886 334.977 91.1526C335.099 91.2109 335.219 91.2714 335.341 91.3297C335.47 91.3949 335.602 91.4578 335.73 91.5231C335.851 91.5848 335.971 91.6465 336.092 91.7094C336.217 91.7747 336.344 91.8376 336.467 91.904C336.586 91.9669 336.7 92.0298 336.817 92.0927C336.941 92.1614 337.067 92.2278 337.19 92.2965C337.301 92.3594 337.409 92.4223 337.519 92.4852C337.64 92.5563 337.765 92.625 337.884 92.6961C337.997 92.7637 338.104 92.83 338.215 92.8988C338.328 92.9675 338.442 93.0351 338.551 93.105C338.682 93.1865 338.808 93.2715 338.935 93.3543C339.017 93.4102 339.105 93.4649 339.187 93.5208C339.392 93.6594 339.592 93.7992 339.784 93.939C339.854 93.9914 339.918 94.0427 339.986 94.0951C340.108 94.1871 340.231 94.278 340.348 94.3712C340.417 94.4259 340.479 94.483 340.547 94.5378C340.655 94.6286 340.765 94.7183 340.866 94.808C340.932 94.8674 340.991 94.9257 341.053 94.9839C341.139 95.0619 341.224 95.1423 341.305 95.2215C335.942 101.995 327.967 105.864 319.306 105.864ZM375.466 108.223C371.577 108.223 367.984 106.548 365.498 103.599C365.52 103.582 365.541 103.564 365.564 103.547C365.788 103.362 366.04 103.178 366.318 102.997C366.353 102.974 366.391 102.952 366.427 102.93C366.721 102.742 367.036 102.558 367.373 102.379C367.383 102.374 367.394 102.368 367.403 102.362C367.75 102.179 368.112 102 368.483 101.829C368.501 101.819 368.518 101.811 368.536 101.803C368.9 101.635 369.268 101.477 369.636 101.324C369.678 101.306 369.719 101.289 369.761 101.272C370.117 101.125 370.47 100.986 370.814 100.857C370.861 100.839 370.909 100.821 370.957 100.804C371.295 100.678 371.623 100.559 371.934 100.451C371.977 100.436 372.019 100.423 372.062 100.408C372.37 100.302 372.661 100.205 372.922 100.122C372.95 100.113 372.976 100.106 373.002 100.098C373.269 100.014 373.513 99.9393 373.713 99.8822L374.347 99.7005V96.6473L373.79 96.4307C371.63 95.5861 370.179 93.2436 370.179 90.597C370.179 87.2025 372.549 84.4418 375.463 84.4418C378.376 84.4418 380.745 87.2025 380.745 90.597C380.745 93.2424 379.294 95.5861 377.133 96.4307L376.576 96.6473V99.7005L377.21 99.8822C377.403 99.9381 377.639 100.008 377.895 100.09C377.936 100.102 377.972 100.114 378.016 100.127C378.264 100.206 378.54 100.297 378.83 100.396C378.891 100.417 378.951 100.437 379.012 100.459C379.31 100.562 379.622 100.675 379.946 100.795C380.008 100.819 380.069 100.841 380.132 100.865C380.466 100.991 380.808 101.126 381.153 101.268C381.204 101.289 381.256 101.31 381.306 101.332C381.667 101.482 382.028 101.639 382.384 101.802C382.409 101.814 382.432 101.825 382.458 101.836C382.818 102.003 383.168 102.176 383.505 102.354C383.524 102.363 383.542 102.373 383.561 102.382C383.889 102.557 384.198 102.738 384.489 102.921C384.53 102.947 384.574 102.973 384.614 102.999C384.887 103.175 385.131 103.355 385.354 103.535C385.379 103.557 385.404 103.577 385.428 103.598C382.944 106.548 379.353 108.223 375.466 108.223Z"
        fill="#00507C"
      />
      <path
        fill-rule="evenodd"
        clip-rule="evenodd"
        d="M52 87C29.9086 87 12 69.0914 12 47C12 24.9086 29.9086 7 52 7C74.0914 7 92 24.9086 92 47C92 56.3927 88.7626 65.0292 83.3428 71.8547L83.4846 72L116.091 105.086C116.862 105.868 116.858 107.127 116.081 107.904L109.889 114.096C109.112 114.873 107.853 114.878 107.071 114.106L73.9847 81.5L73.2875 80.8712C67.1228 84.7538 59.8237 87 52 87ZM51.9847 77C68.5532 77 81.9846 63.5685 81.9846 46.9999C81.9846 30.4314 68.5532 16.9999 51.9847 16.9999C35.4161 16.9999 21.9847 30.4314 21.9847 46.9999C21.9847 63.5685 35.4161 77 51.9847 77Z"
        fill="#00507C"
        stroke="#3099D3"
      />
    </svg>