<svg width="860" height="786" viewBox="0 0 860 786" fill="none" xmlns="http://www.w3.org/2000/svg">
<g clip-path="url(#clip0)">
<path opacity="0.1" d="M434.63 693.881C669.351 693.881 859.63 679.106 859.63 660.881C859.63 642.655 669.351 627.881 434.63 627.881C199.909 627.881 9.62988 642.655 9.62988 660.881C9.62988 679.106 199.909 693.881 434.63 693.881Z" fill="#3099D3"/>
<g opacity="0.1">
<path opacity="0.1" d="M811.05 472.84C808.51 465.13 798.21 461.58 788.05 464.92C786.586 465.397 785.17 466.01 783.82 466.75C783.17 466.57 782.5 466.41 781.82 466.29C782.375 464.072 782.587 461.782 782.45 459.5C785.954 457.156 788.797 453.95 790.706 450.19C792.615 446.43 793.525 442.243 793.35 438.03C796.845 435.679 799.678 432.47 801.58 428.711C803.481 424.953 804.387 420.769 804.21 416.56C807.732 414.239 810.572 411.022 812.44 407.24C817.34 397.54 815.31 386.64 807.9 382.89C800.49 379.14 790.5 383.97 785.6 393.67C783.657 397.414 782.749 401.608 782.97 405.82C779.475 408.171 776.641 411.38 774.74 415.139C772.838 418.898 771.933 423.081 772.11 427.29C768.615 429.641 765.781 432.85 763.88 436.609C761.978 440.368 761.073 444.551 761.25 448.76C757.746 451.108 754.905 454.316 752.996 458.077C751.088 461.838 750.176 466.026 750.35 470.24C746.828 472.561 743.987 475.778 742.12 479.56C741.199 481.383 740.5 483.31 740.04 485.3C738.811 483.505 737.314 481.909 735.6 480.57C735.404 479.043 735.069 477.537 734.6 476.07C731.26 465.9 722.3 459.7 714.6 462.24C706.9 464.78 703.34 475.07 706.68 485.24C708.047 489.601 710.678 493.457 714.24 496.32C714.436 497.847 714.771 499.354 715.24 500.82C717.18 506.72 721.01 511.28 725.39 513.57C725.002 514.844 724.724 516.149 724.56 517.47C720.43 521.442 717.771 526.699 717.02 532.38C712.886 536.354 710.228 541.615 709.48 547.3C707.433 549.265 705.742 551.569 704.48 554.11C699.57 563.81 701.6 574.72 709.01 578.46C716.42 582.2 726.41 577.39 731.32 567.68C732.614 565.148 733.46 562.411 733.82 559.59C737.95 555.618 740.608 550.361 741.36 544.68C745.493 540.706 748.152 535.445 748.9 529.76C753.002 525.779 755.629 520.521 756.35 514.85C760.498 510.877 763.165 505.606 763.91 499.91C765.182 498.704 766.318 497.363 767.3 495.91C771.385 496.749 775.621 496.483 779.57 495.14C781.033 494.663 782.45 494.05 783.8 493.31C788.223 494.477 792.891 494.31 797.22 492.83C807.35 489.52 813.58 480.56 811.05 472.84Z" fill="#99999F"/>
<g opacity="0.1">
<path opacity="0.1" d="M793.12 442.438C792.071 443.47 790.918 444.391 789.68 445.188C789.837 448.042 789.461 450.901 788.57 453.617C789.357 452.53 790.059 451.383 790.67 450.188C791.91 447.758 792.738 445.139 793.12 442.438Z" fill="#EAF5FB"/>
<path opacity="0.1" d="M803.98 420.969C802.93 422.001 801.777 422.922 800.54 423.719C800.697 426.573 800.32 429.432 799.43 432.149C800.219 431.059 800.921 429.909 801.53 428.709C802.765 426.28 803.593 423.666 803.98 420.969Z" fill="#EAF5FB"/>
<path opacity="0.1" d="M779.35 412.978C779.258 411.506 779.315 410.029 779.52 408.568C777.578 410.482 775.963 412.702 774.74 415.138C774.136 416.34 773.628 417.587 773.22 418.868C774.875 416.537 776.954 414.539 779.35 412.978V412.978Z" fill="#EAF5FB"/>
<path opacity="0.1" d="M710.42 542.907C711.294 541.69 712.281 540.558 713.37 539.527C713.54 538.171 713.831 536.832 714.24 535.527C713.37 536.695 712.604 537.937 711.95 539.237C711.345 540.419 710.834 541.646 710.42 542.907V542.907Z" fill="#EAF5FB"/>
<path opacity="0.1" d="M717.96 528.008C718.834 526.791 719.821 525.659 720.91 524.628C721.073 523.307 721.351 522.002 721.74 520.729V520.729C720.91 521.863 720.174 523.064 719.54 524.318C718.922 525.507 718.394 526.741 717.96 528.008V528.008Z" fill="#EAF5FB"/>
<path opacity="0.1" d="M782.25 463.908C781.207 464.94 780.057 465.858 778.82 466.648C778.957 468.93 778.745 471.22 778.19 473.438C778.865 473.555 779.533 473.708 780.19 473.898C781.54 473.158 782.957 472.545 784.42 472.068C794.6 468.728 804.89 472.278 807.42 479.988C808.048 481.926 808.159 483.994 807.74 485.988C811.09 482.048 812.48 477.248 811.04 472.848C808.5 465.138 798.2 461.588 788.04 464.928C786.577 465.405 785.16 466.018 783.81 466.758C783.16 466.578 782.49 466.418 781.81 466.298C782 465.498 782.14 464.708 782.25 463.908Z" fill="#EAF5FB"/>
<path opacity="0.1" d="M706.7 550.398C705.831 551.566 705.064 552.808 704.41 554.108C703.802 555.314 703.288 556.564 702.87 557.848C703.763 556.625 704.767 555.487 705.87 554.448C706.024 553.076 706.302 551.721 706.7 550.398V550.398Z" fill="#EAF5FB"/>
<path opacity="0.1" d="M768.441 434.449C768.349 432.977 768.406 431.5 768.611 430.039C766.669 431.953 765.054 434.172 763.831 436.609C763.227 437.811 762.719 439.058 762.311 440.339C763.966 438.008 766.045 436.01 768.441 434.449V434.449Z" fill="#EAF5FB"/>
<path opacity="0.1" d="M752.75 522.009C752.553 523.497 752.218 524.963 751.75 526.389C752.532 525.297 753.231 524.147 753.84 522.949C754.495 521.664 755.041 520.326 755.47 518.949C754.651 520.044 753.741 521.068 752.75 522.009V522.009Z" fill="#EAF5FB"/>
<path opacity="0.1" d="M737.67 551.828C737.473 553.315 737.139 554.782 736.67 556.208C737.459 555.118 738.161 553.968 738.77 552.768C739.421 551.481 739.966 550.143 740.4 548.768C739.581 549.865 738.667 550.889 737.67 551.828V551.828Z" fill="#EAF5FB"/>
<path opacity="0.1" d="M745.21 536.908C745.014 538.396 744.679 539.863 744.21 541.288C745.007 540.217 745.722 539.087 746.35 537.908C747.006 536.623 747.551 535.285 747.98 533.908C747.143 534.984 746.216 535.988 745.21 536.908V536.908Z" fill="#EAF5FB"/>
<path opacity="0.1" d="M760.29 507.099C760.094 508.583 759.759 510.046 759.29 511.469C760.074 510.381 760.773 509.234 761.38 508.039C762.043 506.732 762.591 505.37 763.02 503.969C762.205 505.092 761.292 506.139 760.29 507.099V507.099Z" fill="#EAF5FB"/>
<path opacity="0.1" d="M710.92 469.388C718.64 466.858 727.6 473.048 730.92 483.218C731.389 484.688 731.723 486.198 731.92 487.728C733.635 489.067 735.132 490.663 736.36 492.458C736.821 490.465 737.519 488.535 738.44 486.708C738.79 486.028 739.17 485.378 739.56 484.708C738.426 483.137 737.08 481.731 735.56 480.528C735.364 479.001 735.03 477.495 734.56 476.028C731.22 465.858 722.26 459.658 714.56 462.198C710.16 463.638 707.12 467.608 705.94 472.628C707.294 471.137 709.009 470.021 710.92 469.388V469.388Z" fill="#EAF5FB"/>
<path opacity="0.1" d="M746.72 477.388C746.632 475.919 746.692 474.445 746.9 472.988C744.952 474.899 743.333 477.119 742.11 479.558C741.504 480.756 740.996 482 740.59 483.278C742.249 480.951 744.328 478.954 746.72 477.388V477.388Z" fill="#EAF5FB"/>
<path opacity="0.1" d="M757.58 455.908C757.492 454.439 757.552 452.965 757.76 451.508C755.81 453.413 754.191 455.63 752.97 458.068C752.366 459.269 751.858 460.517 751.45 461.798C753.105 459.467 755.185 457.469 757.58 455.908V455.908Z" fill="#EAF5FB"/>
<path opacity="0.1" d="M730.13 566.739C729.933 568.23 729.599 569.7 729.13 571.129C730.774 568.852 732.034 566.322 732.86 563.639C732.042 564.75 731.129 565.787 730.13 566.739V566.739Z" fill="#EAF5FB"/>
</g>
<path opacity="0.1" d="M825.87 373.619C829.395 371.301 832.236 368.083 834.1 364.299C839.01 354.599 836.98 343.689 829.57 339.939C822.16 336.189 812.17 341.019 807.26 350.729C805.315 354.482 804.411 358.688 804.64 362.909C801.145 365.26 798.311 368.469 796.41 372.228C794.509 375.986 793.603 380.17 793.78 384.379C790.253 386.694 787.411 389.913 785.55 393.699C784.948 394.886 784.443 396.12 784.04 397.389C786.651 393.608 790.437 390.796 794.81 389.389C795.308 390.929 796.106 392.355 797.159 393.585C798.212 394.815 799.498 395.823 800.944 396.553C802.389 397.282 803.964 397.717 805.579 397.833C807.194 397.949 808.815 397.744 810.35 397.229C811.827 401.577 811.827 406.291 810.35 410.639C811.131 409.562 811.827 408.425 812.43 407.239C814.37 403.494 815.274 399.3 815.05 395.089C818.549 392.742 821.386 389.534 823.288 385.774C825.19 382.014 826.093 377.828 825.91 373.619H825.87Z" fill="#99999F"/>
<path opacity="0.1" d="M945.23 235.98C948.245 234.574 951.158 232.96 953.95 231.15L921.62 207.53L959.62 227.1C967.307 220.993 973.667 213.381 978.31 204.73C982.953 196.08 985.78 186.572 986.62 176.79L922.04 177.45L986.76 166.63C986.091 156.839 983.427 147.287 978.932 138.563C974.437 129.838 968.205 122.125 960.621 115.896C953.036 109.668 944.258 105.056 934.826 102.343C925.393 99.6309 915.506 98.8755 905.771 100.124C896.037 101.372 886.66 104.597 878.217 109.601C869.774 114.605 862.443 121.282 856.675 129.223C850.907 137.163 846.823 146.199 844.674 155.776C842.526 165.352 842.357 175.266 844.18 184.91C839.486 187.093 835.04 189.775 830.92 192.91L864.67 239.84L824.15 198.76C815.598 207.157 809.276 217.554 805.754 229.01C802.232 240.466 801.622 252.619 803.98 264.37C791.739 270.084 781.353 279.125 774.008 290.462C766.662 301.799 762.654 314.973 762.442 328.48C762.229 341.986 765.82 355.28 772.805 366.843C779.79 378.405 789.886 387.769 801.941 393.865C813.996 399.961 827.522 402.543 840.975 401.315C854.427 400.088 867.263 395.101 878.015 386.924C888.768 378.747 897.003 367.711 901.78 355.075C906.557 342.44 907.683 328.715 905.03 315.47C919.678 308.652 931.607 297.106 938.898 282.688C946.189 268.27 948.42 251.819 945.23 235.98Z" fill="#3099D3"/>
<path opacity="0.1" d="M810.35 217.658C803.035 232.069 800.798 248.528 804 264.368C791.76 270.082 781.373 279.123 774.028 290.46C766.683 301.797 762.675 314.971 762.462 328.478C762.249 341.984 765.841 355.279 772.826 366.841C779.81 378.403 789.907 387.767 801.962 393.863C814.016 399.959 827.543 402.541 840.995 401.314C854.448 400.086 867.283 395.099 878.036 386.922C888.788 378.746 897.024 367.709 901.801 355.073C906.578 342.438 907.704 328.714 905.05 315.468C919.18 308.908 813.97 210.448 810.35 217.658Z" fill="#EAF5FB"/>
<path opacity="0.1" d="M802.39 251.089C808.294 251.089 813.08 246.303 813.08 240.399C813.08 234.495 808.294 229.709 802.39 229.709C796.486 229.709 791.7 234.495 791.7 240.399C791.7 246.303 796.486 251.089 802.39 251.089Z" fill="#3099D3"/>
<path opacity="0.1" d="M802.39 251.089C808.294 251.089 813.08 246.303 813.08 240.399C813.08 234.495 808.294 229.709 802.39 229.709C796.486 229.709 791.7 234.495 791.7 240.399C791.7 246.303 796.486 251.089 802.39 251.089Z" fill="#EAF5FB"/>
<path opacity="0.1" d="M790.99 416.23C783.88 412.64 781.73 402.47 785.88 393.09C785.66 393.47 785.45 393.86 785.25 394.27C780.34 403.97 782.37 414.87 789.78 418.62C797.19 422.37 807.18 417.54 812.08 407.84C812.29 407.44 812.47 407.03 812.65 406.63C807.56 415.54 798.09 419.83 790.99 416.23Z" fill="#EAF5FB"/>
<path opacity="0.1" d="M780.431 437.109C773.331 433.519 771.171 423.349 775.331 413.959C775.111 414.349 774.891 414.739 774.691 415.139C769.781 424.839 771.811 435.749 779.221 439.489C786.631 443.229 796.621 438.419 801.531 428.709C801.731 428.309 801.921 427.909 802.101 427.499C797.001 436.409 787.541 440.699 780.431 437.109Z" fill="#EAF5FB"/>
<path opacity="0.1" d="M769.87 457.98C762.77 454.39 760.61 444.22 764.77 434.84C764.55 435.22 764.33 435.61 764.13 436.02C759.22 445.72 761.26 456.62 768.67 460.37C776.08 464.12 786.06 459.29 790.97 449.59C791.17 449.19 791.36 448.78 791.54 448.38C786.45 457.29 776.98 461.58 769.87 457.98Z" fill="#EAF5FB"/>
<path opacity="0.1" d="M759.35 478.91C752.24 475.32 750.09 465.15 754.24 455.77C754.02 456.15 753.81 456.54 753.6 456.94C748.7 466.64 750.73 477.55 758.14 481.3C765.55 485.05 775.54 480.22 780.44 470.51C780.65 470.11 780.83 469.71 781.01 469.3C775.89 478.16 766.42 482.45 759.35 478.91Z" fill="#EAF5FB"/>
<path opacity="0.1" d="M748.76 499.73C741.65 496.14 739.5 485.97 743.65 476.59C743.43 476.97 743.22 477.36 743.02 477.77C738.11 487.47 740.14 498.37 747.55 502.12C754.96 505.87 764.95 501.04 769.86 491.34C770.06 490.94 770.25 490.53 770.43 490.13C765.35 499.04 755.86 503.33 748.76 499.73Z" fill="#EAF5FB"/>
<path opacity="0.1" d="M738.201 520.609C731.101 517.019 728.941 506.849 733.101 497.469C732.881 497.849 732.661 498.239 732.461 498.639C727.551 508.339 729.581 519.249 737.001 522.999C744.421 526.749 754.351 521.909 759.351 512.209C759.551 511.809 759.741 511.409 759.921 510.999C754.771 519.909 745.351 524.199 738.201 520.609Z" fill="#EAF5FB"/>
<path opacity="0.1" d="M727.64 541.48C720.54 537.89 718.38 527.72 722.54 518.34C722.32 518.73 722.11 519.11 721.9 519.52C717 529.22 719.03 540.12 726.44 543.87C733.85 547.62 743.84 542.79 748.74 533.09C748.95 532.69 749.13 532.28 749.31 531.88C744.22 540.79 734.75 545.08 727.64 541.48Z" fill="#EAF5FB"/>
<path opacity="0.1" d="M717.09 562.359C709.98 558.769 707.83 548.599 711.98 539.219C711.76 539.599 711.55 539.989 711.35 540.389C706.44 550.089 708.47 560.999 715.88 564.749C723.29 568.499 733.28 563.669 738.19 553.959C738.39 553.559 738.57 553.159 738.75 552.749C733.66 561.659 724.19 565.909 717.09 562.359Z" fill="#EAF5FB"/>
<path opacity="0.1" d="M710.15 576.08C703.05 572.48 700.89 562.32 705.05 552.93C704.83 553.32 704.61 553.71 704.41 554.11C699.5 563.81 701.53 574.72 708.94 578.46C716.35 582.2 726.34 577.39 731.25 567.68C731.45 567.28 731.64 566.88 731.82 566.47C726.72 575.38 717.25 579.67 710.15 576.08Z" fill="#EAF5FB"/>
<path opacity="0.1" d="M900.94 483.17C902.042 480.01 902.714 476.718 902.94 473.38C903.675 473.378 904.401 473.225 905.073 472.93C905.746 472.635 906.35 472.204 906.849 471.665C907.348 471.125 907.73 470.489 907.971 469.795C908.213 469.102 908.309 468.366 908.253 467.633C908.197 466.901 907.991 466.188 907.647 465.539C907.303 464.89 906.829 464.319 906.254 463.862C905.679 463.404 905.017 463.07 904.307 462.881C903.597 462.691 902.856 462.65 902.13 462.76C900.941 457.347 898.562 452.267 895.165 447.889C891.768 443.511 887.438 439.945 882.49 437.45C883.129 436.184 883.24 434.717 882.797 433.371C882.354 432.024 881.395 430.909 880.13 430.27C878.865 429.63 877.398 429.52 876.051 429.963C874.705 430.405 873.589 431.364 872.95 432.63C872.719 433.079 872.557 433.561 872.47 434.06C866.603 432.966 860.559 433.29 854.842 435.003C849.125 436.716 843.899 439.77 839.6 443.91C836.353 443.384 833.052 443.287 829.78 443.62L825.45 463.33L825.19 444.33C820.22 445.419 815.525 447.51 811.391 450.476C807.257 453.442 803.771 457.219 801.146 461.578C798.521 465.936 796.813 470.784 796.125 475.825C795.438 480.866 795.786 485.995 797.147 490.897C798.509 495.799 800.856 500.372 804.045 504.337C807.234 508.301 811.198 511.573 815.695 513.954C820.191 516.334 825.126 517.772 830.198 518.181C835.269 518.589 840.37 517.959 845.19 516.33C845.705 517.26 846.49 518.013 847.44 518.49C848.419 518.987 849.528 519.17 850.615 519.015C851.703 518.859 852.715 518.372 853.516 517.62C854.316 516.868 854.865 515.887 855.088 514.811C855.31 513.736 855.196 512.618 854.76 511.61C856.466 510.438 858.071 509.127 859.56 507.69C867.367 508.959 875.375 507.724 882.437 504.161C889.499 500.599 895.251 494.893 898.87 487.86L878.72 484.47L900.94 483.17Z" fill="#3099D3"/>
<g opacity="0.1">
<path opacity="0.1" d="M869.81 492.74C862.37 482.92 857.81 471.29 852.56 460.13C850.452 455.549 848.092 451.089 845.49 446.77L841.55 442.18C840.89 442.74 840.23 443.32 839.55 443.93C836.304 443.404 833.002 443.307 829.73 443.64L825.4 463.35L825.14 444.35C820.17 445.439 815.475 447.53 811.341 450.496C807.207 453.462 803.721 457.239 801.096 461.598C798.471 465.956 796.763 470.804 796.076 475.845C795.388 480.887 795.736 486.015 797.098 490.917C798.459 495.819 800.806 500.392 803.995 504.357C807.184 508.321 811.148 511.593 815.645 513.974C820.142 516.354 825.076 517.793 830.148 518.201C835.219 518.61 840.321 517.98 845.14 516.35C845.656 517.28 846.44 518.033 847.39 518.51C848.369 519.007 849.478 519.19 850.566 519.035C851.653 518.879 852.666 518.392 853.466 517.64C854.266 516.888 854.815 515.907 855.038 514.831C855.26 513.756 855.146 512.638 854.71 511.63C856.416 510.458 858.022 509.147 859.51 507.71C867.154 508.947 874.993 507.787 881.95 504.39C877.306 501.181 873.207 497.248 869.81 492.74V492.74Z" fill="#EAF5FB"/>
</g>
<path opacity="0.1" d="M738.06 450.54C738.472 449.724 738.669 448.817 738.63 447.904C738.592 446.991 738.32 446.104 737.84 445.326C737.36 444.549 736.689 443.907 735.891 443.463C735.093 443.019 734.194 442.787 733.28 442.79C731.764 434.753 727.654 427.436 721.58 421.96C722.559 418.142 722.93 414.193 722.68 410.26L703.03 406.91L722.11 405.71C721.767 403.918 721.296 402.153 720.7 400.43C721.443 399.918 722.048 399.231 722.46 398.43C722.941 397.474 723.125 396.395 722.987 395.334C722.849 394.273 722.396 393.277 721.687 392.476C720.977 391.675 720.043 391.105 719.007 390.84C717.97 390.575 716.877 390.627 715.87 390.99C710.817 383.849 703.422 378.705 694.97 376.45C686.518 374.195 677.543 374.973 669.605 378.648C661.666 382.323 655.266 388.663 651.517 396.566C647.767 404.469 646.905 413.437 649.08 421.91C647.923 422.398 646.979 423.285 646.42 424.41C645.93 425.378 645.746 426.473 645.893 427.548C646.041 428.624 646.513 429.629 647.246 430.429C647.979 431.23 648.939 431.788 649.997 432.029C651.056 432.27 652.162 432.183 653.17 431.78C655.088 435.001 657.478 437.916 660.26 440.43C658.235 448.327 658.846 456.671 662 464.19L688.35 457.35L664.85 469.71C669.005 476.312 675.12 481.451 682.339 484.407C689.559 487.364 697.522 487.99 705.114 486.199C712.707 484.407 719.55 480.287 724.686 474.415C729.822 468.543 732.995 461.213 733.76 453.45C734.665 453.371 735.536 453.063 736.288 452.554C737.041 452.044 737.651 451.351 738.06 450.54V450.54Z" fill="#3099D3"/>
<path opacity="0.1" d="M738.06 450.54C738.473 449.725 738.669 448.817 738.63 447.905C738.592 446.992 738.32 446.104 737.84 445.327C737.36 444.549 736.689 443.908 735.891 443.464C735.093 443.019 734.194 442.788 733.28 442.79C731.765 434.754 727.654 427.436 721.58 421.96C721.74 421.33 721.88 420.71 722 420.08C721.303 420.586 720.656 421.158 720.07 421.79C716.52 425.68 714.7 430.91 711.19 434.84C707.05 439.48 700.85 441.9 694.66 442.55C688.47 443.2 682.24 442.25 676.13 441.06C671.07 440.06 665.94 438.9 660.81 439.39C660.31 439.39 659.81 439.5 659.35 439.58C659.65 439.87 659.95 440.16 660.26 440.44C658.235 448.338 658.846 456.681 662 464.2L688.35 457.35L664.85 469.71C669.005 476.313 675.12 481.452 682.34 484.408C689.559 487.364 697.522 487.991 705.114 486.199C712.707 484.408 719.55 480.288 724.686 474.416C729.822 468.544 732.995 461.214 733.76 453.45C734.666 453.372 735.536 453.063 736.289 452.554C737.041 452.045 737.651 451.351 738.06 450.54V450.54Z" fill="#EAF5FB"/>
</g>
<g opacity="0.1">
<path opacity="0.1" d="M55.4904 511.24C56.7704 507.35 61.9604 505.56 67.0804 507.24C67.8168 507.481 68.5297 507.789 69.2104 508.16C69.5404 508.07 69.8804 507.99 70.2104 507.93C69.9294 506.813 69.8215 505.659 69.8904 504.51C68.1328 503.321 66.7079 501.703 65.7506 499.81C64.7934 497.916 64.3355 495.81 64.4204 493.69C62.6475 492.523 61.2182 490.904 60.2804 489C59.3031 487.113 58.8442 485.001 58.9504 482.88C57.1787 481.707 55.75 480.085 54.8104 478.18C52.3504 473.3 53.3504 467.81 57.1004 465.91C60.8504 464.01 65.8704 466.46 68.3404 471.34C69.3159 473.23 69.7715 475.345 69.6604 477.47C71.4227 478.651 72.8514 480.266 73.8094 482.159C74.7673 484.052 75.2222 486.16 75.1304 488.28C76.8921 489.464 78.3202 491.081 79.2779 492.976C80.2357 494.87 80.6911 496.979 80.6004 499.1C82.3627 500.281 83.7914 501.896 84.7494 503.789C85.7073 505.682 86.1622 507.79 86.0704 509.91C87.8458 511.081 89.278 512.703 90.2204 514.61C90.67 515.532 91.0058 516.506 91.2204 517.51C91.8364 516.603 92.5886 515.797 93.4504 515.12C93.5532 514.349 93.7272 513.589 93.9704 512.85C95.6604 507.73 100.17 504.61 104.06 505.85C107.95 507.09 109.73 512.32 108.06 517.44C107.37 519.638 106.044 521.583 104.25 523.03C104.146 523.797 103.972 524.554 103.73 525.29C102.91 528.004 101.081 530.301 98.6204 531.71C98.8133 532.364 98.9537 533.033 99.0404 533.71C100.073 534.701 100.928 535.861 101.57 537.14C102.225 538.416 102.651 539.797 102.83 541.22C103.867 542.21 104.726 543.37 105.37 544.65C106.023 545.926 106.45 547.307 106.63 548.73C107.669 549.721 108.528 550.885 109.17 552.17C111.64 557.05 110.62 562.55 106.89 564.43C103.16 566.31 98.1204 563.89 95.6504 559C94.9991 557.722 94.5729 556.342 94.3904 554.92C92.3069 552.921 90.9666 550.272 90.5904 547.41C88.5069 545.411 87.1666 542.762 86.7904 539.9C85.7548 538.909 84.8958 537.749 84.2504 536.47C83.6036 535.19 83.1777 533.811 82.9904 532.39C81.9579 531.399 81.1023 530.239 80.4604 528.96C79.8061 527.683 79.3797 526.303 79.2004 524.88C78.5566 524.28 77.9829 523.609 77.4904 522.88C75.4329 523.3 73.3008 523.169 71.3104 522.5C70.5712 522.253 69.8551 521.942 69.1704 521.57C66.9463 522.16 64.5969 522.077 62.4204 521.33C57.3504 519.64 54.2204 515.13 55.4904 511.24Z" fill="#99999F"/>
<g opacity="0.1">
<path opacity="0.1" d="M64.5205 495.912C65.0507 496.435 65.6338 496.9 66.2605 497.302C66.1758 498.738 66.3659 500.177 66.8205 501.542C66.4187 500.997 66.0641 500.418 65.7605 499.812C65.1351 498.589 64.7161 497.272 64.5205 495.912V495.912Z" fill="#EAF5FB"/>
<path opacity="0.1" d="M59.0508 485.111C59.5837 485.628 60.1665 486.09 60.7908 486.491C60.7068 487.931 60.8968 489.373 61.3508 490.741C60.1395 489.079 59.3502 487.147 59.0508 485.111V485.111Z" fill="#EAF5FB"/>
<path opacity="0.1" d="M71.4804 481.081C71.528 480.34 71.5012 479.597 71.4004 478.861C72.378 479.827 73.192 480.945 73.8104 482.171C74.1123 482.777 74.3664 483.406 74.5704 484.051C73.7371 482.875 72.6886 481.867 71.4804 481.081V481.081Z" fill="#EAF5FB"/>
<path opacity="0.1" d="M106.181 546.542C105.744 545.929 105.248 545.359 104.701 544.842C104.609 544.164 104.462 543.495 104.261 542.842C104.695 543.429 105.079 544.051 105.411 544.702C105.714 545.294 105.972 545.91 106.181 546.542V546.542Z" fill="#EAF5FB"/>
<path opacity="0.1" d="M102.35 539.032C101.913 538.419 101.417 537.85 100.87 537.332C100.789 536.654 100.648 535.985 100.45 535.332C101.274 536.448 101.909 537.691 102.33 539.012L102.35 539.032Z" fill="#EAF5FB"/>
<path opacity="0.1" d="M70.0003 506.75C70.5253 507.269 71.1054 507.728 71.7304 508.12C71.6556 509.27 71.7636 510.424 72.0503 511.54C71.7133 511.6 71.3795 511.677 71.0503 511.77C70.3654 511.401 69.6493 511.094 68.9103 510.85C63.7903 509.17 58.6003 510.96 57.3303 514.85C57.0121 515.818 56.9534 516.853 57.1603 517.85C56.3376 516.985 55.7525 515.922 55.4616 514.764C55.1708 513.605 55.1841 512.392 55.5003 511.24C56.7803 507.35 61.9704 505.56 67.0904 507.24C67.8268 507.482 68.5397 507.79 69.2203 508.16C69.5503 508.07 69.8903 507.99 70.2203 507.93C70.1242 507.542 70.0507 507.148 70.0003 506.75V506.75Z" fill="#EAF5FB"/>
<path opacity="0.1" d="M108.061 550.311C108.497 550.9 108.882 551.525 109.211 552.181C109.516 552.786 109.773 553.415 109.981 554.061C109.543 553.444 109.048 552.872 108.501 552.351C108.411 551.659 108.264 550.977 108.061 550.311V550.311Z" fill="#EAF5FB"/>
<path opacity="0.1" d="M76.9501 491.911C76.9979 491.171 76.9711 490.427 76.8701 489.691C77.8501 490.655 78.6643 491.773 79.2801 493.001C79.582 493.604 79.8361 494.229 80.0401 494.871C79.2065 493.698 78.158 492.694 76.9501 491.911V491.911Z" fill="#EAF5FB"/>
<path opacity="0.1" d="M84.8607 536.011C84.9543 536.758 85.1184 537.495 85.3507 538.211C84.5174 537.069 83.8819 535.794 83.4707 534.441C83.8862 535.005 84.3514 535.531 84.8607 536.011V536.011Z" fill="#EAF5FB"/>
<path opacity="0.1" d="M92.4503 551.032C92.5512 551.779 92.7185 552.515 92.9503 553.232C92.5485 552.686 92.1939 552.108 91.8903 551.502C91.5614 550.859 91.2871 550.19 91.0703 549.502C91.4891 550.048 91.9506 550.559 92.4503 551.032V551.032Z" fill="#EAF5FB"/>
<path opacity="0.1" d="M88.6605 543.522C88.7541 544.269 88.9182 545.006 89.1505 545.722C88.7522 545.174 88.3978 544.596 88.0905 543.992C87.7604 543.35 87.486 542.681 87.2705 541.992C87.6879 542.542 88.153 543.054 88.6605 543.522V543.522Z" fill="#EAF5FB"/>
<path opacity="0.1" d="M81.0607 528.491C81.1532 529.241 81.3173 529.981 81.5507 530.701C81.1715 530.152 80.8371 529.573 80.5507 528.971C80.2154 528.33 79.9377 527.661 79.7207 526.971C80.1202 527.517 80.5688 528.026 81.0607 528.491V528.491Z" fill="#EAF5FB"/>
<path opacity="0.1" d="M105.93 509.501C102.04 508.221 97.5305 511.341 95.8505 516.501C95.6073 517.24 95.4332 518 95.3305 518.771C94.4656 519.444 93.71 520.247 93.0905 521.151C92.8584 520.146 92.5058 519.172 92.0405 518.251C91.8705 517.911 91.6805 517.581 91.4805 517.251C92.0481 516.463 92.721 515.756 93.4805 515.151C93.5832 514.38 93.7573 513.62 94.0005 512.881C95.6905 507.761 100.2 504.641 104.09 505.881C105.206 506.309 106.192 507.019 106.952 507.94C107.713 508.862 108.222 509.965 108.43 511.141C107.751 510.39 106.89 509.825 105.93 509.501V509.501Z" fill="#EAF5FB"/>
<path opacity="0.1" d="M87.8905 513.531C87.9381 512.79 87.9113 512.046 87.8105 511.311C88.7905 512.274 89.6047 513.392 90.2205 514.621C90.5224 515.226 90.7765 515.855 90.9805 516.501C90.1498 515.322 89.1009 514.314 87.8905 513.531V513.531Z" fill="#EAF5FB"/>
<path opacity="0.1" d="M82.4208 502.712C82.4683 501.971 82.4415 501.228 82.3408 500.492C83.3162 501.459 84.1298 502.577 84.7508 503.802C85.0527 504.408 85.3068 505.037 85.5108 505.682C84.6775 504.506 83.629 503.498 82.4208 502.712V502.712Z" fill="#EAF5FB"/>
<path opacity="0.1" d="M96.2501 558.542C96.3461 559.293 96.5135 560.033 96.7501 560.752C96.3504 560.201 95.9959 559.619 95.6901 559.012C95.3612 558.369 95.0869 557.7 94.8701 557.012C95.2889 557.557 95.7504 558.069 96.2501 558.542Z" fill="#EAF5FB"/>
</g>
<path opacity="0.1" d="M48.0201 461.252C46.2472 460.085 44.8179 458.466 43.8801 456.562C41.4101 451.672 42.4301 446.182 46.1601 444.292C49.8901 442.402 54.9301 444.832 57.4001 449.722C58.3771 451.608 58.8328 453.72 58.7201 455.842C60.4818 457.026 61.9099 458.643 62.8677 460.537C63.8254 462.432 64.2808 464.541 64.1901 466.662C65.9642 467.83 67.3963 469.448 68.3401 471.352C68.6402 471.951 68.8943 472.573 69.1001 473.212C67.7754 471.321 65.8683 469.916 63.6701 469.212C63.4252 469.993 63.0271 470.717 62.4991 471.343C61.971 471.968 61.3235 472.482 60.5945 472.855C59.8655 473.227 59.0696 473.45 58.2532 473.512C57.4369 473.573 56.6165 473.471 55.8401 473.212C55.0987 475.4 55.0987 477.773 55.8401 479.962C55.4644 479.417 55.1301 478.846 54.8401 478.252C53.8629 476.365 53.4039 474.253 53.5101 472.132C51.7505 470.945 50.324 469.328 49.3664 467.434C48.4089 465.54 47.9523 463.432 48.0401 461.312L48.0201 461.252Z" fill="#99999F"/>
<path opacity="0.1" d="M-12.0998 391.912C-13.6167 391.202 -15.0834 390.39 -16.4898 389.482L-0.209763 377.582L-19.3498 387.432C-23.2196 384.354 -26.4209 380.52 -28.7577 376.163C-31.0944 371.806 -32.5175 367.018 -32.9398 362.092L-0.399765 362.432L-33.0098 356.972C-32.729 351.997 -31.4267 347.133 -29.1842 342.684C-26.9417 338.234 -23.8068 334.294 -19.9751 331.109C-16.1433 327.924 -11.6967 325.562 -6.91226 324.17C-2.12783 322.779 2.89191 322.388 7.8342 323.021C12.7765 323.654 17.5354 325.298 21.8146 327.851C26.0937 330.404 29.8013 333.81 32.7063 337.858C35.6114 341.906 37.6517 346.51 38.7001 351.381C39.7486 356.252 39.7826 361.287 38.8002 366.172C41.1623 367.264 43.4016 368.605 45.4802 370.172L28.4802 393.812L48.8902 373.132C53.1971 377.362 56.3815 382.599 58.1554 388.37C59.9294 394.141 60.2369 400.262 59.0502 406.182C65.2244 409.057 70.4646 413.613 74.1716 419.326C77.8786 425.04 79.9029 431.682 80.0129 438.492C80.1228 445.302 78.3141 452.006 74.7935 457.836C71.2728 463.667 66.1825 468.389 60.1044 471.463C54.0264 474.536 47.206 475.837 40.4233 475.217C33.6406 474.597 27.1693 472.081 21.7494 467.956C16.3295 463.831 12.1799 458.264 9.77502 451.892C7.37014 445.519 6.80708 438.599 8.15024 431.922C0.781162 428.487 -5.22084 422.677 -8.89293 415.424C-12.565 408.17 -13.6943 399.894 -12.0998 391.922V391.912Z" fill="#3099D3"/>
<path opacity="0.1" d="M55.8502 382.69C59.5383 389.948 60.6659 398.24 59.0501 406.22C65.2243 409.096 70.4645 413.651 74.1715 419.365C77.8786 425.079 79.9028 431.72 80.0128 438.53C80.1228 445.341 78.314 452.044 74.7934 457.875C71.2728 463.705 66.1824 468.427 60.1043 471.501C54.0263 474.575 47.2059 475.876 40.4232 475.256C33.6405 474.635 27.1692 472.119 21.7493 467.994C16.3295 463.869 12.1798 458.302 9.77494 451.93C7.37005 445.558 6.807 438.637 8.15015 431.96C1.02015 428.65 54.0202 379.06 55.8502 382.69Z" fill="#EAF5FB"/>
<path opacity="0.1" d="M14.9701 330.171C17.9469 330.171 20.3601 327.757 20.3601 324.781C20.3601 321.804 17.9469 319.391 14.9701 319.391C11.9933 319.391 9.58008 321.804 9.58008 324.781C9.58008 327.757 11.9933 330.171 14.9701 330.171Z" fill="#3099D3"/>
<path opacity="0.1" d="M10.1205 456.382C13.0973 456.382 15.5105 453.968 15.5105 450.992C15.5105 448.015 13.0973 445.602 10.1205 445.602C7.14365 445.602 4.73047 448.015 4.73047 450.992C4.73047 453.968 7.14365 456.382 10.1205 456.382Z" fill="#3099D3"/>
<path opacity="0.1" d="M10.1205 456.382C13.0973 456.382 15.5105 453.968 15.5105 450.992C15.5105 448.015 13.0973 445.602 10.1205 445.602C7.14365 445.602 4.73047 448.015 4.73047 450.992C4.73047 453.968 7.14365 456.382 10.1205 456.382Z" fill="#EAF5FB"/>
<path opacity="0.1" d="M59.85 399.53C62.8268 399.53 65.24 397.117 65.24 394.14C65.24 391.163 62.8268 388.75 59.85 388.75C56.8731 388.75 54.46 391.163 54.46 394.14C54.46 397.117 56.8731 399.53 59.85 399.53Z" fill="#3099D3"/>
<path opacity="0.1" d="M59.85 399.53C62.8268 399.53 65.24 397.117 65.24 394.14C65.24 391.163 62.8268 388.75 59.85 388.75C56.8731 388.75 54.46 391.163 54.46 394.14C54.46 397.117 56.8731 399.53 59.85 399.53Z" fill="#EAF5FB"/>
<path opacity="0.1" d="M65.5997 482.721C69.1797 480.911 70.2597 475.791 68.1697 471.061C68.2797 471.261 68.3897 471.451 68.4897 471.651C70.9597 476.541 69.9397 482.031 66.1997 483.921C62.4597 485.811 57.4397 483.381 54.9697 478.491C54.8697 478.291 54.7697 478.09 54.6797 477.88C57.2497 482.37 62.0197 484.531 65.5997 482.721Z" fill="#EAF5FB"/>
<path opacity="0.1" d="M70.91 493.24C74.49 491.43 75.58 486.3 73.49 481.58C73.6 481.77 73.71 481.97 73.81 482.17C76.28 487.06 75.26 492.55 71.52 494.44C67.78 496.33 62.76 493.9 60.29 489.01C60.18 488.81 60.09 488.6 60 488.4C62.57 492.91 67.35 495.05 70.91 493.24Z" fill="#EAF5FB"/>
<path opacity="0.1" d="M76.2303 503.75C79.8103 501.94 80.9003 496.82 78.8003 492.09C78.9203 492.29 79.0203 492.48 79.1303 492.69C81.6003 497.57 80.5703 503.07 76.8403 504.95C73.1103 506.83 68.0803 504.41 65.6103 499.52C65.5003 499.32 65.4103 499.12 65.3203 498.91C67.8803 503.4 72.6503 505.56 76.2303 503.75Z" fill="#EAF5FB"/>
<path opacity="0.1" d="M81.5497 514.271C85.1297 512.461 86.2197 507.341 84.1197 502.611C84.2297 502.801 84.3397 503.001 84.4397 503.201C86.9197 508.091 85.8897 513.581 82.1597 515.471C78.4297 517.361 73.3897 514.931 70.9197 510.041C70.8197 509.841 70.7296 509.631 70.6396 509.431C73.1996 513.911 77.9697 516.081 81.5497 514.271Z" fill="#EAF5FB"/>
<path opacity="0.1" d="M86.8702 524.781C90.4502 522.971 91.5302 517.851 89.4402 513.131C89.5502 513.321 89.6602 513.521 89.7602 513.721C92.2302 518.611 91.2102 524.101 87.4802 525.991C83.7502 527.881 78.7102 525.441 76.2402 520.561C76.1402 520.351 76.0502 520.151 75.9502 519.951C78.5202 524.431 83.2902 526.591 86.8702 524.781Z" fill="#EAF5FB"/>
<path opacity="0.1" d="M92.1895 535.301C95.7695 533.491 96.8495 528.371 94.7595 523.641C94.8695 523.841 94.9795 524.031 95.0795 524.231C97.5495 529.121 96.5295 534.611 92.7995 536.501C89.0695 538.391 84.0295 535.961 81.5595 531.071C81.4595 530.871 81.3595 530.671 81.2695 530.461C83.8395 534.911 88.6095 537.111 92.1895 535.301Z" fill="#EAF5FB"/>
<path opacity="0.1" d="M97.5098 545.82C101.08 544.01 102.17 538.88 100.08 534.16C100.19 534.35 100.3 534.55 100.4 534.75C102.87 539.64 101.85 545.13 98.1098 547.02C94.3698 548.91 89.3498 546.47 86.8798 541.59C86.7798 541.38 86.6798 541.18 86.5898 540.98C89.1598 545.46 93.9298 547.63 97.5098 545.82Z" fill="#EAF5FB"/>
<path opacity="0.1" d="M102.82 556.33C106.4 554.52 107.49 549.4 105.39 544.67C105.51 544.87 105.61 545.06 105.72 545.27C108.19 550.15 107.16 555.65 103.43 557.53C99.7002 559.41 94.6702 556.99 92.2002 552.1C92.0902 551.9 92.0002 551.7 91.9102 551.49C94.4802 555.98 99.2402 558.14 102.82 556.33Z" fill="#EAF5FB"/>
<path opacity="0.1" d="M106.35 563.24C109.93 561.43 111.01 556.31 108.92 551.58C109.03 551.78 109.14 551.97 109.24 552.18C111.71 557.06 110.69 562.56 106.96 564.44C103.23 566.32 98.1897 563.9 95.7197 559.01C95.6197 558.81 95.5197 558.61 95.4297 558.4C97.9697 562.91 102.74 565.05 106.35 563.24Z" fill="#EAF5FB"/>
<path opacity="0.1" d="M10.2098 516.441C9.65441 514.851 9.31799 513.192 9.20981 511.511C8.84004 511.51 8.47451 511.433 8.13604 511.284C7.79757 511.135 7.49344 510.918 7.24264 510.646C6.99183 510.374 6.79973 510.054 6.67835 509.704C6.55697 509.355 6.50891 508.985 6.53716 508.616C6.56542 508.247 6.66938 507.888 6.84257 507.562C7.01575 507.235 7.25444 506.947 7.54372 506.717C7.833 506.487 8.16666 506.318 8.52387 506.223C8.88108 506.127 9.25416 506.106 9.61982 506.161C10.2198 503.436 11.4185 500.878 13.129 498.673C14.8396 496.468 17.0191 494.67 19.5098 493.411C19.1876 492.774 19.1319 492.034 19.3551 491.355C19.5783 490.676 20.062 490.114 20.6998 489.791C21.3377 489.469 22.0774 489.414 22.7563 489.637C23.4352 489.86 23.9976 490.344 24.3198 490.981C24.4369 491.207 24.5179 491.45 24.5598 491.701C27.5188 491.158 30.5647 491.328 33.4447 492.198C36.3247 493.068 38.9559 494.611 41.1198 496.701C42.7727 496.431 44.4544 496.384 46.1198 496.561L48.2998 506.481L48.3498 496.911C50.8293 497.485 53.167 498.554 55.2221 500.055C57.2771 501.556 59.007 503.457 60.3074 505.645C61.6078 507.832 62.4518 510.26 62.7886 512.783C63.1253 515.305 62.9477 517.87 62.2667 520.322C61.5856 522.774 60.4151 525.063 58.8257 527.05C57.2363 529.038 55.2609 530.683 53.0186 531.886C50.7763 533.09 48.3135 533.827 45.7788 534.053C43.244 534.279 40.6897 533.989 38.2698 533.201C38.0066 533.666 37.6141 534.045 37.1398 534.291C36.6455 534.541 36.0866 534.632 35.5385 534.554C34.9905 534.475 34.48 534.229 34.0762 533.851C33.6724 533.472 33.3947 532.978 33.2809 532.436C33.167 531.894 33.2225 531.331 33.4398 530.821C32.5824 530.223 31.7762 529.554 31.0298 528.821C27.0964 529.459 23.0622 528.834 19.5053 527.038C15.9485 525.242 13.0516 522.365 11.2298 518.821L21.3798 517.111L10.2098 516.441Z" fill="#3099D3"/>
<g opacity="0.1">
<path opacity="0.1" d="M25.8897 521.261C29.6397 516.261 31.9397 510.461 34.5797 504.841C35.6369 502.528 36.8255 500.278 38.1397 498.101L40.1397 495.791C40.4797 496.081 40.8097 496.371 41.1397 496.671C42.7926 496.4 44.4743 496.353 46.1397 496.531L48.3197 506.451L48.3497 496.911C50.8292 497.484 53.1669 498.553 55.222 500.054C57.2771 501.555 59.0069 503.457 60.3073 505.644C61.6077 507.832 62.4517 510.26 62.7885 512.783C63.1252 515.305 62.9477 517.87 62.2666 520.322C61.5855 522.774 60.415 525.062 58.8256 527.05C57.2362 529.037 55.2608 530.682 53.0185 531.886C50.7762 533.089 48.3135 533.826 45.7787 534.052C43.2439 534.278 40.6896 533.989 38.2697 533.201C38.0065 533.666 37.614 534.045 37.1397 534.291C36.6455 534.54 36.0865 534.632 35.5385 534.553C34.9905 534.474 34.48 534.229 34.0761 533.85C33.6723 533.471 33.3946 532.978 33.2808 532.436C33.167 531.894 33.2224 531.33 33.4397 530.821C32.5823 530.222 31.7762 529.553 31.0297 528.821C27.1777 529.439 23.2289 528.856 19.7197 527.151C22.08 525.532 24.1634 523.544 25.8897 521.261Z" fill="#EAF5FB"/>
</g>
<path opacity="0.1" d="M92.2602 500C92.1002 499.685 92.0041 499.341 91.9774 498.989C91.9507 498.637 91.9939 498.283 92.1045 497.947C92.215 497.612 92.3909 497.302 92.6218 497.034C92.8528 496.767 93.1343 496.548 93.4502 496.39C93.8277 496.197 94.2461 496.097 94.6702 496.1C95.433 492.05 97.5019 488.362 100.56 485.6C100.066 483.678 99.88 481.69 100.01 479.71L109.9 478.05L100.29 477.44C100.464 476.537 100.705 475.648 101.01 474.78C100.633 474.529 100.326 474.184 100.12 473.78C99.8797 473.298 99.7887 472.756 99.859 472.222C99.9292 471.688 100.157 471.187 100.514 470.784C100.871 470.381 101.341 470.094 101.862 469.959C102.383 469.825 102.933 469.85 103.44 470.03C105.206 467.517 107.566 465.48 110.31 464.1C113.542 462.46 117.178 461.787 120.783 462.161C124.387 462.536 127.807 463.942 130.633 466.211C133.459 468.481 135.57 471.517 136.713 474.956C137.857 478.395 137.984 482.09 137.08 485.6C137.55 485.801 137.953 486.133 138.242 486.555C138.53 486.977 138.692 487.473 138.709 487.984C138.726 488.495 138.596 489 138.336 489.441C138.076 489.881 137.696 490.238 137.24 490.47C136.898 490.643 136.524 490.742 136.141 490.759C135.758 490.776 135.376 490.712 135.02 490.57C134.055 492.188 132.852 493.651 131.45 494.91C132.475 498.898 132.17 503.111 130.58 506.91L117.35 503.43L129.18 509.66C127.404 512.494 124.906 514.805 121.943 516.356C118.979 517.906 115.656 518.641 112.315 518.484C108.974 518.328 105.735 517.285 102.929 515.464C100.124 513.643 97.8532 511.108 96.3502 508.12C95.3038 506.04 94.6463 503.786 94.4102 501.47C93.9561 501.429 93.5201 501.272 93.1438 501.015C92.7674 500.758 92.4632 500.408 92.2602 500V500Z" fill="#3099D3"/>
<path opacity="0.1" d="M92.2602 500C92.1002 499.685 92.0041 499.342 91.9774 498.989C91.9507 498.637 91.9939 498.283 92.1045 497.948C92.215 497.612 92.3909 497.302 92.6218 497.035C92.8528 496.767 93.1343 496.548 93.4502 496.39C93.8277 496.197 94.2461 496.097 94.6702 496.1C95.433 492.05 97.5019 488.362 100.56 485.6C100.48 485.29 100.41 484.97 100.35 484.66C100.709 484.916 101.044 485.204 101.35 485.52C103.14 487.52 104.06 490.11 105.82 492.09C108.025 494.365 110.99 495.75 114.15 495.98C117.28 496.196 120.425 495.943 123.48 495.23C126 494.581 128.6 494.295 131.2 494.38L131.94 494.48L131.48 494.91C132.505 498.898 132.2 503.112 130.61 506.91L117.35 503.43L129.18 509.66C127.404 512.494 124.906 514.805 121.943 516.356C118.979 517.907 115.656 518.641 112.315 518.485C108.974 518.328 105.735 517.285 102.929 515.464C100.124 513.643 97.8532 511.108 96.3502 508.12C95.3038 506.04 94.6463 503.786 94.4102 501.47C93.9561 501.429 93.5201 501.272 93.1438 501.015C92.7674 500.758 92.4632 500.408 92.2602 500V500Z" fill="#EAF5FB"/>
</g>
<path opacity="0.1" d="M312.35 51.9109C308.397 51.1604 304.309 51.6061 300.61 53.1909C298.392 54.1797 295.99 54.6907 293.56 54.6907C291.131 54.6907 288.729 54.1797 286.51 53.1909C283.888 52.0414 281.047 51.4755 278.184 51.5325C275.321 51.5895 272.505 52.2679 269.93 53.5209C268.46 54.2976 266.823 54.7059 265.16 54.7109C258.44 54.7109 252.85 47.9409 251.69 39.0109C253.03 38.0288 254.171 36.8002 255.05 35.3909C258.99 29.0409 265.05 24.9609 271.94 24.9609C278.83 24.9609 284.83 28.9609 288.77 35.2709C289.948 37.1659 291.592 38.7261 293.547 39.8014C295.501 40.8767 297.7 41.431 299.93 41.4109H300.11C305.41 41.3809 310.04 45.6709 312.35 51.9109Z" fill="#3099D3"/>
<path opacity="0.1" d="M332.77 23.91L321.91 30.8L328.5 18.8C326.632 17.3109 324.32 16.4874 321.93 16.46H321.76C321.007 16.4692 320.254 16.4123 319.51 16.29L315.82 18.63L317.4 15.76C314.8 14.8551 312.548 13.1592 310.96 10.91L304.35 15.04L308.51 7.47C304.66 2.84 299.46 0 293.75 0C286.9 0 280.75 4.08 276.85 10.43C275.683 12.3267 274.035 13.8809 272.074 14.9347C270.112 15.9884 267.906 16.5044 265.68 16.43H265.35C257.79 16.43 251.65 25 251.65 35.59C251.65 46.18 257.79 54.74 265.35 54.74C267.013 54.735 268.65 54.3266 270.12 53.55C272.695 52.296 275.512 51.6177 278.375 51.5625C281.238 51.5072 284.079 52.0762 286.7 53.23C288.92 54.2157 291.322 54.725 293.75 54.725C296.179 54.725 298.581 54.2157 300.8 53.23C303.401 52.1007 306.215 51.5448 309.05 51.6C311.885 51.6553 314.675 52.3203 317.23 53.55C318.689 54.3058 320.307 54.7035 321.95 54.71C329.52 54.71 335.65 46.14 335.65 35.56C335.677 31.4973 334.687 27.4924 332.77 23.91V23.91Z" fill="#3099D3"/>
<path opacity="0.1" d="M86.3504 190.451C80.7036 189.382 74.8666 190.016 69.5804 192.271C66.4081 193.677 62.9752 194.399 59.5051 194.391C56.0351 194.382 52.6057 193.643 49.4404 192.221C45.695 190.578 41.6375 189.77 37.5487 189.851C33.46 189.932 29.4377 190.901 25.7604 192.691C23.6573 193.799 21.3175 194.382 18.9404 194.391C9.34043 194.391 1.35043 184.721 -0.30957 171.961C1.60875 170.563 3.23867 168.807 4.49043 166.791C10.1204 157.721 18.8404 151.891 28.6304 151.891C38.4204 151.891 47.0304 157.651 52.6304 166.621C54.3134 169.339 56.6716 171.576 59.4755 173.113C62.2793 174.65 65.4333 175.434 68.6304 175.391H68.8804C76.4604 175.381 83.0804 181.511 86.3504 190.451Z" fill="#3099D3"/>
<path opacity="0.1" d="M115.55 150.4L100.03 160.24L109.45 143.11C106.78 140.979 103.476 139.8 100.06 139.76H99.8099C98.7315 139.776 97.6539 139.695 96.5899 139.52L91.3498 142.91L93.6098 138.81C89.8808 137.507 86.6602 135.056 84.4098 131.81L74.9898 137.81L80.9199 126.91C75.4099 120.3 67.9898 116.25 59.8298 116.25C50.0398 116.25 41.3198 122.07 35.6898 131.14C34.0223 133.862 31.6629 136.092 28.8522 137.605C26.0415 139.118 22.8799 139.858 19.6898 139.75H19.1598C8.34984 139.75 -0.410156 152 -0.410156 167.12C-0.410156 182.24 8.34984 194.49 19.1598 194.49C21.5385 194.484 23.8796 193.897 25.9799 192.78C29.6579 190.992 33.6805 190.025 37.7692 189.946C41.858 189.866 45.9152 190.676 49.6598 192.32C52.8252 193.742 56.2545 194.481 59.7245 194.49C63.1946 194.499 66.6275 193.776 69.7998 192.37C73.5169 190.757 77.5375 189.962 81.5888 190.04C85.6401 190.117 89.6273 191.065 93.2798 192.82C95.3602 193.909 97.6718 194.482 100.02 194.49C110.83 194.49 119.59 182.23 119.59 167.12C119.665 161.296 118.276 155.547 115.55 150.4V150.4Z" fill="#3099D3"/>
<path opacity="0.1" d="M713.97 90.9102C717.923 90.1603 722.011 90.6059 725.71 92.1902C727.927 93.1793 730.327 93.6905 732.755 93.6905C735.182 93.6905 737.583 93.1793 739.8 92.1902C742.422 91.0406 745.263 90.4747 748.126 90.5317C750.989 90.5887 753.805 91.2672 756.38 92.5202C757.851 93.2957 759.487 93.7039 761.15 93.7102C767.87 93.7102 773.47 86.9402 774.63 78.0102C773.288 77.0306 772.147 75.8015 771.27 74.3902C767.35 68.0202 761.22 63.9102 754.35 63.9102C747.48 63.9102 741.47 67.9102 737.53 74.2202C736.355 76.1236 734.708 77.6916 732.75 78.7725C730.791 79.8533 728.587 80.4105 726.35 80.3902H726.18C720.86 80.3802 716.22 84.6702 713.97 90.9102Z" fill="#3099D3"/>
<path opacity="0.1" d="M693.49 62.9108L704.35 69.7808L697.75 57.7808C699.62 56.293 701.931 55.4697 704.32 55.4408H704.5C705.254 55.4494 706.006 55.3926 706.75 55.2708L710.43 57.6108L708.85 54.7408C711.469 53.851 713.742 52.1616 715.35 49.9108L721.94 54.0908L717.77 46.5208C721.63 41.8908 726.77 39.0508 732.54 39.0508C739.39 39.0508 745.54 43.1308 749.44 49.4808C750.606 51.3782 752.254 52.9329 754.216 53.9868C756.178 55.0407 758.384 55.5562 760.61 55.4808H760.97C768.54 55.4808 774.67 64.0508 774.67 74.6408C774.67 85.2308 768.54 93.7908 760.97 93.7908C759.307 93.7834 757.671 93.3752 756.2 92.6008C753.625 91.3468 750.809 90.6685 747.945 90.6133C745.082 90.558 742.241 91.127 739.62 92.2808C737.402 93.2663 735.002 93.7755 732.575 93.7755C730.148 93.7755 727.748 93.2663 725.53 92.2808C722.927 91.1513 720.112 90.5953 717.275 90.6505C714.439 90.7057 711.647 91.3709 709.09 92.6008C707.631 93.3577 706.013 93.7554 704.37 93.7608C696.81 93.7608 690.67 85.1908 690.67 74.6108C690.617 70.5363 691.586 66.5135 693.49 62.9108V62.9108Z" fill="#3099D3"/>
<path opacity="0.1" d="M581.63 776.881C645.143 776.881 696.63 767.927 696.63 756.881C696.63 745.835 645.143 736.881 581.63 736.881C518.117 736.881 466.63 745.835 466.63 756.881C466.63 767.927 518.117 776.881 581.63 776.881Z" fill="#3099D3"/>
<path d="M521.44 661.881L343.25 659.591L343.78 655.021L352.39 579.631H508.88L520.39 655.021L521.27 660.741L521.44 661.881Z" fill="#D0D2D5"/>
<path opacity="0.1" d="M521.27 660.74H432.35L343.25 659.59L343.78 655.02H520.39L521.27 660.74Z" fill="#EAF5FB"/>
<path d="M550 656.17H313.55V661.88H550V656.17Z" fill="#D0D2D5"/>
<path d="M775.59 126.83C775.603 122.89 774.052 119.105 771.277 116.308C768.502 113.51 764.73 111.929 760.79 111.91H100.47C98.5173 111.919 96.5855 112.313 94.7849 113.069C92.9843 113.825 91.3502 114.928 89.9759 116.315C88.6015 117.702 87.5139 119.347 86.7752 121.154C86.0364 122.962 85.6609 124.897 85.6701 126.85V527.1H775.59V126.83Z" fill="#99999F"/>
<path d="M85.6699 523.1V569.98C85.6699 573.905 87.2292 577.669 90.0047 580.445C92.7803 583.22 96.5447 584.78 100.47 584.78H760.79C764.715 584.78 768.48 583.22 771.255 580.445C774.031 577.669 775.59 573.905 775.59 569.98V523.1H85.6699Z" fill="#D0D2D5"/>
<path d="M750.461 137.01H114.23V496.82H750.461V137.01Z" fill="#EAF5FB"/>
<path d="M434.06 566.991C436.396 566.993 438.702 566.464 440.804 565.444C442.905 564.423 444.747 562.938 446.19 561.101C446.628 560.541 447.029 559.953 447.39 559.341L438.92 557.911L448.07 557.971C448.947 556.062 449.425 553.995 449.475 551.895C449.525 549.796 449.145 547.708 448.36 545.761L436.09 552.121L447.41 543.801C446.347 541.973 444.919 540.384 443.216 539.132C441.513 537.879 439.57 536.99 437.509 536.521C435.448 536.051 433.312 536.01 431.234 536.4C429.156 536.79 427.181 537.604 425.431 538.79C423.681 539.976 422.193 541.509 421.06 543.294C419.928 545.079 419.175 547.078 418.847 549.167C418.52 551.255 418.625 553.389 419.157 555.435C419.689 557.481 420.636 559.396 421.94 561.061V561.061C423.377 562.904 425.216 564.396 427.316 565.424C429.416 566.451 431.722 566.987 434.06 566.991V566.991Z" fill="#3099D3"/>
<path opacity="0.1" d="M449.48 584.77L520.57 656.169L509.66 584.77H449.48Z" fill="#EAF5FB"/>
<path opacity="0.1" d="M750.651 137.051H113.73V158.071H750.651V137.051Z" fill="#444053"/>
<path opacity="0.3" d="M526.19 140.711H335.45C335.13 140.711 334.87 140.971 334.87 141.291V152.921C334.87 153.241 335.13 153.501 335.45 153.501H526.19C526.51 153.501 526.77 153.241 526.77 152.921V141.291C526.77 140.971 526.51 140.711 526.19 140.711Z" fill="#3099D3"/>
<path d="M521.07 148.429H520.6L520.43 148.279C521.012 147.58 521.331 146.699 521.33 145.789C521.324 145.042 521.097 144.314 520.678 143.696C520.259 143.078 519.666 142.599 518.974 142.317C518.282 142.036 517.523 141.966 516.791 142.116C516.06 142.266 515.389 142.63 514.864 143.16C514.338 143.691 513.982 144.366 513.84 145.099C513.697 145.832 513.775 146.591 514.064 147.279C514.352 147.968 514.839 148.556 515.461 148.969C516.083 149.382 516.814 149.601 517.56 149.599C518.471 149.596 519.352 149.274 520.05 148.689L520.22 148.839V149.309L523.15 152.239L524.02 151.359L521.07 148.429ZM517.56 148.429C517.038 148.431 516.526 148.278 516.091 147.989C515.656 147.7 515.316 147.289 515.114 146.806C514.913 146.324 514.859 145.793 514.96 145.28C515.061 144.767 515.311 144.296 515.68 143.926C516.049 143.556 516.519 143.303 517.032 143.201C517.544 143.098 518.075 143.15 518.558 143.349C519.041 143.549 519.454 143.887 519.745 144.321C520.035 144.756 520.19 145.266 520.19 145.789C520.193 146.136 520.127 146.479 519.996 146.8C519.865 147.121 519.671 147.413 519.427 147.658C519.182 147.904 518.891 148.098 518.571 148.231C518.25 148.363 517.907 148.43 517.56 148.429V148.429Z" fill="#99999F"/>
<path opacity="0.8" d="M125.18 151.411C127.306 151.411 129.03 149.687 129.03 147.561C129.03 145.435 127.306 143.711 125.18 143.711C123.054 143.711 121.33 145.435 121.33 147.561C121.33 149.687 123.054 151.411 125.18 151.411Z" fill="#FA5959"/>
<path opacity="0.8" d="M135.77 151.411C137.896 151.411 139.62 149.687 139.62 147.561C139.62 145.435 137.896 143.711 135.77 143.711C133.644 143.711 131.92 145.435 131.92 147.561C131.92 149.687 133.644 151.411 135.77 151.411Z" fill="#FED253"/>
<path opacity="0.8" d="M146.37 151.411C148.496 151.411 150.22 149.687 150.22 147.561C150.22 145.435 148.496 143.711 146.37 143.711C144.243 143.711 142.52 145.435 142.52 147.561C142.52 149.687 144.243 151.411 146.37 151.411Z" fill="#8CCF4D"/>
<path d="M466.05 291.4C457.32 279.8 444.67 272.48 430.59 272.48C416.51 272.48 403.86 279.8 395.13 291.4C397.06 296.134 399.916 300.435 403.53 304.05C407.996 308.515 413.498 311.805 419.544 313.627C425.59 315.45 431.994 315.748 438.183 314.496C444.373 313.243 450.156 310.479 455.018 306.45C459.881 302.42 463.67 297.25 466.05 291.4V291.4Z" fill="#3099D3"/>
<path d="M388.76 297.19C389.308 297.587 389.898 297.923 390.52 298.19C397.22 311.74 411.1 322.11 427.03 322.98V387.23C414.98 386.51 405.33 380.44 397.22 370.97C396.52 371.5 396 371.98 395.52 372.43C394.847 373.068 394.376 373.89 394.168 374.793C393.96 375.697 394.023 376.642 394.35 377.51C394.79 378.705 394.904 379.996 394.681 381.25C394.458 382.504 393.905 383.676 393.079 384.645C392.253 385.615 391.185 386.348 389.982 386.768C388.78 387.188 387.488 387.282 386.238 387.038C384.988 386.794 383.825 386.222 382.869 385.381C381.913 384.539 381.198 383.459 380.797 382.25C380.396 381.041 380.324 379.747 380.588 378.501C380.852 377.256 381.443 376.102 382.3 375.16C382.558 374.877 382.839 374.616 383.14 374.38C383.313 374.222 383.505 374.084 383.71 373.97C384.81 369.99 387.42 366.4 391.66 363.11C386.888 354.955 383.969 345.85 383.11 336.44C382.492 336.446 381.874 336.486 381.26 336.56C380.426 336.672 379.639 337.011 378.985 337.54C378.33 338.069 377.834 338.768 377.55 339.56C377.088 340.788 376.299 341.867 375.269 342.679C374.238 343.49 373.004 344.005 371.702 344.166C370.4 344.327 369.078 344.128 367.881 343.592C366.683 343.056 365.655 342.202 364.909 341.123C364.162 340.044 363.724 338.782 363.643 337.472C363.563 336.162 363.842 334.855 364.451 333.693C365.06 332.531 365.975 331.557 367.098 330.878C368.221 330.199 369.508 329.84 370.82 329.84C371.111 329.845 371.401 329.865 371.69 329.9C372.764 329.127 373.956 328.533 375.22 328.14C377.688 327.368 380.254 326.954 382.84 326.91C383.095 320.239 384.356 313.645 386.58 307.35C384.964 306.432 383.441 305.36 382.03 304.15C380.655 302.922 379.528 301.442 378.71 299.79C378.277 298.955 377.614 298.261 376.8 297.79C376.173 297.413 375.601 296.952 375.1 296.42C374.211 295.462 373.601 294.279 373.335 292.999C373.069 291.719 373.157 290.391 373.59 289.158C374.023 287.925 374.785 286.833 375.793 286.001C376.801 285.169 378.017 284.627 379.31 284.435C380.603 284.243 381.924 284.408 383.13 284.911C384.336 285.415 385.382 286.238 386.155 287.292C386.928 288.347 387.398 289.592 387.515 290.894C387.633 292.196 387.392 293.505 386.82 294.68C387.268 295.653 387.931 296.511 388.76 297.19Z" fill="#3099D3"/>
<path d="M647 745.22C646.419 744.299 645.686 743.484 644.83 742.81C640.46 738.68 638.43 732.62 637.35 726.68C636.27 720.74 635.96 714.68 634.23 708.87C633.289 705.891 632.112 702.991 630.71 700.2C629.71 698.06 628.45 693.87 626.62 692.37C626.261 692.059 625.827 691.849 625.36 691.76C624.496 689.922 623.264 688.282 621.74 686.94C618.88 684.35 615.39 682.29 613.48 678.94C612.955 677.778 612.308 676.675 611.55 675.65C610.26 674.23 608.22 673.65 607.03 672.15C605.48 670.21 605.83 667.43 606.03 664.96C606.23 662.49 606.03 659.53 603.89 658.23C602.61 657.44 600.96 657.52 599.63 656.82C597.63 655.82 596.84 653.3 596.88 651.05C596.92 648.8 597.62 646.61 597.8 644.36C598.36 637.2 593.64 630.08 595.46 623.14C596.15 620.51 597.73 618.23 598.9 615.78C599.308 614.964 599.643 614.114 599.9 613.24C603.02 614.477 606.299 615.268 609.64 615.59C604.13 603.23 605.53 588.87 602.96 575.59L603.29 575.14C605.886 571.716 607.36 567.573 607.51 563.28C607.51 558.34 605.2 553.72 604.16 548.88C603.27 544.77 603.31 540.47 602.16 536.43C601.362 533.919 600.303 531.499 599 529.21C597.754 526.896 596.444 524.62 595.07 522.38C593.79 518.14 592.507 513.9 591.22 509.66C589.42 503.71 587.57 497.66 584.07 492.52C582.79 490.64 582.4 486.82 580.43 485.68C578.831 484.852 577.016 484.534 575.23 484.77C572.45 483.21 570.01 480.96 569.66 477.88C569.626 477.207 569.693 476.532 569.86 475.88H570.2C574.6 475.48 576.83 471.6 579.12 468.2C582.82 462.7 581.41 455.26 579.12 449C578.553 447.024 577.524 445.211 576.12 443.71C572.91 440.71 567.83 441.37 563.69 439.92C562.3 439.44 561 438.71 559.58 438.37C556.83 437.73 553.95 438.63 551.43 439.9C548.91 441.17 546.56 442.81 543.92 443.81C541.28 444.81 538.02 445.6 537.37 448.31C537.188 449.222 537.264 450.168 537.59 451.04C538.198 452.779 539.266 454.32 540.68 455.5C539.556 457.817 538.948 460.351 538.898 462.926C538.848 465.502 539.358 468.057 540.391 470.417C541.424 472.776 542.957 474.883 544.884 476.593C546.81 478.303 549.085 479.574 551.55 480.32C552.31 481.54 553.02 482.78 553.67 484.05C554.83 486.29 555.81 488.93 555.41 491.33C554.687 492.098 554.019 492.917 553.41 493.78C550.54 497.78 548.91 502.47 547.41 507.15C545.395 513.125 543.782 519.229 542.58 525.42C540.14 530.61 537.16 535.57 535.39 541.02C532.221 541.024 529.066 540.6 526.01 539.76L517.57 537.85C514.63 537.18 511.57 536.46 509.27 534.52C508.05 533.52 507.1 532.19 505.86 531.2C504.62 530.21 502.13 529.05 500.77 529.87C500.522 530.021 500.29 530.198 500.08 530.4C498.84 527.89 497.66 525.4 496.22 522.97C494.15 519.57 491.07 516.46 487.17 515.81C484.787 515.426 482.349 515.994 480.38 517.39C478.1 519.01 476.67 522.39 478.38 524.67C478.808 525.177 479.272 525.652 479.77 526.09C480.928 527.423 481.962 528.859 482.86 530.38C486.084 534.904 490.906 538.036 496.35 539.14L496 540.14C495.29 542.22 493.78 544.73 494.16 546.89L531.7 559.74C534.109 560.717 536.664 561.282 539.26 561.41C540.273 561.401 541.281 561.267 542.26 561.01V562.93V563.01C542.36 576.2 540.26 589.3 539.87 602.48C539.8 604.89 539.87 607.48 541.39 609.36C543.09 611.42 546.11 611.83 548.74 611.36C549.374 611.253 549.994 611.113 550.6 610.94C551.49 614.257 552.132 617.637 552.52 621.05L555 638.91C555.319 640.738 555.45 642.595 555.39 644.45C555.1 648.64 552.89 652.39 551.29 656.26C549.69 660.13 548.74 664.76 550.84 668.38C551.5 669.5 552.41 670.45 553 671.61C553.75 673.406 554.092 675.346 554 677.29C554.154 682.676 554.3 688.07 554.44 693.47C554.004 693.398 553.556 693.487 553.18 693.72C551.1 695.34 551.33 703.05 551.18 705.44C551.02 709.44 551.18 713.52 550.96 717.56C550.7 723.004 549.825 728.402 548.35 733.65C547.99 735.356 547.202 736.942 546.06 738.26C544.891 739.277 543.496 740 541.99 740.37C537.008 741.93 531.798 742.64 526.58 742.47C524.47 742.4 522.27 742.2 520.31 743C518.35 743.8 516.77 746 517.48 748C518.09 749.68 519.94 750.48 521.61 751.11C525.425 752.453 529.108 754.147 532.61 756.17C533.958 757.088 535.38 757.894 536.86 758.58C538.279 759.089 539.747 759.451 541.24 759.66L558.97 762.72C562.6 763.34 566.97 763.72 569.28 760.72C570.53 759.1 570.71 756.9 570.65 754.84C570.55 750.84 569.75 746.77 570.27 742.77C570.665 740.405 571.288 738.084 572.13 735.84C573.897 730.593 575.67 725.35 577.45 720.11C579.23 714.85 581.03 709.54 581.72 704.02C581.97 702.02 581.95 699.74 580.42 698.49C580.033 698.172 579.583 697.94 579.1 697.81C579.04 692.99 578.41 688.16 578.68 683.34C578.75 682.14 578.87 680.94 578.97 679.73C579.897 680.61 580.725 681.59 581.44 682.65C583.15 685.33 583.78 688.87 586.39 690.65C588.61 692.17 591.9 692.09 593.46 694.29C593.961 695.135 594.339 696.047 594.58 697C595.486 699.357 596.845 701.515 598.58 703.35C599.176 705.545 600.004 707.67 601.05 709.69C602.524 712.803 603.99 715.906 605.45 719C606.951 722.339 608.62 725.599 610.45 728.77C611.848 730.765 612.974 732.938 613.8 735.23C615.21 740.17 612.91 745.59 609.27 749.23C605.63 752.87 600.83 754.96 596.1 756.91C595.602 757.078 595.145 757.351 594.76 757.71C594.35 758.195 594.133 758.814 594.15 759.45C594.15 761.76 596.05 763.74 598.23 764.45C600.459 765.048 602.794 765.134 605.06 764.7C617.84 763.15 630.58 760.03 641.88 753.82C643.57 753.019 645.068 751.862 646.27 750.43C646.851 749.708 647.225 748.843 647.354 747.925C647.483 747.008 647.36 746.073 647 745.22V745.22Z" fill="url(#paint0_linear)"/>
<path d="M592.99 520.97C595.123 524.243 597.123 527.596 598.99 531.03C600.298 533.301 601.36 535.704 602.16 538.2C603.32 542.2 603.29 546.47 604.16 550.55C605.16 555.35 607.5 559.93 607.5 564.85C607.347 569.113 605.872 573.223 603.28 576.61C600.695 579.968 597.736 583.021 594.46 585.71C586.909 566.147 582.69 545.457 581.98 524.5C581.88 521.6 581.86 518.61 582.92 515.9C583.57 514.2 586.69 509.54 588.7 511.37C589.43 512.04 589.62 515.06 590.07 516.07C590.913 517.778 591.889 519.416 592.99 520.97V520.97Z" fill="#00507C"/>
<path opacity="0.1" d="M592.99 520.97C595.123 524.243 597.123 527.596 598.99 531.03C600.298 533.301 601.36 535.704 602.16 538.2C603.32 542.2 603.29 546.47 604.16 550.55C605.16 555.35 607.5 559.93 607.5 564.85C607.347 569.113 605.872 573.223 603.28 576.61C600.695 579.968 597.736 583.021 594.46 585.71C586.909 566.147 582.69 545.457 581.98 524.5C581.88 521.6 581.86 518.61 582.92 515.9C583.57 514.2 586.69 509.54 588.7 511.37C589.43 512.04 589.62 515.06 590.07 516.07C590.913 517.778 591.889 519.416 592.99 520.97V520.97Z" fill="#EAF5FB"/>
<path d="M329.35 384.54C321.44 392.44 320.49 395.92 315.74 397.49C310.99 399.06 293.9 407.91 299.27 417.72L313.71 427.26L314.13 427.54L316.34 434.18L294.5 473.06C294.5 473.06 258.5 456.6 254.97 480.95C251.44 505.3 253.68 511.95 252.73 524.95C251.78 537.95 253.04 541.71 249.87 541.71C246.7 541.71 245.45 533.17 245.45 533.17C245.45 533.17 245.25 532.78 244.9 532.05C240.19 522.26 208.22 450.39 259.43 400.99C259.43 400.99 283.15 399.43 288.86 372.23C292.8 353.43 306.58 355.05 315.74 358.88C318.718 360.047 321.492 361.677 323.96 363.71C326.182 365.813 328.158 368.162 329.85 370.71C332.46 374.83 333.88 380 329.35 384.54Z" fill="#D0D2D5"/>
<path opacity="0.1" d="M314.13 427.541L316.34 434.181L294.5 473.061C294.5 473.061 258.5 456.601 254.97 480.951C251.44 505.301 253.68 511.951 252.73 524.951C251.78 537.951 253.04 541.711 249.87 541.711C246.7 541.711 245.45 533.171 245.45 533.171C245.45 533.171 245.25 532.781 244.9 532.051C243.31 519.891 235.25 448.761 264.47 452.541C264.47 452.541 288.18 463.621 291.97 459.201C294.97 455.701 308.29 435.571 313.71 427.311L314.13 427.541Z" fill="#EAF5FB"/>
<path opacity="0.1" d="M329.85 370.65L315.41 387.06C315.41 387.06 298.64 409.5 295.16 408.55C294.118 408.323 293.057 408.199 291.99 408.18C290.829 408.091 289.718 407.675 288.783 406.98C287.849 406.285 287.131 405.339 286.713 404.253C286.294 403.167 286.192 401.984 286.418 400.842C286.644 399.7 287.189 398.645 287.99 397.8C293.71 391.8 304.25 380.41 304.94 377.88C305.63 375.35 312.34 364.26 315.7 358.83C318.677 359.997 321.452 361.627 323.92 363.66C326.155 365.758 328.145 368.103 329.85 370.65V370.65Z" fill="#EAF5FB"/>
<path d="M738.41 606.74C735.96 611.64 723.41 630.02 717.92 638.05L715.35 641.83C715.35 641.83 714.35 648.47 697.96 640.24C681.57 632.01 296.48 469.52 296.48 469.52L293.87 461.68L312.87 433.23L734.94 596.3C734.94 596.3 741.58 600.41 738.41 606.74Z" fill="#00507C"/>
<path opacity="0.1" d="M717.92 638.05L715.35 641.83C715.35 641.83 714.35 648.47 697.96 640.24C681.57 632.01 296.48 469.52 296.48 469.52L293.87 461.68L717.92 638.05Z" fill="#EAF5FB"/>
<path d="M485.64 531.909C481.73 531.269 477.39 531.579 474.35 534.119C472.513 535.675 471.351 537.884 471.11 540.279C470.85 543.049 472.46 546.339 475.24 546.549C475.909 546.557 476.578 546.513 477.24 546.419C478.997 546.412 480.75 546.559 482.48 546.859C485.886 547.179 489.319 546.678 492.491 545.398C495.663 544.117 498.482 542.094 500.71 539.499C503.1 536.499 499.95 535.199 497.13 534.599C493.27 533.779 489.5 532.529 485.64 531.909Z" fill="#FBBEBE"/>
<path d="M552.52 622.221L555 639.841C555.316 641.659 555.443 643.506 555.38 645.351C555.09 649.501 552.88 653.221 551.29 657.061C549.7 660.901 548.73 665.501 550.84 669.061C551.49 670.171 552.4 671.121 552.99 672.271C553.74 674.049 554.082 675.973 553.99 677.901L554.67 702.901C562.39 703.427 570.137 703.384 577.85 702.771C578.152 702.785 578.449 702.693 578.69 702.511C578.894 702.252 578.997 701.929 578.98 701.601C579.32 695.751 578.3 689.891 578.63 684.041C578.75 681.901 579.05 679.771 579.09 677.621C579.21 668.911 574.91 660.381 576.21 651.771C576.618 649.598 577.153 647.451 577.81 645.341C581.92 630.341 581.05 614.581 580.14 599.091C580.156 598.841 580.085 598.594 579.94 598.391C579.793 598.243 579.605 598.142 579.4 598.101C575.025 596.788 570.399 596.548 565.912 597.401C561.424 598.254 557.208 600.174 553.62 603.001C552.53 603.881 549.78 604.731 549.06 605.781C548.06 607.241 549.37 608.701 549.95 610.251C551.235 614.137 552.097 618.15 552.52 622.221V622.221Z" fill="#99999F"/>
<path opacity="0.1" d="M552.52 622.221L555 639.841C555.316 641.659 555.443 643.506 555.38 645.351C555.09 649.501 552.88 653.221 551.29 657.061C549.7 660.901 548.73 665.501 550.84 669.061C551.49 670.171 552.4 671.121 552.99 672.271C553.74 674.049 554.082 675.973 553.99 677.901L554.67 702.901C562.39 703.427 570.137 703.384 577.85 702.771C578.152 702.785 578.449 702.693 578.69 702.511C578.894 702.252 578.997 701.929 578.98 701.601C579.32 695.751 578.3 689.891 578.63 684.041C578.75 681.901 579.05 679.771 579.09 677.621C579.21 668.911 574.91 660.381 576.21 651.771C576.618 649.598 577.153 647.451 577.81 645.341C581.92 630.341 581.05 614.581 580.14 599.091C580.156 598.841 580.085 598.594 579.94 598.391C579.793 598.243 579.605 598.142 579.4 598.101C575.025 596.788 570.399 596.548 565.912 597.401C561.424 598.254 557.208 600.174 553.62 603.001C552.53 603.881 549.78 604.731 549.06 605.781C548.06 607.241 549.37 608.701 549.95 610.251C551.235 614.137 552.097 618.15 552.52 622.221V622.221Z" fill="#EAF5FB"/>
<path d="M598.89 616.91C597.72 619.34 596.15 621.6 595.45 624.21C593.63 631.1 598.34 638.21 597.78 645.27C597.6 647.5 596.91 649.67 596.86 651.9C596.81 654.13 597.63 656.61 599.61 657.64C600.94 658.32 602.61 658.25 603.86 659.03C605.97 660.32 606.21 663.25 606 665.71C605.79 668.17 605.44 670.92 607 672.84C608.19 674.33 610.23 674.91 611.51 676.32C612.271 677.332 612.919 678.426 613.44 679.58C615.35 682.92 618.84 684.96 621.7 687.58C624.56 690.2 626.98 694.04 625.7 697.67C624.76 700.33 622.12 701.97 619.58 703.22C614.946 705.511 610.054 707.24 605.01 708.37C604.468 708.534 603.896 708.565 603.34 708.46C602.777 708.255 602.275 707.911 601.88 707.46C598.93 704.57 595.88 701.54 594.52 697.65C594.278 696.707 593.901 695.805 593.4 694.97C591.84 692.78 588.55 692.86 586.33 691.35C583.73 689.58 583.1 686.07 581.4 683.42C579.7 680.77 577.21 679.19 575.4 676.86C572.34 672.98 571.59 667.8 569.4 663.37C568.47 661.49 567.28 659.73 566.54 657.77C565.793 655.421 565.333 652.99 565.17 650.53C563.76 638.85 560.17 627.09 562.43 615.53C562.93 612.99 563.7 610.53 564.02 607.91C564.57 603.38 563.7 598.74 564.37 594.22C564.386 593.653 564.531 593.096 564.792 592.592C565.053 592.089 565.425 591.65 565.88 591.31C566.42 591.068 567.008 590.948 567.6 590.96C573.528 590.643 579.472 590.777 585.38 591.36C588.38 591.65 591.74 592.26 593.54 594.71C595.07 596.81 594.99 599.62 595.48 602.17C596.09 605.31 597.68 607.02 599.35 609.48C601.02 611.94 600.12 614.37 598.89 616.91Z" fill="#99999F"/>
<path d="M575.82 698.17C577.4 698.17 579.15 698.07 580.37 699.07C581.89 700.32 581.91 702.61 581.67 704.56C580.97 710.04 579.18 715.31 577.39 720.56L572.07 736.17C571.228 738.398 570.605 740.702 570.21 743.05C569.69 747.05 570.49 751.05 570.59 755.05C570.59 757.05 570.46 759.27 569.21 760.88C566.95 763.79 562.54 763.45 558.91 762.88L541.2 759.88C539.706 759.681 538.238 759.322 536.82 758.81C535.342 758.128 533.921 757.328 532.57 756.42C529.066 754.418 525.383 752.744 521.57 751.42C519.91 750.8 518.05 750.01 517.45 748.34C516.74 746.34 518.32 744.14 520.28 743.34C522.24 742.54 524.43 742.74 526.55 742.8C531.764 742.966 536.968 742.263 541.95 740.72C543.451 740.352 544.843 739.632 546.01 738.62C547.197 737.287 548.005 735.661 548.35 733.91C549.859 728.698 550.759 723.329 551.03 717.91C551.24 713.91 551.1 709.91 551.26 705.91C551.36 703.54 551.13 695.91 553.21 694.28C554.8 693.06 561.34 696.43 563.49 696.92C567.533 697.846 571.674 698.266 575.82 698.17V698.17Z" fill="#00507C"/>
<path d="M634.16 709.289C635.89 715.019 636.16 721.079 637.28 726.969C638.4 732.859 640.38 738.869 644.75 742.969C645.6 743.644 646.333 744.455 646.92 745.369C647.289 746.225 647.414 747.167 647.281 748.09C647.149 749.013 646.764 749.881 646.17 750.599C644.962 752.022 643.466 753.17 641.78 753.969C630.49 760.129 617.78 763.239 604.97 764.779C602.706 765.203 600.376 765.118 598.15 764.529C595.97 763.789 594.04 761.829 594.08 759.529C594.058 758.898 594.272 758.282 594.68 757.799C595.069 757.443 595.529 757.174 596.03 757.009C600.75 755.069 605.54 752.959 609.19 749.379C612.84 745.799 615.13 740.379 613.72 735.519C612.885 733.243 611.751 731.087 610.35 729.109C608.521 725.965 606.853 722.731 605.35 719.419L600.95 710.189C599.66 707.489 598.36 704.709 598.14 701.729C603.667 701.977 609.187 701.092 614.36 699.129C616.774 698.144 619.024 696.795 621.03 695.129C622.73 693.709 624.28 691.059 626.57 692.909C628.41 694.389 629.57 698.559 630.65 700.669C632.053 703.442 633.226 706.325 634.16 709.289Z" fill="#00507C"/>
<path d="M569.68 480.1C570.12 483.94 573.84 486.47 577.39 487.99L554.92 495.16C556.37 492.38 555.2 488.98 553.76 486.16C552.587 483.927 551.25 481.785 549.76 479.75C549.54 479.44 549.29 479.05 549.45 478.69C549.593 478.455 549.817 478.281 550.08 478.2C554.7 476.14 559.46 474.01 564.51 473.26C565.97 473.05 568.73 472.47 569.82 473.95C570.91 475.43 569.47 478.33 569.68 480.1Z" fill="#FBBEBE"/>
<path opacity="0.1" d="M569.68 480.1C570.12 483.94 573.84 486.47 577.39 487.99L554.92 495.16C556.37 492.38 555.2 488.98 553.76 486.16C552.587 483.927 551.25 481.785 549.76 479.75C549.54 479.44 549.29 479.05 549.45 478.69C549.593 478.455 549.817 478.281 550.08 478.2C554.7 476.14 559.46 474.01 564.51 473.26C565.97 473.05 568.73 472.47 569.82 473.95C570.91 475.43 569.47 478.33 569.68 480.1Z" fill="#EAF5FB"/>
<path d="M556.62 483.211C566.351 483.211 574.24 475.322 574.24 465.591C574.24 455.859 566.351 447.971 556.62 447.971C546.889 447.971 539 455.859 539 465.591C539 475.322 546.889 483.211 556.62 483.211Z" fill="#FBBEBE"/>
<path d="M541.35 610.59C543.06 612.64 546.07 613.04 548.7 612.59C554.85 611.59 559.88 607.06 565.9 605.43C573.28 603.43 581.09 606 588.06 609.15C595.03 612.3 601.96 616.15 609.58 616.69C602.69 601.33 606.63 582.85 600.04 567.36C598.43 563.57 596.18 559.92 595.82 555.82C595.37 550.73 597.91 545.82 598.3 540.76C598.66 536.25 597.3 531.76 596 527.46C594.393 522.18 592.786 516.9 591.18 511.62C589.38 505.71 587.53 499.7 584.04 494.62C582.75 492.75 582.36 488.96 580.4 487.83C576.12 485.36 569.63 488.47 564.99 488.64C560.35 488.81 556.12 492.11 553.41 495.84C550.54 499.78 548.91 504.47 547.41 509.11C545.021 516.019 543.238 523.123 542.08 530.34C541.93 531.42 541.8 532.5 541.7 533.59C540.7 543.86 542.16 554.19 542.24 564.51V564.58C542.34 577.67 540.24 590.68 539.85 603.76C539.81 606.15 539.87 608.76 541.35 610.59Z" fill="#00507C"/>
<path opacity="0.1" d="M542.27 564.519C545.72 563.649 548.84 561.419 551.52 558.979C553.842 556.902 555.903 554.551 557.66 551.979C559.873 548.521 561.65 544.803 562.95 540.909C566.653 530.496 569.005 519.651 569.95 508.639C570.21 505.639 570.29 502.419 568.5 500.039C567.495 498.75 566.084 497.839 564.495 497.454C562.906 497.069 561.234 497.233 559.75 497.919C557.39 499.069 555.86 501.399 554.44 503.629C551.63 508.049 548.8 512.529 546.99 517.449C546.19 519.629 545.6 521.869 544.82 524.059C544.027 526.219 543.112 528.332 542.08 530.389C541.93 531.469 541.8 532.549 541.7 533.639C540.77 543.909 542.19 554.199 542.27 564.519Z" fill="#EAF5FB"/>
<path d="M568.45 498.11C570.24 500.49 570.16 503.74 569.91 506.7C568.966 517.712 566.614 528.557 562.91 538.97C561.62 542.896 559.843 546.646 557.62 550.13C555.859 552.7 553.798 555.05 551.48 557.13C548.08 560.23 543.94 563 539.33 563.04C536.735 562.918 534.179 562.36 531.77 561.39L494.22 548.61C493.84 546.47 495.35 543.97 496.06 541.91L498.06 535.98C498.63 534.34 499.29 532.57 500.78 531.68C502.27 530.79 504.63 532.01 505.87 533C507.11 533.99 508.05 535.29 509.27 536.3C511.58 538.22 514.63 538.94 517.57 539.6L526 541.49C529.056 542.327 532.211 542.747 535.38 542.74C537.73 535.56 542.2 529.24 544.73 522.12C545.51 519.94 546.1 517.69 546.91 515.51C548.71 510.59 551.55 506.12 554.36 501.69C555.77 499.47 557.3 497.14 559.67 495.98C561.157 495.285 562.837 495.117 564.433 495.505C566.029 495.892 567.445 496.811 568.45 498.11V498.11Z" fill="#00507C"/>
<path d="M562.24 469.57C562.106 468.411 561.746 467.29 561.18 466.27C560.885 465.76 560.435 465.356 559.896 465.119C559.356 464.882 558.755 464.823 558.18 464.95C556.42 465.5 555.83 468.22 553.99 468.31C552.75 468.37 551.86 467.11 551.47 465.93C551.08 464.75 550.87 463.4 549.94 462.57C549.292 462.086 548.549 461.745 547.76 461.57C543.49 460.22 539.08 457.73 537.66 453.48C537.325 452.618 537.246 451.677 537.43 450.77C538.08 448.08 541.43 447.27 543.98 446.3C546.53 445.33 548.98 443.67 551.48 442.41C553.98 441.15 556.88 440.26 559.63 440.9C561.025 441.339 562.397 441.85 563.74 442.43C567.88 443.87 572.95 443.2 576.16 446.19C577.562 447.674 578.591 449.47 579.16 451.43C581.4 457.65 582.82 465.03 579.11 470.49C576.82 473.86 574.6 477.71 570.2 478.12C565.08 478.55 563.05 473.91 562.24 469.57Z" fill="#00507C"/>
<g opacity="0.1">
<path opacity="0.1" d="M554.42 463.811C554.03 462.631 553.82 461.281 552.9 460.451C552.252 459.967 551.509 459.626 550.72 459.451C546.44 458.101 542.04 455.611 540.61 451.361C540.284 450.496 540.208 449.557 540.39 448.651C540.488 448.224 540.668 447.82 540.92 447.461C539.29 448.171 537.87 449.111 537.47 450.771C537.286 451.678 537.366 452.618 537.7 453.481C539.12 457.731 543.53 460.221 547.8 461.571C548.589 461.746 549.332 462.087 549.98 462.571C550.91 463.401 551.11 464.741 551.51 465.931C551.91 467.121 552.79 468.371 554.03 468.311C555.27 468.251 555.87 467.121 556.66 466.171C555.57 466.031 554.78 464.911 554.42 463.811Z" fill="#EAF5FB"/>
<path opacity="0.1" d="M573.14 475.97C568 476.44 565.97 471.76 565.14 467.45C565.03 466.294 564.69 465.172 564.14 464.15C563.844 463.641 563.394 463.238 562.855 463.001C562.316 462.764 561.715 462.704 561.14 462.83C560.227 463.273 559.461 463.967 558.93 464.83C559.389 464.874 559.831 465.023 560.223 465.266C560.615 465.509 560.946 465.839 561.19 466.23C561.756 467.25 562.116 468.371 562.25 469.53C563.06 473.84 565.09 478.53 570.25 478.05C572.289 477.825 574.172 476.848 575.53 475.31C574.775 475.662 573.968 475.885 573.14 475.97V475.97Z" fill="#EAF5FB"/>
</g>
<path d="M779.11 661.99C796.944 661.99 811.4 659.21 811.4 655.78C811.4 652.351 796.944 649.57 779.11 649.57C761.277 649.57 746.82 652.351 746.82 655.78C746.82 659.21 761.277 661.99 779.11 661.99Z" fill="#3099D3"/>
<path d="M778.57 658.061C780.646 658.061 782.33 655.858 782.33 653.141C782.33 650.424 780.646 648.221 778.57 648.221C776.493 648.221 774.81 650.424 774.81 653.141C774.81 655.858 776.493 658.061 778.57 658.061Z" fill="#99999F"/>
<path d="M778.57 652.039C780.646 652.039 782.33 649.836 782.33 647.119C782.33 644.402 780.646 642.199 778.57 642.199C776.493 642.199 774.81 644.402 774.81 647.119C774.81 649.836 776.493 652.039 778.57 652.039Z" fill="#99999F"/>
<path d="M778.57 646.029C780.646 646.029 782.33 643.827 782.33 641.109C782.33 638.392 780.646 636.189 778.57 636.189C776.493 636.189 774.81 638.392 774.81 641.109C774.81 643.827 776.493 646.029 778.57 646.029Z" fill="#99999F"/>
<path d="M778.57 640.01C780.646 640.01 782.33 637.807 782.33 635.09C782.33 632.373 780.646 630.17 778.57 630.17C776.493 630.17 774.81 632.373 774.81 635.09C774.81 637.807 776.493 640.01 778.57 640.01Z" fill="#99999F"/>
<path d="M778.57 633.99C780.646 633.99 782.33 631.788 782.33 629.07C782.33 626.353 780.646 624.15 778.57 624.15C776.493 624.15 774.81 626.353 774.81 629.07C774.81 631.788 776.493 633.99 778.57 633.99Z" fill="#99999F"/>
<path d="M778.57 627.981C780.646 627.981 782.33 625.778 782.33 623.061C782.33 620.343 780.646 618.141 778.57 618.141C776.493 618.141 774.81 620.343 774.81 623.061C774.81 625.778 776.493 627.981 778.57 627.981Z" fill="#99999F"/>
<path d="M778.57 621.959C780.646 621.959 782.33 619.756 782.33 617.039C782.33 614.322 780.646 612.119 778.57 612.119C776.493 612.119 774.81 614.322 774.81 617.039C774.81 619.756 776.493 621.959 778.57 621.959Z" fill="#99999F"/>
<path d="M792.64 575.909C793.153 575.255 793.621 574.567 794.04 573.849L784.16 572.229L794.85 572.299C795.871 570.068 796.427 567.652 796.485 565.199C796.544 562.746 796.103 560.307 795.19 558.029L780.85 565.469L794.07 555.749C792.83 553.614 791.163 551.757 789.174 550.293C787.185 548.83 784.916 547.791 782.509 547.242C780.101 546.693 777.606 546.645 775.179 547.101C772.752 547.558 770.445 548.509 768.401 549.895C766.358 551.281 764.621 553.073 763.3 555.159C761.978 557.245 761.1 559.581 760.72 562.021C760.34 564.461 760.467 566.954 761.091 569.343C761.715 571.732 762.825 573.967 764.35 575.909C763.547 576.925 762.856 578.025 762.29 579.189L775.12 585.859L761.44 581.269C760.485 584.103 760.251 587.13 760.759 590.078C761.267 593.025 762.501 595.799 764.35 598.149C762.264 600.805 760.967 603.994 760.608 607.352C760.248 610.709 760.84 614.101 762.317 617.138C763.793 620.175 766.094 622.736 768.957 624.527C771.819 626.318 775.128 627.268 778.505 627.268C781.882 627.268 785.191 626.318 788.054 624.527C790.917 622.736 793.218 620.175 794.694 617.138C796.17 614.101 796.763 610.709 796.403 607.352C796.043 603.994 794.746 600.805 792.66 598.149C795.159 594.976 796.518 591.054 796.518 587.014C796.518 582.975 795.159 579.053 792.66 575.879L792.64 575.909Z" fill="#3099D3"/>
<path opacity="0.1" d="M760.47 587.009C760.468 591.054 761.836 594.981 764.35 598.149C762.264 600.805 760.967 603.994 760.607 607.352C760.247 610.709 760.84 614.101 762.316 617.138C763.792 620.175 766.093 622.736 768.956 624.527C771.819 626.318 775.128 627.268 778.505 627.268C781.882 627.268 785.191 626.318 788.053 624.527C790.916 622.736 793.217 620.175 794.693 617.138C796.17 614.101 796.762 610.709 796.402 607.352C796.043 603.994 794.746 600.805 792.66 598.149C795.05 595.079 760.47 584.989 760.47 587.009Z" fill="#EAF5FB"/>
<path d="M114.42 785.81C140.095 785.81 160.91 781.807 160.91 776.87C160.91 771.932 140.095 767.93 114.42 767.93C88.744 767.93 67.9297 771.932 67.9297 776.87C67.9297 781.807 88.744 785.81 114.42 785.81Z" fill="#3099D3"/>
<path d="M113.64 780.16C116.628 780.16 119.05 776.986 119.05 773.07C119.05 769.155 116.628 765.98 113.64 765.98C110.653 765.98 108.23 769.155 108.23 773.07C108.23 776.986 110.653 780.16 113.64 780.16Z" fill="#99999F"/>
<path d="M113.64 771.5C116.628 771.5 119.05 768.326 119.05 764.41C119.05 760.495 116.628 757.32 113.64 757.32C110.653 757.32 108.23 760.495 108.23 764.41C108.23 768.326 110.653 771.5 113.64 771.5Z" fill="#99999F"/>
<path d="M113.64 762.84C116.628 762.84 119.05 759.666 119.05 755.75C119.05 751.834 116.628 748.66 113.64 748.66C110.653 748.66 108.23 751.834 108.23 755.75C108.23 759.666 110.653 762.84 113.64 762.84Z" fill="#99999F"/>
<path d="M113.64 754.18C116.628 754.18 119.05 751.006 119.05 747.09C119.05 743.174 116.628 740 113.64 740C110.653 740 108.23 743.174 108.23 747.09C108.23 751.006 110.653 754.18 113.64 754.18Z" fill="#99999F"/>
<path d="M113.64 745.52C116.628 745.52 119.05 742.346 119.05 738.43C119.05 734.514 116.628 731.34 113.64 731.34C110.653 731.34 108.23 734.514 108.23 738.43C108.23 742.346 110.653 745.52 113.64 745.52Z" fill="#99999F"/>
<path d="M113.64 736.85C116.628 736.85 119.05 733.676 119.05 729.76C119.05 725.844 116.628 722.67 113.64 722.67C110.653 722.67 108.23 725.844 108.23 729.76C108.23 733.676 110.653 736.85 113.64 736.85Z" fill="#99999F"/>
<path d="M113.64 728.19C116.628 728.19 119.05 725.015 119.05 721.1C119.05 717.184 116.628 714.01 113.64 714.01C110.653 714.01 108.23 717.184 108.23 721.1C108.23 725.015 110.653 728.19 113.64 728.19Z" fill="#99999F"/>
<path d="M133.9 661.84C134.632 660.885 135.301 659.883 135.9 658.84L121.68 656.5L137.06 656.62C138.534 653.408 139.338 649.929 139.422 646.396C139.507 642.862 138.87 639.349 137.55 636.07L116.93 646.81L135.93 632.81C134.151 629.723 131.755 627.036 128.891 624.916C126.027 622.796 122.757 621.289 119.284 620.49C115.812 619.69 112.213 619.614 108.71 620.268C105.207 620.921 101.877 622.289 98.9264 624.287C95.976 626.285 93.469 628.869 91.5618 631.879C89.6546 634.888 88.3881 638.259 87.8414 641.78C87.2948 645.301 87.4796 648.896 88.3844 652.343C89.2892 655.789 90.8945 659.012 93.1002 661.81C91.9323 663.27 90.9264 664.853 90.1002 666.53L108.57 676.13L88.8802 669.52C87.5002 673.618 87.1671 677.997 87.9111 682.256C88.6551 686.516 90.4527 690.522 93.1402 693.91C90.1315 697.735 88.2598 702.329 87.7391 707.167C87.2184 712.006 88.0697 716.893 90.1956 721.27C92.3216 725.648 95.6365 729.338 99.7612 731.92C103.886 734.503 108.654 735.872 113.52 735.872C118.386 735.872 123.155 734.503 127.279 731.92C131.404 729.338 134.719 725.648 136.845 721.27C138.971 716.893 139.822 712.006 139.301 707.167C138.781 702.329 136.909 697.735 133.9 693.91C137.496 689.341 139.451 683.695 139.451 677.88C139.451 672.065 137.496 666.419 133.9 661.85V661.84Z" fill="#3099D3"/>
<path opacity="0.1" d="M87.5899 677.909C87.5908 683.715 89.5458 689.351 93.1399 693.909C90.1312 697.734 88.2594 702.328 87.7387 707.167C87.218 712.005 88.0693 716.892 90.1953 721.27C92.3213 725.647 95.6361 729.338 99.7608 731.92C103.886 734.502 108.654 735.871 113.52 735.871C118.386 735.871 123.154 734.502 127.279 731.92C131.404 729.338 134.718 725.647 136.844 721.27C138.97 716.892 139.822 712.005 139.301 707.167C138.78 702.328 136.909 697.734 133.9 693.909C137.35 689.489 87.5899 674.959 87.5899 677.909Z" fill="#EAF5FB"/>
</g>
<defs>
<linearGradient id="paint0_linear" x1="567.882" y1="766.346" x2="554.646" y2="438.223" gradientUnits="userSpaceOnUse">
<stop stop-color="#808080" stop-opacity="0.25"/>
<stop offset="0.54" stop-color="#808080" stop-opacity="0.12"/>
<stop offset="1" stop-color="#808080" stop-opacity="0.1"/>
</linearGradient>
<clipPath id="clip0">
<rect width="860" height="786" fill="white"/>
</clipPath>
</defs>
</svg>
