<svg width="54" height="38" viewBox="0 0 54 38" fill="none" xmlns="http://www.w3.org/2000/svg">
<rect width="54" height="38" fill="#00507C"/>
<path fill-rule="evenodd" clip-rule="evenodd" d="M26 26C21.5817 26 18 22.4183 18 18C18 13.5817 21.5817 10 26 10C30.4183 10 34 13.5817 34 18C34 19.8487 33.3729 21.551 32.3199 22.9056L37.7071 28.2929L36.2929 29.7071L30.9056 24.3199C29.551 25.3729 27.8487 26 26 26ZM32 18C32 21.3137 29.3137 24 26 24C22.6863 24 20 21.3137 20 18C20 14.6863 22.6863 12 26 12C29.3137 12 32 14.6863 32 18Z" fill="white"/>
</svg>
